<svg viewBox="0 0 200 120" xmlns="http://www.w3.org/2000/svg">
  <rect width="200" height="120" fill="#FFFEF5" rx="8"/>
  <polygon points="35.0,18.0 37.9,26.0 46.4,26.3 39.8,31.5 42.1,39.7 35.0,35.0 27.9,39.7 30.2,31.5 23.6,26.3 32.1,26.0" fill="#BB8FCE" stroke="#333" stroke-width="1"/>
  <polygon points="70.0,18.0 72.9,26.0 81.4,26.3 74.8,31.5 77.1,39.7 70.0,35.0 62.9,39.7 65.2,31.5 58.6,26.3 67.1,26.0" fill="#BB8FCE" stroke="#333" stroke-width="1"/>
  <polygon points="105.0,18.0 107.9,26.0 116.4,26.3 109.8,31.5 112.1,39.7 105.0,35.0 97.9,39.7 100.2,31.5 93.6,26.3 102.1,26.0" fill="#BB8FCE" stroke="#333" stroke-width="1"/>
  <polygon points="140.0,18.0 142.9,26.0 151.4,26.3 144.8,31.5 147.1,39.7 140.0,35.0 132.9,39.7 135.2,31.5 128.6,26.3 137.1,26.0" fill="#BB8FCE" stroke="#333" stroke-width="1"/>
  <polygon points="175.0,18.0 177.9,26.0 186.4,26.3 179.8,31.5 182.1,39.7 175.0,35.0 167.9,39.7 170.2,31.5 163.6,26.3 172.1,26.0" fill="#BB8FCE" stroke="#333" stroke-width="1"/>
  <polygon points="35.0,53.0 37.9,61.0 46.4,61.3 39.8,66.5 42.1,74.7 35.0,70.0 27.9,74.7 30.2,66.5 23.6,61.3 32.1,61.0" fill="#BB8FCE" stroke="#333" stroke-width="1"/>
  <polygon points="70.0,53.0 72.9,61.0 81.4,61.3 74.8,66.5 77.1,74.7 70.0,70.0 62.9,74.7 65.2,66.5 58.6,61.3 67.1,61.0" fill="#BB8FCE" stroke="#333" stroke-width="1"/>
  <polygon points="105.0,53.0 107.9,61.0 116.4,61.3 109.8,66.5 112.1,74.7 105.0,70.0 97.9,74.7 100.2,66.5 93.6,61.3 102.1,61.0" fill="#BB8FCE" stroke="#333" stroke-width="1"/>
  <polygon points="140.0,53.0 142.9,61.0 151.4,61.3 144.8,66.5 147.1,74.7 140.0,70.0 132.9,74.7 135.2,66.5 128.6,61.3 137.1,61.0" fill="#BB8FCE" stroke="#333" stroke-width="1"/>
  <polygon points="175.0,53.0 177.9,61.0 186.4,61.3 179.8,66.5 182.1,74.7 175.0,70.0 167.9,74.7 170.2,66.5 163.6,61.3 172.1,61.0" fill="#BB8FCE" stroke="#333" stroke-width="1"/>
  <polygon points="35.0,88.0 37.9,96.0 46.4,96.3 39.8,101.5 42.1,109.7 35.0,105.0 27.9,109.7 30.2,101.5 23.6,96.3 32.1,96.0" fill="#BB8FCE" stroke="#333" stroke-width="1"/>
  <polygon points="70.0,88.0 72.9,96.0 81.4,96.3 74.8,101.5 77.1,109.7 70.0,105.0 62.9,109.7 65.2,101.5 58.6,96.3 67.1,96.0" fill="#BB8FCE" stroke="#333" stroke-width="1"/>
  <polygon points="105.0,88.0 107.9,96.0 116.4,96.3 109.8,101.5 112.1,109.7 105.0,105.0 97.9,109.7 100.2,101.5 93.6,96.3 102.1,96.0" fill="#BB8FCE" stroke="#333" stroke-width="1"/>
  <polygon points="140.0,88.0 142.9,96.0 151.4,96.3 144.8,101.5 147.1,109.7 140.0,105.0 132.9,109.7 135.2,101.5 128.6,96.3 137.1,96.0" fill="#BB8FCE" stroke="#333" stroke-width="1"/>
</svg>