<svg viewBox="0 0 260 150" xmlns="http://www.w3.org/2000/svg">
  <rect width="260" height="150" fill="#FFEBEE" rx="8"/>
  <circle cx="15" cy="40" r="10" fill="#FFA07A" stroke="#333" stroke-width="1"/>
  <circle cx="41" cy="40" r="10" fill="#FFA07A" stroke="#333" stroke-width="1"/>
  <circle cx="67" cy="40" r="10" fill="#FFA07A" stroke="#333" stroke-width="1"/>
  <circle cx="93" cy="40" r="10" fill="#FFA07A" stroke="#333" stroke-width="1"/>
  <circle cx="119" cy="40" r="10" fill="#FFA07A" stroke="#333" stroke-width="1"/>
  <circle cx="145" cy="40" r="10" fill="#FFA07A" stroke="#333" stroke-width="1"/>
  <circle cx="171" cy="40" r="10" fill="#EEE" stroke="#999" stroke-width="1" stroke-dasharray="2"/>
  <line x1="164" y1="33" x2="178" y2="47" stroke="#999" stroke-width="1.5"/>
  <circle cx="197" cy="40" r="10" fill="#EEE" stroke="#999" stroke-width="1" stroke-dasharray="2"/>
  <line x1="190" y1="33" x2="204" y2="47" stroke="#999" stroke-width="1.5"/>
  <circle cx="223" cy="40" r="10" fill="#EEE" stroke="#999" stroke-width="1" stroke-dasharray="2"/>
  <line x1="216" y1="33" x2="230" y2="47" stroke="#999" stroke-width="1.5"/>
  <circle cx="15" cy="80" r="10" fill="#EEE" stroke="#999" stroke-width="1" stroke-dasharray="2"/>
  <line x1="8" y1="73" x2="22" y2="87" stroke="#999" stroke-width="1.5"/>
  <circle cx="41" cy="80" r="10" fill="#EEE" stroke="#999" stroke-width="1" stroke-dasharray="2"/>
  <line x1="34" y1="73" x2="48" y2="87" stroke="#999" stroke-width="1.5"/>
  <circle cx="67" cy="80" r="10" fill="#EEE" stroke="#999" stroke-width="1" stroke-dasharray="2"/>
  <line x1="60" y1="73" x2="74" y2="87" stroke="#999" stroke-width="1.5"/>
  <circle cx="93" cy="80" r="10" fill="#EEE" stroke="#999" stroke-width="1" stroke-dasharray="2"/>
  <line x1="86" y1="73" x2="100" y2="87" stroke="#999" stroke-width="1.5"/>
  <circle cx="119" cy="80" r="10" fill="#EEE" stroke="#999" stroke-width="1" stroke-dasharray="2"/>
  <line x1="112" y1="73" x2="126" y2="87" stroke="#999" stroke-width="1.5"/>
  <circle cx="145" cy="80" r="10" fill="#EEE" stroke="#999" stroke-width="1" stroke-dasharray="2"/>
  <line x1="138" y1="73" x2="152" y2="87" stroke="#999" stroke-width="1.5"/>
  <circle cx="171" cy="80" r="10" fill="#EEE" stroke="#999" stroke-width="1" stroke-dasharray="2"/>
  <line x1="164" y1="73" x2="178" y2="87" stroke="#999" stroke-width="1.5"/>
</svg>