<svg viewBox="0 0 260 150" xmlns="http://www.w3.org/2000/svg">
  <rect width="260" height="150" fill="#FFF3E0" rx="8"/>
  <text x="130" y="18" font-size="10" fill="#333" text-anchor="middle" font-weight="bold">Favourite Items</text>
  <text x="5" y="42" font-size="9" fill="#333">Red</text>
  <circle cx="70" cy="38" r="7" fill="#FF6B6B"/>
  <circle cx="88" cy="38" r="7" fill="#FF6B6B"/>
  <circle cx="106" cy="38" r="7" fill="#FF6B6B"/>
  <circle cx="124" cy="38" r="7" fill="#FF6B6B"/>
  <circle cx="142" cy="38" r="7" fill="#FF6B6B"/>
  <circle cx="160" cy="38" r="7" fill="#FF6B6B"/>
  <circle cx="178" cy="38" r="7" fill="#FF6B6B"/>
  <text x="5" y="70" font-size="9" fill="#333">Yellow</text>
  <circle cx="70" cy="66" r="7" fill="#4ECDC4"/>
  <circle cx="88" cy="66" r="7" fill="#4ECDC4"/>
  <circle cx="106" cy="66" r="7" fill="#4ECDC4"/>
  <text x="5" y="98" font-size="9" fill="#333">Blue</text>
  <circle cx="70" cy="94" r="7" fill="#F7DC6F"/>
  <circle cx="88" cy="94" r="7" fill="#F7DC6F"/>
  <text x="5" y="126" font-size="9" fill="#333">Green</text>
  <circle cx="70" cy="122" r="7" fill="#BB8FCE"/>
  <circle cx="88" cy="122" r="7" fill="#BB8FCE"/>
  <circle cx="106" cy="122" r="7" fill="#BB8FCE"/>
  <circle cx="124" cy="122" r="7" fill="#BB8FCE"/>
  <circle cx="142" cy="122" r="7" fill="#BB8FCE"/>
  <circle cx="160" cy="122" r="7" fill="#BB8FCE"/>
  <circle cx="178" cy="122" r="7" fill="#BB8FCE"/>
</svg>