<svg viewBox="0 0 200 120" xmlns="http://www.w3.org/2000/svg">
  <rect width="200" height="120" fill="#FFFEF5" rx="8"/>
  <circle cx="42.0" cy="30.0" r="5" fill="#4ECDC4" opacity="0.8"/>
  <circle cx="37.2" cy="36.7" r="5" fill="#4ECDC4" opacity="0.8"/>
  <circle cx="29.3" cy="34.1" r="5" fill="#4ECDC4" opacity="0.8"/>
  <circle cx="29.3" cy="25.9" r="5" fill="#4ECDC4" opacity="0.8"/>
  <circle cx="37.2" cy="23.3" r="5" fill="#4ECDC4" opacity="0.8"/>
  <circle cx="35" cy="30" r="4" fill="#F39C12"/>
  <circle cx="77.0" cy="30.0" r="5" fill="#4ECDC4" opacity="0.8"/>
  <circle cx="72.2" cy="36.7" r="5" fill="#4ECDC4" opacity="0.8"/>
  <circle cx="64.3" cy="34.1" r="5" fill="#4ECDC4" opacity="0.8"/>
  <circle cx="64.3" cy="25.9" r="5" fill="#4ECDC4" opacity="0.8"/>
  <circle cx="72.2" cy="23.3" r="5" fill="#4ECDC4" opacity="0.8"/>
  <circle cx="70" cy="30" r="4" fill="#F39C12"/>
  <circle cx="112.0" cy="30.0" r="5" fill="#4ECDC4" opacity="0.8"/>
  <circle cx="107.2" cy="36.7" r="5" fill="#4ECDC4" opacity="0.8"/>
  <circle cx="99.3" cy="34.1" r="5" fill="#4ECDC4" opacity="0.8"/>
  <circle cx="99.3" cy="25.9" r="5" fill="#4ECDC4" opacity="0.8"/>
  <circle cx="107.2" cy="23.3" r="5" fill="#4ECDC4" opacity="0.8"/>
  <circle cx="105" cy="30" r="4" fill="#F39C12"/>
  <circle cx="147.0" cy="30.0" r="5" fill="#4ECDC4" opacity="0.8"/>
  <circle cx="142.2" cy="36.7" r="5" fill="#4ECDC4" opacity="0.8"/>
  <circle cx="134.3" cy="34.1" r="5" fill="#4ECDC4" opacity="0.8"/>
  <circle cx="134.3" cy="25.9" r="5" fill="#4ECDC4" opacity="0.8"/>
  <circle cx="142.2" cy="23.3" r="5" fill="#4ECDC4" opacity="0.8"/>
  <circle cx="140" cy="30" r="4" fill="#F39C12"/>
  <circle cx="182.0" cy="30.0" r="5" fill="#4ECDC4" opacity="0.8"/>
  <circle cx="177.2" cy="36.7" r="5" fill="#4ECDC4" opacity="0.8"/>
  <circle cx="169.3" cy="34.1" r="5" fill="#4ECDC4" opacity="0.8"/>
  <circle cx="169.3" cy="25.9" r="5" fill="#4ECDC4" opacity="0.8"/>
  <circle cx="177.2" cy="23.3" r="5" fill="#4ECDC4" opacity="0.8"/>
  <circle cx="175" cy="30" r="4" fill="#F39C12"/>
  <circle cx="42.0" cy="65.0" r="5" fill="#4ECDC4" opacity="0.8"/>
  <circle cx="37.2" cy="71.7" r="5" fill="#4ECDC4" opacity="0.8"/>
  <circle cx="29.3" cy="69.1" r="5" fill="#4ECDC4" opacity="0.8"/>
  <circle cx="29.3" cy="60.9" r="5" fill="#4ECDC4" opacity="0.8"/>
  <circle cx="37.2" cy="58.3" r="5" fill="#4ECDC4" opacity="0.8"/>
  <circle cx="35" cy="65" r="4" fill="#F39C12"/>
  <circle cx="77.0" cy="65.0" r="5" fill="#4ECDC4" opacity="0.8"/>
  <circle cx="72.2" cy="71.7" r="5" fill="#4ECDC4" opacity="0.8"/>
  <circle cx="64.3" cy="69.1" r="5" fill="#4ECDC4" opacity="0.8"/>
  <circle cx="64.3" cy="60.9" r="5" fill="#4ECDC4" opacity="0.8"/>
  <circle cx="72.2" cy="58.3" r="5" fill="#4ECDC4" opacity="0.8"/>
  <circle cx="70" cy="65" r="4" fill="#F39C12"/>
  <circle cx="112.0" cy="65.0" r="5" fill="#4ECDC4" opacity="0.8"/>
  <circle cx="107.2" cy="71.7" r="5" fill="#4ECDC4" opacity="0.8"/>
  <circle cx="99.3" cy="69.1" r="5" fill="#4ECDC4" opacity="0.8"/>
  <circle cx="99.3" cy="60.9" r="5" fill="#4ECDC4" opacity="0.8"/>
  <circle cx="107.2" cy="58.3" r="5" fill="#4ECDC4" opacity="0.8"/>
  <circle cx="105" cy="65" r="4" fill="#F39C12"/>
  <circle cx="147.0" cy="65.0" r="5" fill="#4ECDC4" opacity="0.8"/>
  <circle cx="142.2" cy="71.7" r="5" fill="#4ECDC4" opacity="0.8"/>
  <circle cx="134.3" cy="69.1" r="5" fill="#4ECDC4" opacity="0.8"/>
  <circle cx="134.3" cy="60.9" r="5" fill="#4ECDC4" opacity="0.8"/>
  <circle cx="142.2" cy="58.3" r="5" fill="#4ECDC4" opacity="0.8"/>
  <circle cx="140" cy="65" r="4" fill="#F39C12"/>
  <circle cx="182.0" cy="65.0" r="5" fill="#4ECDC4" opacity="0.8"/>
  <circle cx="177.2" cy="71.7" r="5" fill="#4ECDC4" opacity="0.8"/>
  <circle cx="169.3" cy="69.1" r="5" fill="#4ECDC4" opacity="0.8"/>
  <circle cx="169.3" cy="60.9" r="5" fill="#4ECDC4" opacity="0.8"/>
  <circle cx="177.2" cy="58.3" r="5" fill="#4ECDC4" opacity="0.8"/>
  <circle cx="175" cy="65" r="4" fill="#F39C12"/>
  <circle cx="42.0" cy="100.0" r="5" fill="#4ECDC4" opacity="0.8"/>
  <circle cx="37.2" cy="106.7" r="5" fill="#4ECDC4" opacity="0.8"/>
  <circle cx="29.3" cy="104.1" r="5" fill="#4ECDC4" opacity="0.8"/>
  <circle cx="29.3" cy="95.9" r="5" fill="#4ECDC4" opacity="0.8"/>
  <circle cx="37.2" cy="93.3" r="5" fill="#4ECDC4" opacity="0.8"/>
  <circle cx="35" cy="100" r="4" fill="#F39C12"/>
  <circle cx="77.0" cy="100.0" r="5" fill="#4ECDC4" opacity="0.8"/>
  <circle cx="72.2" cy="106.7" r="5" fill="#4ECDC4" opacity="0.8"/>
  <circle cx="64.3" cy="104.1" r="5" fill="#4ECDC4" opacity="0.8"/>
  <circle cx="64.3" cy="95.9" r="5" fill="#4ECDC4" opacity="0.8"/>
  <circle cx="72.2" cy="93.3" r="5" fill="#4ECDC4" opacity="0.8"/>
  <circle cx="70" cy="100" r="4" fill="#F39C12"/>
</svg>