<svg viewBox="0 0 260 150" xmlns="http://www.w3.org/2000/svg">
  <rect width="260" height="150" fill="#F3E5F5" rx="8"/>
  <line x1="20" y1="75" x2="240" y2="75" stroke="#333" stroke-width="2"/>
  <line x1="20" y1="70" x2="20" y2="80" stroke="#333" stroke-width="1.5"/>
  <text x="20" y="100" font-size="10" fill="#333" text-anchor="middle">40</text>
  <line x1="42" y1="70" x2="42" y2="80" stroke="#333" stroke-width="1.5"/>
  <text x="42" y="100" font-size="10" fill="#333" text-anchor="middle">41</text>
  <line x1="64" y1="70" x2="64" y2="80" stroke="#333" stroke-width="1.5"/>
  <text x="64" y="100" font-size="10" fill="#333" text-anchor="middle">42</text>
  <line x1="86" y1="70" x2="86" y2="80" stroke="#333" stroke-width="1.5"/>
  <text x="86" y="100" font-size="10" fill="#333" text-anchor="middle">43</text>
  <line x1="108" y1="70" x2="108" y2="80" stroke="#333" stroke-width="1.5"/>
  <circle cx="108" cy="75" r="10" fill="#FF6B6B" opacity="0.5"/>
  <text x="108" y="100" font-size="11" fill="#FF6B6B" text-anchor="middle" font-weight="bold">44</text>
  <line x1="130" y1="70" x2="130" y2="80" stroke="#333" stroke-width="1.5"/>
  <text x="130" y="100" font-size="10" fill="#333" text-anchor="middle">45</text>
  <line x1="152" y1="70" x2="152" y2="80" stroke="#333" stroke-width="1.5"/>
  <text x="152" y="100" font-size="10" fill="#333" text-anchor="middle">46</text>
  <line x1="174" y1="70" x2="174" y2="80" stroke="#333" stroke-width="1.5"/>
  <text x="174" y="100" font-size="10" fill="#333" text-anchor="middle">47</text>
  <line x1="196" y1="70" x2="196" y2="80" stroke="#333" stroke-width="1.5"/>
  <text x="196" y="100" font-size="10" fill="#333" text-anchor="middle">48</text>
  <line x1="218" y1="70" x2="218" y2="80" stroke="#333" stroke-width="1.5"/>
  <text x="218" y="100" font-size="10" fill="#333" text-anchor="middle">49</text>
  <line x1="240" y1="70" x2="240" y2="80" stroke="#333" stroke-width="1.5"/>
  <text x="240" y="100" font-size="10" fill="#333" text-anchor="middle">50</text>
</svg>