<svg viewBox="0 0 200 120" xmlns="http://www.w3.org/2000/svg">
  <rect width="200" height="120" fill="#FFFEF5" rx="8"/>
  <line x1="15" y1="70" x2="185" y2="70" stroke="#333" stroke-width="2"/>
  <line x1="15.0" y1="65" x2="15.0" y2="75" stroke="#333" stroke-width="1.5"/>
  <text x="15.0" y="90" text-anchor="middle" font-size="8" fill="#333">0</text>
  <line x1="33.888888888888886" y1="65" x2="33.888888888888886" y2="75" stroke="#333" stroke-width="1.5"/>
  <text x="33.888888888888886" y="90" text-anchor="middle" font-size="8" fill="#333">1</text>
  <line x1="52.77777777777778" y1="65" x2="52.77777777777778" y2="75" stroke="#333" stroke-width="1.5"/>
  <text x="52.77777777777778" y="90" text-anchor="middle" font-size="8" fill="#333">2</text>
  <line x1="71.66666666666667" y1="65" x2="71.66666666666667" y2="75" stroke="#333" stroke-width="1.5"/>
  <text x="71.66666666666667" y="90" text-anchor="middle" font-size="8" fill="#333">3</text>
  <line x1="90.55555555555556" y1="65" x2="90.55555555555556" y2="75" stroke="#333" stroke-width="1.5"/>
  <circle cx="90.55555555555556" cy="70" r="8" fill="#FF6B6B" opacity="0.5"/>
  <text x="90.55555555555556" y="90" text-anchor="middle" font-size="9" fill="#FF6B6B" font-weight="bold">4</text>
  <line x1="109.44444444444444" y1="65" x2="109.44444444444444" y2="75" stroke="#333" stroke-width="1.5"/>
  <text x="109.44444444444444" y="90" text-anchor="middle" font-size="8" fill="#333">5</text>
  <line x1="128.33333333333334" y1="65" x2="128.33333333333334" y2="75" stroke="#333" stroke-width="1.5"/>
  <text x="128.33333333333334" y="90" text-anchor="middle" font-size="8" fill="#333">6</text>
  <line x1="147.22222222222223" y1="65" x2="147.22222222222223" y2="75" stroke="#333" stroke-width="1.5"/>
  <text x="147.22222222222223" y="90" text-anchor="middle" font-size="8" fill="#333">7</text>
  <line x1="166.11111111111111" y1="65" x2="166.11111111111111" y2="75" stroke="#333" stroke-width="1.5"/>
  <text x="166.11111111111111" y="90" text-anchor="middle" font-size="8" fill="#333">8</text>
  <line x1="185.0" y1="65" x2="185.0" y2="75" stroke="#333" stroke-width="1.5"/>
  <text x="185.0" y="90" text-anchor="middle" font-size="8" fill="#333">9</text>
</svg>