<svg viewBox="0 0 260 150" xmlns="http://www.w3.org/2000/svg">
  <path d="M100,75 L100.0,20.0 A55,55 0 1,1 76.6,124.8 Z" fill="#42A5F5" stroke="white" stroke-width="1"/>
  <path d="M100,75 L76.6,124.8 A55,55 0 0,1 50.2,98.4 Z" fill="#66BB6A" stroke="white" stroke-width="1"/>
  <path d="M100,75 L50.2,98.4 A55,55 0 0,1 48.9,54.8 Z" fill="#FFA726" stroke="white" stroke-width="1"/>
  <path d="M100,75 L48.9,54.8 A55,55 0 0,1 100.0,20.0 Z" fill="#AB47BC" stroke="white" stroke-width="1"/>
  <rect x="175" y="20" width="12" height="12" fill="#42A5F5"/>
  <text x="192" y="30" font-size="9" font-family="Arial">Football</text>
  <rect x="175" y="45" width="12" height="12" fill="#66BB6A"/>
  <text x="192" y="55" font-size="9" font-family="Arial">Tennis</text>
  <rect x="175" y="70" width="12" height="12" fill="#FFA726"/>
  <text x="192" y="80" font-size="9" font-family="Arial">Badminton</text>
  <rect x="175" y="95" width="12" height="12" fill="#AB47BC"/>
  <text x="192" y="105" font-size="9" font-family="Arial">Swimming</text>
</svg>