<svg viewBox="0 0 200 200" xmlns="http://www.w3.org/2000/svg">
  <circle cx="100" cy="100" r="70" fill="#FFFFFF" stroke="#2C3E50" stroke-width="3"/>
  <line x1="100.0" y1="38.0" x2="100.0" y2="32.0" stroke="#2C3E50" stroke-width="2"/>
  <text x="100.0" y="52.0" text-anchor="middle" font-family="system-ui" font-size="11" fill="#333" font-weight="bold">12</text>
  <line x1="131.0" y1="46.3" x2="134.0" y2="41.1" stroke="#2C3E50" stroke-width="2"/>
  <text x="126.0" y="59.0" text-anchor="middle" font-family="system-ui" font-size="11" fill="#333" font-weight="bold">1</text>
  <line x1="153.7" y1="69.0" x2="158.9" y2="66.0" stroke="#2C3E50" stroke-width="2"/>
  <text x="145.0" y="78.0" text-anchor="middle" font-family="system-ui" font-size="11" fill="#333" font-weight="bold">2</text>
  <line x1="162.0" y1="100.0" x2="168.0" y2="100.0" stroke="#2C3E50" stroke-width="2"/>
  <text x="152.0" y="104.0" text-anchor="middle" font-family="system-ui" font-size="11" fill="#333" font-weight="bold">3</text>
  <line x1="153.7" y1="131.0" x2="158.9" y2="134.0" stroke="#2C3E50" stroke-width="2"/>
  <text x="145.0" y="130.0" text-anchor="middle" font-family="system-ui" font-size="11" fill="#333" font-weight="bold">4</text>
  <line x1="131.0" y1="153.7" x2="134.0" y2="158.9" stroke="#2C3E50" stroke-width="2"/>
  <text x="126.0" y="149.0" text-anchor="middle" font-family="system-ui" font-size="11" fill="#333" font-weight="bold">5</text>
  <line x1="100.0" y1="162.0" x2="100.0" y2="168.0" stroke="#2C3E50" stroke-width="2"/>
  <text x="100.0" y="156.0" text-anchor="middle" font-family="system-ui" font-size="11" fill="#333" font-weight="bold">6</text>
  <line x1="69.0" y1="153.7" x2="66.0" y2="158.9" stroke="#2C3E50" stroke-width="2"/>
  <text x="74.0" y="149.0" text-anchor="middle" font-family="system-ui" font-size="11" fill="#333" font-weight="bold">7</text>
  <line x1="46.3" y1="131.0" x2="41.1" y2="134.0" stroke="#2C3E50" stroke-width="2"/>
  <text x="55.0" y="130.0" text-anchor="middle" font-family="system-ui" font-size="11" fill="#333" font-weight="bold">8</text>
  <line x1="38.0" y1="100.0" x2="32.0" y2="100.0" stroke="#2C3E50" stroke-width="2"/>
  <text x="48.0" y="104.0" text-anchor="middle" font-family="system-ui" font-size="11" fill="#333" font-weight="bold">9</text>
  <line x1="46.3" y1="69.0" x2="41.1" y2="66.0" stroke="#2C3E50" stroke-width="2"/>
  <text x="55.0" y="78.0" text-anchor="middle" font-family="system-ui" font-size="11" fill="#333" font-weight="bold">10</text>
  <line x1="69.0" y1="46.3" x2="66.0" y2="41.1" stroke="#2C3E50" stroke-width="2"/>
  <text x="74.0" y="59.0" text-anchor="middle" font-family="system-ui" font-size="11" fill="#333" font-weight="bold">11</text>
  <line x1="100" y1="100" x2="132.3" y2="113.4" stroke="#2C3E50" stroke-width="4" stroke-linecap="round"/>
  <line x1="100" y1="100" x2="51.0" y2="100.0" stroke="#E74C3C" stroke-width="2.5" stroke-linecap="round"/>
  <circle cx="100" cy="100" r="4" fill="#2C3E50"/>
</svg>