<svg viewBox="0 0 410 240" xmlns="http://www.w3.org/2000/svg" font-family="system-ui">
<rect x="20" y="182" width="35" height="18" fill="#FF6B6B" stroke="white" stroke-width="1"/><text x="37" y="196" text-anchor="middle" font-size="10" fill="white" font-weight="bold">1</text><rect x="55" y="164" width="35" height="36" fill="#4ECDC4" stroke="white" stroke-width="1"/><text x="72" y="178" text-anchor="middle" font-size="10" fill="white" font-weight="bold">2</text><rect x="90" y="146" width="35" height="54" fill="#45B7D1" stroke="white" stroke-width="1"/><text x="107" y="160" text-anchor="middle" font-size="10" fill="white" font-weight="bold">3</text><rect x="125" y="128" width="35" height="72" fill="#FFA07A" stroke="white" stroke-width="1"/><text x="142" y="142" text-anchor="middle" font-size="10" fill="white" font-weight="bold">4</text><rect x="160" y="110" width="35" height="90" fill="#98D8C8" stroke="white" stroke-width="1"/><text x="177" y="124" text-anchor="middle" font-size="10" fill="white" font-weight="bold">5</text><rect x="195" y="92" width="35" height="108" fill="#F7DC6F" stroke="white" stroke-width="1"/><text x="212" y="106" text-anchor="middle" font-size="10" fill="white" font-weight="bold">6</text><rect x="230" y="74" width="35" height="126" fill="#BB8FCE" stroke="white" stroke-width="1"/><text x="247" y="88" text-anchor="middle" font-size="10" fill="white" font-weight="bold">7</text><rect x="265" y="56" width="35" height="144" fill="#85C1E9" stroke="white" stroke-width="1"/><text x="282" y="70" text-anchor="middle" font-size="10" fill="white" font-weight="bold">8</text><rect x="300" y="38" width="35" height="162" fill="#F0B27A" stroke="white" stroke-width="1"/><text x="317" y="52" text-anchor="middle" font-size="10" fill="white" font-weight="bold">9</text><rect x="335" y="20" width="35" height="180" fill="#82E0AA" stroke="white" stroke-width="1"/><text x="352" y="34" text-anchor="middle" font-size="10" fill="white" font-weight="bold">10</text><text x="205" y="232" text-anchor="middle" font-size="10" fill="#666">Staircase with 10 steps</text>
</svg>