<svg viewBox="0 0 360 180" xmlns="http://www.w3.org/2000/svg" font-family="system-ui">
<path d="M80 80 L60 140 L200 140 L180 80 Z" fill="#DEB887" stroke="#8B6914" stroke-width="2"/><line x1="80" y1="90" x2="180" y2="90" stroke="#8B6914" stroke-width="1"/><line x1="75" y1="100" x2="185" y2="100" stroke="#8B6914" stroke-width="1"/><line x1="70" y1="110" x2="190" y2="110" stroke="#8B6914" stroke-width="1"/><path d="M100 80 Q130 50 160 80" fill="none" stroke="#8B6914" stroke-width="2.5"/><circle cx="95" cy="78" r="8" fill="#FF6B6B"/><circle cx="113" cy="78" r="8" fill="#FF6B6B"/><circle cx="131" cy="78" r="8" fill="#FF6B6B"/><circle cx="149" cy="78" r="8" fill="#FF6B6B"/><circle cx="167" cy="78" r="8" fill="#FF6B6B"/><circle cx="100" cy="65" r="7" fill="#FFA07A"/><circle cx="118" cy="65" r="7" fill="#FFA07A"/><circle cx="136" cy="65" r="7" fill="#FFA07A"/><circle cx="154" cy="65" r="7" fill="#FFA07A"/><circle cx="280" cy="80" r="20" fill="#DEB887"/><circle cx="280" cy="80" r="15" fill="#F5CBA7"/><circle cx="260" cy="75" r="8" fill="#DEB887"/><circle cx="300" cy="75" r="8" fill="#DEB887"/><circle cx="274" cy="76" r="2.5" fill="#333"/><circle cx="286" cy="76" r="2.5" fill="#333"/><ellipse cx="280" cy="84" rx="4" ry="2.5" fill="#C0392B"/><ellipse cx="280" cy="110" rx="15" ry="20" fill="#DEB887"/><path d="M265 130 Q250 150 260 155" fill="none" stroke="#DEB887" stroke-width="4" stroke-linecap="round"/><text x="180" y="170" text-anchor="middle" font-size="10" fill="#666">Basket of fruits and a monkey</text>
</svg>