<svg viewBox="0 0 380 120" xmlns="http://www.w3.org/2000/svg" font-family="system-ui">
<rect x="5" y="5" width="370" height="55" rx="8" fill="#E8F8F5" stroke="#45B7D1" stroke-width="1.5"/><rect x="20" y="12" width="28" height="20" rx="3" fill="#FF6B6B"/><text x="34" y="26" text-anchor="middle" font-size="11" fill="white" font-weight="bold">A</text><text x="34" y="48" text-anchor="middle" font-size="11" fill="#333" font-weight="bold">1</text><rect x="56" y="12" width="28" height="20" rx="3" fill="#4ECDC4"/><text x="70" y="26" text-anchor="middle" font-size="11" fill="white" font-weight="bold">B</text><text x="70" y="48" text-anchor="middle" font-size="11" fill="#333" font-weight="bold">2</text><rect x="92" y="12" width="28" height="20" rx="3" fill="#45B7D1"/><text x="106" y="26" text-anchor="middle" font-size="11" fill="white" font-weight="bold">C</text><text x="106" y="48" text-anchor="middle" font-size="11" fill="#333" font-weight="bold">3</text><rect x="128" y="12" width="28" height="20" rx="3" fill="#FFA07A"/><text x="142" y="26" text-anchor="middle" font-size="11" fill="white" font-weight="bold">D</text><text x="142" y="48" text-anchor="middle" font-size="11" fill="#333" font-weight="bold">4</text><rect x="164" y="12" width="28" height="20" rx="3" fill="#98D8C8"/><text x="178" y="26" text-anchor="middle" font-size="11" fill="white" font-weight="bold">E</text><text x="178" y="48" text-anchor="middle" font-size="11" fill="#333" font-weight="bold">5</text><rect x="200" y="12" width="28" height="20" rx="3" fill="#F7DC6F"/><text x="214" y="26" text-anchor="middle" font-size="11" fill="white" font-weight="bold">F</text><text x="214" y="48" text-anchor="middle" font-size="11" fill="#333" font-weight="bold">6</text><rect x="236" y="12" width="28" height="20" rx="3" fill="#BB8FCE"/><text x="250" y="26" text-anchor="middle" font-size="11" fill="white" font-weight="bold">G</text><text x="250" y="48" text-anchor="middle" font-size="11" fill="#333" font-weight="bold">7</text><rect x="272" y="12" width="28" height="20" rx="3" fill="#85C1E9"/><text x="286" y="26" text-anchor="middle" font-size="11" fill="white" font-weight="bold">H</text><text x="286" y="48" text-anchor="middle" font-size="11" fill="#333" font-weight="bold">8</text><rect x="308" y="12" width="28" height="20" rx="3" fill="#F0B27A"/><text x="322" y="26" text-anchor="middle" font-size="11" fill="white" font-weight="bold">I</text><text x="322" y="48" text-anchor="middle" font-size="11" fill="#333" font-weight="bold">9</text><rect x="344" y="12" width="28" height="20" rx="3" fill="#82E0AA"/><text x="358" y="26" text-anchor="middle" font-size="11" fill="white" font-weight="bold">J</text><text x="358" y="48" text-anchor="middle" font-size="11" fill="#333" font-weight="bold">10</text><text x="190" y="90" text-anchor="middle" font-size="16" fill="#1565c0" font-weight="bold">A + C + E = ?</text>
</svg>