<svg viewBox="0 0 380 150" xmlns="http://www.w3.org/2000/svg" font-family="system-ui">
<rect x="40" y="40" width="280" height="70" rx="15" fill="#F7DC6F" stroke="#F39C12" stroke-width="2"/><rect x="50" y="50" width="40" height="30" rx="3" fill="#AED6F1" stroke="#5DADE2" stroke-width="1.5"/><rect x="100" y="50" width="40" height="30" rx="3" fill="#AED6F1" stroke="#5DADE2" stroke-width="1.5"/><rect x="150" y="50" width="40" height="30" rx="3" fill="#AED6F1" stroke="#5DADE2" stroke-width="1.5"/><rect x="200" y="50" width="40" height="30" rx="3" fill="#AED6F1" stroke="#5DADE2" stroke-width="1.5"/><rect x="260" y="50" width="50" height="50" rx="3" fill="#85C1E9" stroke="#2E86C1" stroke-width="1.5"/><circle cx="90" cy="115" r="14" fill="#555" stroke="#333" stroke-width="2"/><circle cx="90" cy="115" r="6" fill="#999"/><circle cx="270" cy="115" r="14" fill="#555" stroke="#333" stroke-width="2"/><circle cx="270" cy="115" r="6" fill="#999"/><circle cx="70" cy="58" r="5" fill="#FF6B6B"/><line x1="70" y1="63" x2="70" y2="73" stroke="#FF6B6B" stroke-width="1.5"/><circle cx="120" cy="58" r="5" fill="#4ECDC4"/><line x1="120" y1="63" x2="120" y2="73" stroke="#4ECDC4" stroke-width="1.5"/><circle cx="170" cy="58" r="5" fill="#45B7D1"/><line x1="170" y1="63" x2="170" y2="73" stroke="#45B7D1" stroke-width="1.5"/><circle cx="220" cy="58" r="5" fill="#FFA07A"/><line x1="220" y1="63" x2="220" y2="73" stroke="#FFA07A" stroke-width="1.5"/><text x="190" y="140" text-anchor="middle" font-size="11" fill="#666">Bus with children</text>
</svg>