<svg viewBox="0 0 480 160" xmlns="http://www.w3.org/2000/svg" font-family="system-ui">
<rect x="0" y="120" width="480" height="40" rx="0" fill="#82E0AA" opacity="0.3"/><line x1="25" y1="80" x2="25" y2="120" stroke="#27AE60" stroke-width="2"/><circle cx="33" cy="70" r="5" fill="#FF6B6B" opacity="0.8"/><circle cx="27" cy="78" r="5" fill="#FF6B6B" opacity="0.8"/><circle cx="19" cy="75" r="5" fill="#FF6B6B" opacity="0.8"/><circle cx="19" cy="65" r="5" fill="#FF6B6B" opacity="0.8"/><circle cx="27" cy="62" r="5" fill="#FF6B6B" opacity="0.8"/><circle cx="25" cy="70" r="4" fill="#F7DC6F"/><line x1="53" y1="80" x2="53" y2="120" stroke="#27AE60" stroke-width="2"/><circle cx="61" cy="70" r="5" fill="#FF6B6B" opacity="0.8"/><circle cx="55" cy="78" r="5" fill="#FF6B6B" opacity="0.8"/><circle cx="47" cy="75" r="5" fill="#FF6B6B" opacity="0.8"/><circle cx="47" cy="65" r="5" fill="#FF6B6B" opacity="0.8"/><circle cx="55" cy="62" r="5" fill="#FF6B6B" opacity="0.8"/><circle cx="53" cy="70" r="4" fill="#F7DC6F"/><line x1="81" y1="80" x2="81" y2="120" stroke="#27AE60" stroke-width="2"/><circle cx="89" cy="70" r="5" fill="#FF6B6B" opacity="0.8"/><circle cx="83" cy="78" r="5" fill="#FF6B6B" opacity="0.8"/><circle cx="75" cy="75" r="5" fill="#FF6B6B" opacity="0.8"/><circle cx="75" cy="65" r="5" fill="#FF6B6B" opacity="0.8"/><circle cx="83" cy="62" r="5" fill="#FF6B6B" opacity="0.8"/><circle cx="81" cy="70" r="4" fill="#F7DC6F"/><line x1="109" y1="80" x2="109" y2="120" stroke="#27AE60" stroke-width="2"/><circle cx="117" cy="70" r="5" fill="#FF6B6B" opacity="0.8"/><circle cx="111" cy="78" r="5" fill="#FF6B6B" opacity="0.8"/><circle cx="103" cy="75" r="5" fill="#FF6B6B" opacity="0.8"/><circle cx="103" cy="65" r="5" fill="#FF6B6B" opacity="0.8"/><circle cx="111" cy="62" r="5" fill="#FF6B6B" opacity="0.8"/><circle cx="109" cy="70" r="4" fill="#F7DC6F"/><line x1="137" y1="80" x2="137" y2="120" stroke="#27AE60" stroke-width="2"/><circle cx="145" cy="70" r="5" fill="#FF6B6B" opacity="0.8"/><circle cx="139" cy="78" r="5" fill="#FF6B6B" opacity="0.8"/><circle cx="131" cy="75" r="5" fill="#FF6B6B" opacity="0.8"/><circle cx="131" cy="65" r="5" fill="#FF6B6B" opacity="0.8"/><circle cx="139" cy="62" r="5" fill="#FF6B6B" opacity="0.8"/><circle cx="137" cy="70" r="4" fill="#F7DC6F"/><line x1="165" y1="80" x2="165" y2="120" stroke="#27AE60" stroke-width="2"/><circle cx="173" cy="70" r="5" fill="#FF6B6B" opacity="0.8"/><circle cx="167" cy="78" r="5" fill="#FF6B6B" opacity="0.8"/><circle cx="159" cy="75" r="5" fill="#FF6B6B" opacity="0.8"/><circle cx="159" cy="65" r="5" fill="#FF6B6B" opacity="0.8"/><circle cx="167" cy="62" r="5" fill="#FF6B6B" opacity="0.8"/><circle cx="165" cy="70" r="4" fill="#F7DC6F"/><text x="109" y="145" text-anchor="middle" font-size="9" fill="#666">6 roses</text><line x1="201" y1="80" x2="201" y2="120" stroke="#27AE60" stroke-width="2"/><circle cx="209" cy="70" r="5" fill="#4ECDC4" opacity="0.8"/><circle cx="203" cy="78" r="5" fill="#4ECDC4" opacity="0.8"/><circle cx="195" cy="75" r="5" fill="#4ECDC4" opacity="0.8"/><circle cx="195" cy="65" r="5" fill="#4ECDC4" opacity="0.8"/><circle cx="203" cy="62" r="5" fill="#4ECDC4" opacity="0.8"/><circle cx="201" cy="70" r="4" fill="#F7DC6F"/><line x1="229" y1="80" x2="229" y2="120" stroke="#27AE60" stroke-width="2"/><circle cx="237" cy="70" r="5" fill="#4ECDC4" opacity="0.8"/><circle cx="231" cy="78" r="5" fill="#4ECDC4" opacity="0.8"/><circle cx="223" cy="75" r="5" fill="#4ECDC4" opacity="0.8"/><circle cx="223" cy="65" r="5" fill="#4ECDC4" opacity="0.8"/><circle cx="231" cy="62" r="5" fill="#4ECDC4" opacity="0.8"/><circle cx="229" cy="70" r="4" fill="#F7DC6F"/><line x1="257" y1="80" x2="257" y2="120" stroke="#27AE60" stroke-width="2"/><circle cx="265" cy="70" r="5" fill="#4ECDC4" opacity="0.8"/><circle cx="259" cy="78" r="5" fill="#4ECDC4" opacity="0.8"/><circle cx="251" cy="75" r="5" fill="#4ECDC4" opacity="0.8"/><circle cx="251" cy="65" r="5" fill="#4ECDC4" opacity="0.8"/><circle cx="259" cy="62" r="5" fill="#4ECDC4" opacity="0.8"/><circle cx="257" cy="70" r="4" fill="#F7DC6F"/><line x1="285" y1="80" x2="285" y2="120" stroke="#27AE60" stroke-width="2"/><circle cx="293" cy="70" r="5" fill="#4ECDC4" opacity="0.8"/><circle cx="287" cy="78" r="5" fill="#4ECDC4" opacity="0.8"/><circle cx="279" cy="75" r="5" fill="#4ECDC4" opacity="0.8"/><circle cx="279" cy="65" r="5" fill="#4ECDC4" opacity="0.8"/><circle cx="287" cy="62" r="5" fill="#4ECDC4" opacity="0.8"/><circle cx="285" cy="70" r="4" fill="#F7DC6F"/><text x="257" y="145" text-anchor="middle" font-size="9" fill="#666">4 tulips</text><line x1="321" y1="80" x2="321" y2="120" stroke="#27AE60" stroke-width="2"/><circle cx="329" cy="70" r="5" fill="#45B7D1" opacity="0.8"/><circle cx="323" cy="78" r="5" fill="#45B7D1" opacity="0.8"/><circle cx="315" cy="75" r="5" fill="#45B7D1" opacity="0.8"/><circle cx="315" cy="65" r="5" fill="#45B7D1" opacity="0.8"/><circle cx="323" cy="62" r="5" fill="#45B7D1" opacity="0.8"/><circle cx="321" cy="70" r="4" fill="#F7DC6F"/><line x1="349" y1="80" x2="349" y2="120" stroke="#27AE60" stroke-width="2"/><circle cx="357" cy="70" r="5" fill="#45B7D1" opacity="0.8"/><circle cx="351" cy="78" r="5" fill="#45B7D1" opacity="0.8"/><circle cx="343" cy="75" r="5" fill="#45B7D1" opacity="0.8"/><circle cx="343" cy="65" r="5" fill="#45B7D1" opacity="0.8"/><circle cx="351" cy="62" r="5" fill="#45B7D1" opacity="0.8"/><circle cx="349" cy="70" r="4" fill="#F7DC6F"/><line x1="377" y1="80" x2="377" y2="120" stroke="#27AE60" stroke-width="2"/><circle cx="385" cy="70" r="5" fill="#45B7D1" opacity="0.8"/><circle cx="379" cy="78" r="5" fill="#45B7D1" opacity="0.8"/><circle cx="371" cy="75" r="5" fill="#45B7D1" opacity="0.8"/><circle cx="371" cy="65" r="5" fill="#45B7D1" opacity="0.8"/><circle cx="379" cy="62" r="5" fill="#45B7D1" opacity="0.8"/><circle cx="377" cy="70" r="4" fill="#F7DC6F"/><text x="363" y="145" text-anchor="middle" font-size="9" fill="#666">3 lilies</text><line x1="413" y1="80" x2="413" y2="120" stroke="#27AE60" stroke-width="2"/><circle cx="421" cy="70" r="5" fill="#FFA07A" opacity="0.8"/><circle cx="415" cy="78" r="5" fill="#FFA07A" opacity="0.8"/><circle cx="407" cy="75" r="5" fill="#FFA07A" opacity="0.8"/><circle cx="407" cy="65" r="5" fill="#FFA07A" opacity="0.8"/><circle cx="415" cy="62" r="5" fill="#FFA07A" opacity="0.8"/><circle cx="413" cy="70" r="4" fill="#F7DC6F"/><line x1="441" y1="80" x2="441" y2="120" stroke="#27AE60" stroke-width="2"/><circle cx="449" cy="70" r="5" fill="#FFA07A" opacity="0.8"/><circle cx="443" cy="78" r="5" fill="#FFA07A" opacity="0.8"/><circle cx="435" cy="75" r="5" fill="#FFA07A" opacity="0.8"/><circle cx="435" cy="65" r="5" fill="#FFA07A" opacity="0.8"/><circle cx="443" cy="62" r="5" fill="#FFA07A" opacity="0.8"/><circle cx="441" cy="70" r="4" fill="#F7DC6F"/><text x="441" y="145" text-anchor="middle" font-size="9" fill="#666">2 daisies</text>
</svg>