<svg viewBox="0 0 300 150" xmlns="http://www.w3.org/2000/svg" font-family="system-ui">
<ellipse cx="70" cy="60" rx="20" ry="15" fill="#333"/><circle cx="70" cy="48" r="10" fill="#444"/><circle cx="66" cy="46" r="2.5" fill="#FF6B6B"/><circle cx="74" cy="46" r="2.5" fill="#FF6B6B"/><line x1="55" y1="56" x2="37" y2="63" stroke="#333" stroke-width="2" stroke-linecap="round"/><line x1="55" y1="59" x2="40" y2="68" stroke="#333" stroke-width="2" stroke-linecap="round"/><line x1="55" y1="62" x2="45" y2="71" stroke="#333" stroke-width="2" stroke-linecap="round"/><line x1="55" y1="65" x2="50" y2="74" stroke="#333" stroke-width="2" stroke-linecap="round"/><line x1="85" y1="56" x2="103" y2="63" stroke="#333" stroke-width="2" stroke-linecap="round"/><line x1="85" y1="59" x2="100" y2="68" stroke="#333" stroke-width="2" stroke-linecap="round"/><line x1="85" y1="62" x2="95" y2="71" stroke="#333" stroke-width="2" stroke-linecap="round"/><line x1="85" y1="65" x2="90" y2="74" stroke="#333" stroke-width="2" stroke-linecap="round"/><ellipse cx="190" cy="60" rx="20" ry="15" fill="#333"/><circle cx="190" cy="48" r="10" fill="#444"/><circle cx="186" cy="46" r="2.5" fill="#FF6B6B"/><circle cx="194" cy="46" r="2.5" fill="#FF6B6B"/><line x1="175" y1="56" x2="157" y2="63" stroke="#333" stroke-width="2" stroke-linecap="round"/><line x1="175" y1="59" x2="160" y2="68" stroke="#333" stroke-width="2" stroke-linecap="round"/><line x1="175" y1="62" x2="165" y2="71" stroke="#333" stroke-width="2" stroke-linecap="round"/><line x1="175" y1="65" x2="170" y2="74" stroke="#333" stroke-width="2" stroke-linecap="round"/><line x1="205" y1="56" x2="223" y2="63" stroke="#333" stroke-width="2" stroke-linecap="round"/><line x1="205" y1="59" x2="220" y2="68" stroke="#333" stroke-width="2" stroke-linecap="round"/><line x1="205" y1="62" x2="215" y2="71" stroke="#333" stroke-width="2" stroke-linecap="round"/><line x1="205" y1="65" x2="210" y2="74" stroke="#333" stroke-width="2" stroke-linecap="round"/><text x="150" y="140" text-anchor="middle" font-size="10" fill="#666">2 spiders — 8 legs each</text>
</svg>