<svg viewBox="0 0 400 160" xmlns="http://www.w3.org/2000/svg" font-family="system-ui">
<rect x="0" y="120" width="400" height="40" fill="#A9DFBF" opacity="0.3"/><rect x="20" y="95" width="4" height="30" fill="#8B6914"/><rect x="50" y="95" width="4" height="30" fill="#8B6914"/><rect x="80" y="95" width="4" height="30" fill="#8B6914"/><rect x="110" y="95" width="4" height="30" fill="#8B6914"/><rect x="140" y="95" width="4" height="30" fill="#8B6914"/><rect x="170" y="95" width="4" height="30" fill="#8B6914"/><rect x="200" y="95" width="4" height="30" fill="#8B6914"/><rect x="230" y="95" width="4" height="30" fill="#8B6914"/><rect x="260" y="95" width="4" height="30" fill="#8B6914"/><rect x="290" y="95" width="4" height="30" fill="#8B6914"/><rect x="320" y="95" width="4" height="30" fill="#8B6914"/><rect x="350" y="95" width="4" height="30" fill="#8B6914"/><rect x="20" y="100" width="360" height="3" fill="#8B6914"/><rect x="20" y="115" width="360" height="3" fill="#8B6914"/><ellipse cx="60" cy="80" rx="12" ry="10" fill="#F5B041"/><circle cx="68" cy="72" r="6" fill="#F5B041"/><polygon points="74,70 80,68 74,73" fill="#E74C3C"/><circle cx="70" cy="70" r="1.5" fill="#333"/><line x1="57" y1="90" x2="55" y2="98" stroke="#E67E22" stroke-width="1.5"/><line x1="63" y1="90" x2="65" y2="98" stroke="#E67E22" stroke-width="1.5"/><ellipse cx="100" cy="80" rx="12" ry="10" fill="#F5B041"/><circle cx="108" cy="72" r="6" fill="#F5B041"/><polygon points="114,70 120,68 114,73" fill="#E74C3C"/><circle cx="110" cy="70" r="1.5" fill="#333"/><line x1="97" y1="90" x2="95" y2="98" stroke="#E67E22" stroke-width="1.5"/><line x1="103" y1="90" x2="105" y2="98" stroke="#E67E22" stroke-width="1.5"/><ellipse cx="140" cy="80" rx="12" ry="10" fill="#F5B041"/><circle cx="148" cy="72" r="6" fill="#F5B041"/><polygon points="154,70 160,68 154,73" fill="#E74C3C"/><circle cx="150" cy="70" r="1.5" fill="#333"/><line x1="137" y1="90" x2="135" y2="98" stroke="#E67E22" stroke-width="1.5"/><line x1="143" y1="90" x2="145" y2="98" stroke="#E67E22" stroke-width="1.5"/><ellipse cx="180" cy="80" rx="12" ry="10" fill="#F5B041"/><circle cx="188" cy="72" r="6" fill="#F5B041"/><polygon points="194,70 200,68 194,73" fill="#E74C3C"/><circle cx="190" cy="70" r="1.5" fill="#333"/><line x1="177" y1="90" x2="175" y2="98" stroke="#E67E22" stroke-width="1.5"/><line x1="183" y1="90" x2="185" y2="98" stroke="#E67E22" stroke-width="1.5"/><ellipse cx="250" cy="78" rx="18" ry="14" fill="white" stroke="#333" stroke-width="1"/><circle cx="264" cy="68" r="8" fill="white" stroke="#333" stroke-width="1"/><circle cx="266" cy="66" r="1.5" fill="#333"/><circle cx="245" cy="75" r="4" fill="#333" opacity="0.5"/><circle cx="255" cy="80" r="3" fill="#333" opacity="0.5"/><line x1="242" y1="90" x2="242" y2="100" stroke="#333" stroke-width="2"/><line x1="247" y1="90" x2="247" y2="100" stroke="#333" stroke-width="2"/><line x1="253" y1="90" x2="253" y2="100" stroke="#333" stroke-width="2"/><line x1="258" y1="90" x2="258" y2="100" stroke="#333" stroke-width="2"/><ellipse cx="300" cy="78" rx="18" ry="14" fill="white" stroke="#333" stroke-width="1"/><circle cx="314" cy="68" r="8" fill="white" stroke="#333" stroke-width="1"/><circle cx="316" cy="66" r="1.5" fill="#333"/><circle cx="295" cy="75" r="4" fill="#333" opacity="0.5"/><circle cx="305" cy="80" r="3" fill="#333" opacity="0.5"/><line x1="292" y1="90" x2="292" y2="100" stroke="#333" stroke-width="2"/><line x1="297" y1="90" x2="297" y2="100" stroke="#333" stroke-width="2"/><line x1="303" y1="90" x2="303" y2="100" stroke="#333" stroke-width="2"/><line x1="308" y1="90" x2="308" y2="100" stroke="#333" stroke-width="2"/><ellipse cx="350" cy="78" rx="18" ry="14" fill="white" stroke="#333" stroke-width="1"/><circle cx="364" cy="68" r="8" fill="white" stroke="#333" stroke-width="1"/><circle cx="366" cy="66" r="1.5" fill="#333"/><circle cx="345" cy="75" r="4" fill="#333" opacity="0.5"/><circle cx="355" cy="80" r="3" fill="#333" opacity="0.5"/><line x1="342" y1="90" x2="342" y2="100" stroke="#333" stroke-width="2"/><line x1="347" y1="90" x2="347" y2="100" stroke="#333" stroke-width="2"/><line x1="353" y1="90" x2="353" y2="100" stroke="#333" stroke-width="2"/><line x1="358" y1="90" x2="358" y2="100" stroke="#333" stroke-width="2"/><text x="100" y="150" text-anchor="middle" font-size="10" fill="#666">Chickens</text><text x="290" y="150" text-anchor="middle" font-size="10" fill="#666">Cows</text>
</svg>