<svg viewBox="0 0 360 150" xmlns="http://www.w3.org/2000/svg" font-family="system-ui">
<circle cx="50" cy="30" r="12" fill="#FF6B6B" stroke="white" stroke-width="1.5"/><line x1="50" y1="42" x2="50" y2="70" stroke="#FF6B6B" stroke-width="2"/><line x1="40" y1="55" x2="60" y2="55" stroke="#FF6B6B" stroke-width="2"/><line x1="50" y1="70" x2="42" y2="90" stroke="#FF6B6B" stroke-width="2"/><line x1="50" y1="70" x2="58" y2="90" stroke="#FF6B6B" stroke-width="2"/><circle cx="36" cy="110" r="6" fill="#FFA07A" stroke="white" stroke-width="1"/><circle cx="50" cy="110" r="6" fill="#98D8C8" stroke="white" stroke-width="1"/><circle cx="64" cy="110" r="6" fill="#F7DC6F" stroke="white" stroke-width="1"/><circle cx="130" cy="30" r="12" fill="#4ECDC4" stroke="white" stroke-width="1.5"/><line x1="130" y1="42" x2="130" y2="70" stroke="#4ECDC4" stroke-width="2"/><line x1="120" y1="55" x2="140" y2="55" stroke="#4ECDC4" stroke-width="2"/><line x1="130" y1="70" x2="122" y2="90" stroke="#4ECDC4" stroke-width="2"/><line x1="130" y1="70" x2="138" y2="90" stroke="#4ECDC4" stroke-width="2"/><circle cx="116" cy="110" r="6" fill="#98D8C8" stroke="white" stroke-width="1"/><circle cx="130" cy="110" r="6" fill="#F7DC6F" stroke="white" stroke-width="1"/><circle cx="144" cy="110" r="6" fill="#BB8FCE" stroke="white" stroke-width="1"/><circle cx="210" cy="30" r="12" fill="#45B7D1" stroke="white" stroke-width="1.5"/><line x1="210" y1="42" x2="210" y2="70" stroke="#45B7D1" stroke-width="2"/><line x1="200" y1="55" x2="220" y2="55" stroke="#45B7D1" stroke-width="2"/><line x1="210" y1="70" x2="202" y2="90" stroke="#45B7D1" stroke-width="2"/><line x1="210" y1="70" x2="218" y2="90" stroke="#45B7D1" stroke-width="2"/><circle cx="196" cy="110" r="6" fill="#F7DC6F" stroke="white" stroke-width="1"/><circle cx="210" cy="110" r="6" fill="#BB8FCE" stroke="white" stroke-width="1"/><circle cx="224" cy="110" r="6" fill="#85C1E9" stroke="white" stroke-width="1"/><circle cx="290" cy="30" r="12" fill="#FFA07A" stroke="white" stroke-width="1.5"/><line x1="290" y1="42" x2="290" y2="70" stroke="#FFA07A" stroke-width="2"/><line x1="280" y1="55" x2="300" y2="55" stroke="#FFA07A" stroke-width="2"/><line x1="290" y1="70" x2="282" y2="90" stroke="#FFA07A" stroke-width="2"/><line x1="290" y1="70" x2="298" y2="90" stroke="#FFA07A" stroke-width="2"/><circle cx="276" cy="110" r="6" fill="#BB8FCE" stroke="white" stroke-width="1"/><circle cx="290" cy="110" r="6" fill="#85C1E9" stroke="white" stroke-width="1"/><circle cx="304" cy="110" r="6" fill="#F0B27A" stroke="white" stroke-width="1"/><text x="180" y="142" text-anchor="middle" font-size="10" fill="#666">4 children, 3 sweets each</text>
</svg>