<svg viewBox="0 0 400 140" xmlns="http://www.w3.org/2000/svg" font-family="system-ui">
<rect x="0" y="100" width="400" height="4" fill="#888"/><rect x="30" y="60" width="100" height="40" rx="8" fill="#FF6B6B" stroke="#C0392B" stroke-width="2"/><rect x="40" y="68" width="20" height="18" rx="2" fill="#AED6F1"/><rect x="70" y="68" width="20" height="18" rx="2" fill="#AED6F1"/><circle cx="55" cy="104" r="8" fill="#555"/><circle cx="55" cy="104" r="3" fill="#999"/><circle cx="105" cy="104" r="8" fill="#555"/><circle cx="105" cy="104" r="3" fill="#999"/><rect x="162" y="75" width="16" height="25" rx="2" fill="#45B7D1" stroke="#666" stroke-width="1"/><text x="170" y="70" text-anchor="middle" font-size="9" fill="#333">Stop 1</text><circle cx="166" cy="85" r="3" fill="#FF6B6B"/><circle cx="171" cy="85" r="3" fill="#4ECDC4"/><circle cx="176" cy="85" r="3" fill="#45B7D1"/><rect x="217" y="75" width="16" height="25" rx="2" fill="#FFA07A" stroke="#666" stroke-width="1"/><text x="225" y="70" text-anchor="middle" font-size="9" fill="#333">Stop 2</text><circle cx="221" cy="85" r="3" fill="#4ECDC4"/><circle cx="226" cy="85" r="3" fill="#45B7D1"/><circle cx="231" cy="85" r="3" fill="#FFA07A"/><rect x="272" y="75" width="16" height="25" rx="2" fill="#98D8C8" stroke="#666" stroke-width="1"/><text x="280" y="70" text-anchor="middle" font-size="9" fill="#333">Stop 3</text><circle cx="276" cy="85" r="3" fill="#45B7D1"/><circle cx="281" cy="85" r="3" fill="#FFA07A"/><circle cx="286" cy="85" r="3" fill="#98D8C8"/><rect x="327" y="75" width="16" height="25" rx="2" fill="#F7DC6F" stroke="#666" stroke-width="1"/><text x="335" y="70" text-anchor="middle" font-size="9" fill="#333">Stop 4</text><circle cx="331" cy="85" r="3" fill="#FFA07A"/><circle cx="336" cy="85" r="3" fill="#98D8C8"/><circle cx="341" cy="85" r="3" fill="#F7DC6F"/><text x="200" y="130" text-anchor="middle" font-size="10" fill="#666">Train picks up 3 passengers at each of 4 stops</text>
</svg>