<svg viewBox="0 0 400 140" xmlns="http://www.w3.org/2000/svg" font-family="system-ui">
<rect x="0" y="110" width="400" height="30" fill="#A9DFBF" opacity="0.3" rx="0"/><line x1="35" y1="75" x2="35" y2="110" stroke="#27AE60" stroke-width="2"/><ellipse cx="35" cy="53" rx="7" ry="4" fill="#FF6B6B" transform="rotate(-90 35 53)"/><ellipse cx="45" cy="71" rx="7" ry="4" fill="#FF6B6B" transform="rotate(30 45 71)"/><ellipse cx="25" cy="71" rx="7" ry="4" fill="#FF6B6B" transform="rotate(150 25 71)"/><circle cx="35" cy="65" r="5" fill="#F7DC6F"/><line x1="90" y1="75" x2="90" y2="110" stroke="#27AE60" stroke-width="2"/><ellipse cx="90" cy="53" rx="7" ry="4" fill="#4ECDC4" transform="rotate(-90 90 53)"/><ellipse cx="100" cy="71" rx="7" ry="4" fill="#4ECDC4" transform="rotate(30 100 71)"/><ellipse cx="80" cy="71" rx="7" ry="4" fill="#4ECDC4" transform="rotate(150 80 71)"/><circle cx="90" cy="65" r="5" fill="#F7DC6F"/><line x1="145" y1="75" x2="145" y2="110" stroke="#27AE60" stroke-width="2"/><ellipse cx="145" cy="53" rx="7" ry="4" fill="#45B7D1" transform="rotate(-90 145 53)"/><ellipse cx="155" cy="71" rx="7" ry="4" fill="#45B7D1" transform="rotate(30 155 71)"/><ellipse cx="135" cy="71" rx="7" ry="4" fill="#45B7D1" transform="rotate(150 135 71)"/><circle cx="145" cy="65" r="5" fill="#F7DC6F"/><line x1="200" y1="75" x2="200" y2="110" stroke="#27AE60" stroke-width="2"/><ellipse cx="200" cy="53" rx="7" ry="4" fill="#FFA07A" transform="rotate(-90 200 53)"/><ellipse cx="210" cy="71" rx="7" ry="4" fill="#FFA07A" transform="rotate(30 210 71)"/><ellipse cx="190" cy="71" rx="7" ry="4" fill="#FFA07A" transform="rotate(150 190 71)"/><circle cx="200" cy="65" r="5" fill="#F7DC6F"/><line x1="255" y1="75" x2="255" y2="110" stroke="#27AE60" stroke-width="2"/><ellipse cx="255" cy="53" rx="7" ry="4" fill="#98D8C8" transform="rotate(-90 255 53)"/><ellipse cx="265" cy="71" rx="7" ry="4" fill="#98D8C8" transform="rotate(30 265 71)"/><ellipse cx="245" cy="71" rx="7" ry="4" fill="#98D8C8" transform="rotate(150 245 71)"/><circle cx="255" cy="65" r="5" fill="#F7DC6F"/><line x1="310" y1="75" x2="310" y2="110" stroke="#27AE60" stroke-width="2"/><ellipse cx="310" cy="53" rx="7" ry="4" fill="#F7DC6F" transform="rotate(-90 310 53)"/><ellipse cx="320" cy="71" rx="7" ry="4" fill="#F7DC6F" transform="rotate(30 320 71)"/><ellipse cx="300" cy="71" rx="7" ry="4" fill="#F7DC6F" transform="rotate(150 300 71)"/><circle cx="310" cy="65" r="5" fill="#F7DC6F"/><text x="200" y="135" text-anchor="middle" font-size="10" fill="#666">6 flowers, 3 petals each</text>
</svg>