<svg viewBox="0 0 400 120" xmlns="http://www.w3.org/2000/svg" font-family="system-ui">
<line x1="40" y1="40" x2="60" y2="65" stroke="#FF6B6B" stroke-width="2.5"/><line x1="60" y1="65" x2="80" y2="55" stroke="#FF6B6B" stroke-width="2.5"/><line x1="40" y1="40" x2="35" y2="32" stroke="#666" stroke-width="2"/><line x1="30" y1="32" x2="40" y2="32" stroke="#666" stroke-width="2"/><circle cx="50" cy="80" r="10" fill="none" stroke="#333" stroke-width="2"/><circle cx="75" cy="75" r="8" fill="none" stroke="#333" stroke-width="2"/><circle cx="90" cy="75" r="8" fill="none" stroke="#333" stroke-width="2"/><line x1="115" y1="40" x2="135" y2="65" stroke="#4ECDC4" stroke-width="2.5"/><line x1="135" y1="65" x2="155" y2="55" stroke="#4ECDC4" stroke-width="2.5"/><line x1="115" y1="40" x2="110" y2="32" stroke="#666" stroke-width="2"/><line x1="105" y1="32" x2="115" y2="32" stroke="#666" stroke-width="2"/><circle cx="125" cy="80" r="10" fill="none" stroke="#333" stroke-width="2"/><circle cx="150" cy="75" r="8" fill="none" stroke="#333" stroke-width="2"/><circle cx="165" cy="75" r="8" fill="none" stroke="#333" stroke-width="2"/><line x1="190" y1="40" x2="210" y2="65" stroke="#45B7D1" stroke-width="2.5"/><line x1="210" y1="65" x2="230" y2="55" stroke="#45B7D1" stroke-width="2.5"/><line x1="190" y1="40" x2="185" y2="32" stroke="#666" stroke-width="2"/><line x1="180" y1="32" x2="190" y2="32" stroke="#666" stroke-width="2"/><circle cx="200" cy="80" r="10" fill="none" stroke="#333" stroke-width="2"/><circle cx="225" cy="75" r="8" fill="none" stroke="#333" stroke-width="2"/><circle cx="240" cy="75" r="8" fill="none" stroke="#333" stroke-width="2"/><text x="200" y="115" text-anchor="middle" font-size="10" fill="#666">3 tricycles — 3 wheels each</text>
</svg>