<svg viewBox="0 0 320 180" xmlns="http://www.w3.org/2000/svg" font-family="system-ui">
<polygon points="100,20 75,60 125,60" fill="#BB8FCE"/><circle cx="100" cy="75" r="18" fill="#FDEBD0"/><circle cx="94" cy="72" r="2.5" fill="#333"/><circle cx="106" cy="72" r="2.5" fill="#333"/><path d="M94 82 Q100 87 106 82" fill="none" stroke="#333" stroke-width="1.5"/><rect x="82" y="93" width="36" height="45" rx="5" fill="#8E44AD"/><line x1="120" y1="100" x2="155" y2="75" stroke="#8B6914" stroke-width="3"/><circle cx="158" cy="72" r="5" fill="#F7DC6F"/><circle cx="200" cy="50" r="12" fill="#F7DC6F" stroke="#F39C12" stroke-width="1.5"/><text x="200" y="54" text-anchor="middle" font-size="10" fill="#8B6914" font-weight="bold">$</text><circle cx="230" cy="50" r="12" fill="#F7DC6F" stroke="#F39C12" stroke-width="1.5"/><text x="230" y="54" text-anchor="middle" font-size="10" fill="#8B6914" font-weight="bold">$</text><circle cx="260" cy="50" r="12" fill="#F7DC6F" stroke="#F39C12" stroke-width="1.5"/><text x="260" y="54" text-anchor="middle" font-size="10" fill="#8B6914" font-weight="bold">$</text><circle cx="200" cy="85" r="12" fill="#F7DC6F" stroke="#F39C12" stroke-width="1.5"/><text x="200" y="89" text-anchor="middle" font-size="10" fill="#8B6914" font-weight="bold">$</text><circle cx="230" cy="85" r="12" fill="#F7DC6F" stroke="#F39C12" stroke-width="1.5"/><text x="230" y="89" text-anchor="middle" font-size="10" fill="#8B6914" font-weight="bold">$</text><circle cx="260" cy="85" r="12" fill="#F7DC6F" stroke="#F39C12" stroke-width="1.5"/><text x="260" y="89" text-anchor="middle" font-size="10" fill="#8B6914" font-weight="bold">$</text><text x="160" y="170" text-anchor="middle" font-size="10" fill="#666">Wizard with coins</text>
</svg>