<svg viewBox="0 0 380 80" xmlns="http://www.w3.org/2000/svg" font-family="system-ui">
<rect x="5" y="5" width="370" height="70" rx="12" fill="#FEF9E7" stroke="#F7DC6F" stroke-width="2"/><polygon points="25,28 29,38 39,38 31,44 34,54 25,48 16,54 19,44 11,38 21,38" fill="#F7DC6F" stroke="#F39C12" stroke-width="1"/><text x="50" y="48" text-anchor="middle" font-size="20" fill="#333" font-weight="bold">+</text><circle cx="75" cy="42" r="10" fill="#45B7D1" stroke="#2E86C1" stroke-width="1.5"/><text x="100" y="48" text-anchor="middle" font-size="20" fill="#333" font-weight="bold">=</text><text x="125" y="48" text-anchor="middle" font-size="20" fill="#1565c0" font-weight="bold">9</text><text x="155" y="48" font-size="12" fill="#666">and</text><polygon points="181,28 185,38 195,38 187,44 190,54 181,48 172,54 175,44 167,38 177,38" fill="#F7DC6F" stroke="#F39C12" stroke-width="1"/><text x="206" y="48" text-anchor="middle" font-size="20" fill="#333" font-weight="bold">−</text><circle cx="231" cy="42" r="10" fill="#45B7D1" stroke="#2E86C1" stroke-width="1.5"/><text x="256" y="48" text-anchor="middle" font-size="20" fill="#333" font-weight="bold">=</text><text x="281" y="48" text-anchor="middle" font-size="20" fill="#1565c0" font-weight="bold">3</text>
</svg>