<svg viewBox="0 0 400 160" xmlns="http://www.w3.org/2000/svg" font-family="system-ui">
<rect x="0" y="100" width="400" height="60" fill="#AED6F1" rx="0" opacity="0.4"/><path d="M0 110 Q10 100 20 110 Q30 120 40 110" fill="none" stroke="#5DADE2" stroke-width="1.5"/><path d="M40 110 Q50 100 60 110 Q70 120 80 110" fill="none" stroke="#5DADE2" stroke-width="1.5"/><path d="M80 110 Q90 100 100 110 Q110 120 120 110" fill="none" stroke="#5DADE2" stroke-width="1.5"/><path d="M120 110 Q130 100 140 110 Q150 120 160 110" fill="none" stroke="#5DADE2" stroke-width="1.5"/><path d="M160 110 Q170 100 180 110 Q190 120 200 110" fill="none" stroke="#5DADE2" stroke-width="1.5"/><path d="M200 110 Q210 100 220 110 Q230 120 240 110" fill="none" stroke="#5DADE2" stroke-width="1.5"/><path d="M240 110 Q250 100 260 110 Q270 120 280 110" fill="none" stroke="#5DADE2" stroke-width="1.5"/><path d="M280 110 Q290 100 300 110 Q310 120 320 110" fill="none" stroke="#5DADE2" stroke-width="1.5"/><path d="M320 110 Q330 100 340 110 Q350 120 360 110" fill="none" stroke="#5DADE2" stroke-width="1.5"/><path d="M360 110 Q370 100 380 110 Q390 120 400 110" fill="none" stroke="#5DADE2" stroke-width="1.5"/><path d="M40 95 L50 115 L100 115 L110 95 Z" fill="#FF6B6B" stroke="#666" stroke-width="1.5"/><circle cx="58" cy="85" r="5" fill="#FFA07A"/><line x1="58" y1="90" x2="58" y2="95" stroke="#FFA07A" stroke-width="1.5"/><circle cx="74" cy="85" r="5" fill="#98D8C8"/><line x1="74" y1="90" x2="74" y2="95" stroke="#98D8C8" stroke-width="1.5"/><circle cx="90" cy="85" r="5" fill="#F7DC6F"/><line x1="90" y1="90" x2="90" y2="95" stroke="#F7DC6F" stroke-width="1.5"/><path d="M160 95 L170 115 L220 115 L230 95 Z" fill="#4ECDC4" stroke="#666" stroke-width="1.5"/><circle cx="178" cy="85" r="5" fill="#98D8C8"/><line x1="178" y1="90" x2="178" y2="95" stroke="#98D8C8" stroke-width="1.5"/><circle cx="194" cy="85" r="5" fill="#F7DC6F"/><line x1="194" y1="90" x2="194" y2="95" stroke="#F7DC6F" stroke-width="1.5"/><circle cx="210" cy="85" r="5" fill="#BB8FCE"/><line x1="210" y1="90" x2="210" y2="95" stroke="#BB8FCE" stroke-width="1.5"/><path d="M280 95 L290 115 L340 115 L350 95 Z" fill="#45B7D1" stroke="#666" stroke-width="1.5"/><circle cx="298" cy="85" r="5" fill="#F7DC6F"/><line x1="298" y1="90" x2="298" y2="95" stroke="#F7DC6F" stroke-width="1.5"/><circle cx="314" cy="85" r="5" fill="#BB8FCE"/><line x1="314" y1="90" x2="314" y2="95" stroke="#BB8FCE" stroke-width="1.5"/><circle cx="330" cy="85" r="5" fill="#85C1E9"/><line x1="330" y1="90" x2="330" y2="95" stroke="#85C1E9" stroke-width="1.5"/><text x="200" y="150" text-anchor="middle" font-size="10" fill="#666">Boats carrying children</text>
</svg>