<svg viewBox="0 0 200 220" xmlns="http://www.w3.org/2000/svg" font-family="system-ui">
<rect x="90" y="20" width="20" height="170" rx="3" fill="#DEB887" stroke="#8B6914" stroke-width="1.5"/><text x="75" y="190" text-anchor="end" font-size="9" fill="#666">0</text><text x="75" y="156" text-anchor="end" font-size="9" fill="#666">2</text><text x="75" y="122" text-anchor="end" font-size="9" fill="#666">4</text><text x="75" y="88" text-anchor="end" font-size="9" fill="#666">6</text><text x="75" y="54" text-anchor="end" font-size="9" fill="#666">8</text><text x="75" y="28" text-anchor="end" font-size="9" fill="#666">10</text><line x1="85" y1="20" x2="90" y2="20" stroke="#666" stroke-width="0.5"/><line x1="85" y1="37" x2="90" y2="37" stroke="#666" stroke-width="0.5"/><line x1="85" y1="54" x2="90" y2="54" stroke="#666" stroke-width="0.5"/><line x1="85" y1="71" x2="90" y2="71" stroke="#666" stroke-width="0.5"/><line x1="85" y1="88" x2="90" y2="88" stroke="#666" stroke-width="0.5"/><line x1="85" y1="105" x2="90" y2="105" stroke="#666" stroke-width="0.5"/><line x1="85" y1="122" x2="90" y2="122" stroke="#666" stroke-width="0.5"/><line x1="85" y1="139" x2="90" y2="139" stroke="#666" stroke-width="0.5"/><line x1="85" y1="156" x2="90" y2="156" stroke="#666" stroke-width="0.5"/><line x1="85" y1="173" x2="90" y2="173" stroke="#666" stroke-width="0.5"/><line x1="85" y1="190" x2="90" y2="190" stroke="#666" stroke-width="0.5"/><circle cx="120" cy="140" r="6" fill="#82E0AA" stroke="#27AE60" stroke-width="1"/><circle cx="123" cy="137" r="6" fill="#82E0AA" stroke="#27AE60" stroke-width="1"/><circle cx="126" cy="134" r="6" fill="#82E0AA" stroke="#27AE60" stroke-width="1"/><circle cx="129" cy="131" r="6" fill="#82E0AA" stroke="#27AE60" stroke-width="1"/><circle cx="132" cy="125" r="3" fill="#333"/><text x="145" y="110" font-size="9" fill="#27AE60">+4 ↑</text><text x="145" y="130" font-size="9" fill="#E74C3C">-2 ↓</text><text x="100" y="215" text-anchor="middle" font-size="10" fill="#666">Caterpillar on pole</text>
</svg>