<svg viewBox="0 0 380 80" xmlns="http://www.w3.org/2000/svg" font-family="system-ui">
<rect x="5" y="5" width="370" height="70" rx="12" fill="#FEF9E7" stroke="#F7DC6F" stroke-width="2"/><polygon points="25,28 29,38 39,38 31,44 34,54 25,48 16,54 19,44 11,38 21,38" fill="#F7DC6F" stroke="#F39C12" stroke-width="1"/><text x="50" y="48" text-anchor="middle" font-size="20" fill="#333" font-weight="bold">+</text><polygon points="75,28 79,38 89,38 81,44 84,54 75,48 66,54 69,44 61,38 71,38" fill="#F7DC6F" stroke="#F39C12" stroke-width="1"/><text x="100" y="48" text-anchor="middle" font-size="20" fill="#333" font-weight="bold">+</text><polygon points="125,28 129,38 139,38 131,44 134,54 125,48 116,54 119,44 111,38 121,38" fill="#F7DC6F" stroke="#F39C12" stroke-width="1"/><text x="150" y="48" text-anchor="middle" font-size="20" fill="#333" font-weight="bold">=</text><text x="175" y="48" text-anchor="middle" font-size="20" fill="#1565c0" font-weight="bold">12</text>
</svg>