<svg xmlns="http://www.w3.org/2000/svg" viewBox="0 0 265 185"><rect width="265" height="185" fill="#E8F5E9" rx="8"/><circle cx="25" cy="25" r="15" fill="#4CAF50" opacity="0.8"/><text x="25" y="30" text-anchor="middle" font-size="11" fill="white" font-weight="bold">1</text><circle cx="67" cy="25" r="15" fill="#4CAF50" opacity="0.8"/><text x="67" y="30" text-anchor="middle" font-size="11" fill="white" font-weight="bold">2</text><circle cx="109" cy="25" r="15" fill="#4CAF50" opacity="0.8"/><text x="109" y="30" text-anchor="middle" font-size="11" fill="white" font-weight="bold">3</text><circle cx="151" cy="25" r="15" fill="#4CAF50" opacity="0.8"/><text x="151" y="30" text-anchor="middle" font-size="11" fill="white" font-weight="bold">4</text><circle cx="193" cy="25" r="15" fill="#4CAF50" opacity="0.8"/><text x="193" y="30" text-anchor="middle" font-size="11" fill="white" font-weight="bold">5</text><circle cx="25" cy="67" r="15" fill="#4CAF50" opacity="0.8"/><text x="25" y="72" text-anchor="middle" font-size="11" fill="white" font-weight="bold">6</text><circle cx="67" cy="67" r="15" fill="#4CAF50" opacity="0.8"/><text x="67" y="72" text-anchor="middle" font-size="11" fill="white" font-weight="bold">7</text><circle cx="109" cy="67" r="15" fill="#4CAF50" opacity="0.8"/><text x="109" y="72" text-anchor="middle" font-size="11" fill="white" font-weight="bold">8</text><circle cx="151" cy="67" r="15" fill="#4CAF50" opacity="0.8"/><text x="151" y="72" text-anchor="middle" font-size="11" fill="white" font-weight="bold">9</text><circle cx="193" cy="67" r="15" fill="#4CAF50" opacity="0.8"/><text x="193" y="72" text-anchor="middle" font-size="11" fill="white" font-weight="bold">10</text><circle cx="25" cy="109" r="15" fill="#4CAF50" opacity="0.8"/><text x="25" y="114" text-anchor="middle" font-size="11" fill="white" font-weight="bold">11</text><circle cx="67" cy="109" r="15" fill="#4CAF50" opacity="0.8"/><text x="67" y="114" text-anchor="middle" font-size="11" fill="white" font-weight="bold">12</text><circle cx="109" cy="109" r="15" fill="#4CAF50" opacity="0.8"/><text x="109" y="114" text-anchor="middle" font-size="11" fill="white" font-weight="bold">13</text><circle cx="151" cy="109" r="15" fill="#4CAF50" opacity="0.8"/><text x="151" y="114" text-anchor="middle" font-size="11" fill="white" font-weight="bold">14</text><circle cx="193" cy="109" r="15" fill="#4CAF50" opacity="0.8"/><text x="193" y="114" text-anchor="middle" font-size="11" fill="white" font-weight="bold">15</text></svg>