<svg xmlns="http://www.w3.org/2000/svg" viewBox="0 0 440 120"><rect width="440" height="120" fill="#F3E5F5" rx="8"/><rect x="15" y="15" width="60" height="80" fill="#CE93D8" rx="8" opacity="0.3"/><circle cx="30" cy="35" r="7" fill="#7B1FA2"/><circle cx="50" cy="35" r="7" fill="#7B1FA2"/><circle cx="30" cy="55" r="7" fill="#7B1FA2"/><circle cx="50" cy="55" r="7" fill="#7B1FA2"/><rect x="95" y="15" width="60" height="80" fill="#CE93D8" rx="8" opacity="0.3"/><circle cx="110" cy="35" r="7" fill="#7B1FA2"/><circle cx="130" cy="35" r="7" fill="#7B1FA2"/><circle cx="110" cy="55" r="7" fill="#7B1FA2"/><circle cx="130" cy="55" r="7" fill="#7B1FA2"/><rect x="175" y="15" width="60" height="80" fill="#CE93D8" rx="8" opacity="0.3"/><circle cx="190" cy="35" r="7" fill="#7B1FA2"/><circle cx="210" cy="35" r="7" fill="#7B1FA2"/><circle cx="190" cy="55" r="7" fill="#7B1FA2"/><circle cx="210" cy="55" r="7" fill="#7B1FA2"/><rect x="255" y="15" width="60" height="80" fill="#CE93D8" rx="8" opacity="0.3"/><circle cx="270" cy="35" r="7" fill="#7B1FA2"/><circle cx="290" cy="35" r="7" fill="#7B1FA2"/><circle cx="270" cy="55" r="7" fill="#7B1FA2"/><circle cx="290" cy="55" r="7" fill="#7B1FA2"/><rect x="335" y="15" width="60" height="80" fill="#CE93D8" rx="8" opacity="0.3"/><circle cx="350" cy="35" r="7" fill="#7B1FA2"/><circle cx="370" cy="35" r="7" fill="#7B1FA2"/><circle cx="350" cy="55" r="7" fill="#7B1FA2"/><circle cx="370" cy="55" r="7" fill="#7B1FA2"/><text x="220" y="112" text-anchor="middle" font-size="11" fill="#4A148C">20 items ÷ 5 groups</text></svg>