<svg xmlns="http://www.w3.org/2000/svg" viewBox="0 0 280 130"><rect width="280" height="130" fill="#E3F2FD" rx="8"/><circle cx="35" cy="35" r="12" fill="#42A5F5" opacity="0.8"/><circle cx="65" cy="35" r="12" fill="#66BB6A" opacity="0.8"/><circle cx="95" cy="35" r="12" fill="#FFA726" opacity="0.8"/><circle cx="125" cy="35" r="12" fill="#EF5350" opacity="0.8"/><circle cx="155" cy="35" r="12" fill="#AB47BC" opacity="0.8"/><circle cx="185" cy="35" r="12" fill="#42A5F5" opacity="0.8"/><circle cx="215" cy="35" r="12" fill="#66BB6A" opacity="0.8"/><circle cx="245" cy="35" r="12" fill="#FFA726" opacity="0.8"/><circle cx="35" cy="65" r="12" fill="#66BB6A" opacity="0.8"/><circle cx="65" cy="65" r="12" fill="#FFA726" opacity="0.8"/><circle cx="95" cy="65" r="12" fill="#EF5350" opacity="0.8"/><circle cx="125" cy="65" r="12" fill="#AB47BC" opacity="0.8"/><circle cx="155" cy="65" r="12" fill="#42A5F5" opacity="0.8"/><circle cx="185" cy="65" r="12" fill="#66BB6A" opacity="0.8"/><circle cx="215" cy="65" r="12" fill="#FFA726" opacity="0.8"/><circle cx="245" cy="65" r="12" fill="#EF5350" opacity="0.8"/><circle cx="35" cy="95" r="12" fill="#FFA726" opacity="0.8"/><circle cx="65" cy="95" r="12" fill="#EF5350" opacity="0.8"/><circle cx="95" cy="95" r="12" fill="#AB47BC" opacity="0.8"/><circle cx="125" cy="95" r="12" fill="#42A5F5" opacity="0.8"/><circle cx="155" cy="95" r="12" fill="#66BB6A" opacity="0.8"/><circle cx="185" cy="95" r="12" fill="#FFA726" opacity="0.8"/><circle cx="215" cy="95" r="12" fill="#EF5350" opacity="0.8"/><circle cx="245" cy="95" r="12" fill="#AB47BC" opacity="0.8"/></svg>