<svg xmlns="http://www.w3.org/2000/svg" viewBox="0 0 160 190"><rect width="160" height="190" fill="#E3F2FD" rx="8"/><circle cx="35" cy="35" r="12" fill="#42A5F5" opacity="0.8"/><circle cx="65" cy="35" r="12" fill="#66BB6A" opacity="0.8"/><circle cx="95" cy="35" r="12" fill="#FFA726" opacity="0.8"/><circle cx="125" cy="35" r="12" fill="#EF5350" opacity="0.8"/><circle cx="35" cy="65" r="12" fill="#66BB6A" opacity="0.8"/><circle cx="65" cy="65" r="12" fill="#FFA726" opacity="0.8"/><circle cx="95" cy="65" r="12" fill="#EF5350" opacity="0.8"/><circle cx="125" cy="65" r="12" fill="#AB47BC" opacity="0.8"/><circle cx="35" cy="95" r="12" fill="#FFA726" opacity="0.8"/><circle cx="65" cy="95" r="12" fill="#EF5350" opacity="0.8"/><circle cx="95" cy="95" r="12" fill="#AB47BC" opacity="0.8"/><circle cx="125" cy="95" r="12" fill="#42A5F5" opacity="0.8"/><circle cx="35" cy="125" r="12" fill="#EF5350" opacity="0.8"/><circle cx="65" cy="125" r="12" fill="#AB47BC" opacity="0.8"/><circle cx="95" cy="125" r="12" fill="#42A5F5" opacity="0.8"/><circle cx="125" cy="125" r="12" fill="#66BB6A" opacity="0.8"/><circle cx="35" cy="155" r="12" fill="#AB47BC" opacity="0.8"/><circle cx="65" cy="155" r="12" fill="#42A5F5" opacity="0.8"/><circle cx="95" cy="155" r="12" fill="#66BB6A" opacity="0.8"/><circle cx="125" cy="155" r="12" fill="#FFA726" opacity="0.8"/></svg>