<svg viewBox="0 0 240 140" xmlns="http://www.w3.org/2000/svg">
<rect width="240" height="140" fill="#FFFEF5" rx="8"/>
<text x="120" y="16" text-anchor="middle" font-size="10" font-weight="bold" fill="#2C3E50">1/5 shaded</text>
<path d="M120,70 L120.0,25.0 A45,45 0 0,1 162.8,56.1 Z" fill="#FF6B6B" stroke="#333" stroke-width="1"/>
<path d="M120,70 L162.8,56.1 A45,45 0 0,1 146.5,106.4 Z" fill="#F0F0F0" stroke="#333" stroke-width="1"/>
<path d="M120,70 L146.5,106.4 A45,45 0 0,1 93.5,106.4 Z" fill="#F0F0F0" stroke="#333" stroke-width="1"/>
<path d="M120,70 L93.5,106.4 A45,45 0 0,1 77.2,56.1 Z" fill="#F0F0F0" stroke="#333" stroke-width="1"/>
<path d="M120,70 L77.2,56.1 A45,45 0 0,1 120.0,25.0 Z" fill="#F0F0F0" stroke="#333" stroke-width="1"/>

</svg>