<svg viewBox="0 0 260 150" xmlns="http://www.w3.org/2000/svg">
<rect width="260" height="150" fill="#FFFEF5" rx="8"/>
<text x="130" y="18" text-anchor="middle" font-size="9" font-weight="bold" fill="#2C3E50">Measure the ribbon</text>
<rect x="30" y="90" width="200" height="20" fill="#F5DEB3" stroke="#8B4513" stroke-width="1"/>
<line x1="30" y1="110" x2="30" y2="122" stroke="#333" stroke-width="0.8"/>
<text x="30" y="132" text-anchor="middle" font-size="6" fill="#333">0</text>
<line x1="40" y1="110" x2="40" y2="116" stroke="#333" stroke-width="0.8"/>
<line x1="50" y1="110" x2="50" y2="116" stroke="#333" stroke-width="0.8"/>
<line x1="60" y1="110" x2="60" y2="116" stroke="#333" stroke-width="0.8"/>
<line x1="70" y1="110" x2="70" y2="116" stroke="#333" stroke-width="0.8"/>
<line x1="80" y1="110" x2="80" y2="122" stroke="#333" stroke-width="0.8"/>
<text x="80" y="132" text-anchor="middle" font-size="6" fill="#333">5</text>
<line x1="90" y1="110" x2="90" y2="116" stroke="#333" stroke-width="0.8"/>
<line x1="100" y1="110" x2="100" y2="116" stroke="#333" stroke-width="0.8"/>
<line x1="110" y1="110" x2="110" y2="116" stroke="#333" stroke-width="0.8"/>
<line x1="120" y1="110" x2="120" y2="116" stroke="#333" stroke-width="0.8"/>
<line x1="130" y1="110" x2="130" y2="122" stroke="#333" stroke-width="0.8"/>
<text x="130" y="132" text-anchor="middle" font-size="6" fill="#333">10</text>
<line x1="140" y1="110" x2="140" y2="116" stroke="#333" stroke-width="0.8"/>
<line x1="150" y1="110" x2="150" y2="116" stroke="#333" stroke-width="0.8"/>
<line x1="160" y1="110" x2="160" y2="116" stroke="#333" stroke-width="0.8"/>
<line x1="170" y1="110" x2="170" y2="116" stroke="#333" stroke-width="0.8"/>
<line x1="180" y1="110" x2="180" y2="122" stroke="#333" stroke-width="0.8"/>
<text x="180" y="132" text-anchor="middle" font-size="6" fill="#333">15</text>
<line x1="190" y1="110" x2="190" y2="116" stroke="#333" stroke-width="0.8"/>
<line x1="200" y1="110" x2="200" y2="116" stroke="#333" stroke-width="0.8"/>
<line x1="210" y1="110" x2="210" y2="116" stroke="#333" stroke-width="0.8"/>
<line x1="220" y1="110" x2="220" y2="116" stroke="#333" stroke-width="0.8"/>
<line x1="230" y1="110" x2="230" y2="122" stroke="#333" stroke-width="0.8"/>
<text x="230" y="132" text-anchor="middle" font-size="6" fill="#333">20</text>
<text x="130" y="140" text-anchor="middle" font-size="7" fill="#666">cm</text>
<rect x="30" y="55" width="120" height="25" fill="#2ECC71" rx="4" opacity="0.7"/>
<text x="90" y="72" text-anchor="middle" font-size="8" fill="#FFF">ribbon</text>
</svg>