<svg viewBox="0 0 260 150" xmlns="http://www.w3.org/2000/svg">
<rect width="260" height="150" fill="#FFFEF5" rx="8"/>
<text x="130" y="15" text-anchor="middle" font-size="9" font-weight="bold" fill="#2C3E50">What time is shown?</text>
<circle cx="130" cy="82" r="50" fill="#FFF" stroke="#333" stroke-width="2"/>
<line x1="130.0" y1="38.0" x2="130.0" y2="34.0" stroke="#333" stroke-width="1.5"/>
<text x="130.0" y="47.0" text-anchor="middle" font-size="7" fill="#333">12</text>
<line x1="152.0" y1="43.9" x2="154.0" y2="40.4" stroke="#333" stroke-width="1.5"/>
<text x="149.0" y="52.1" text-anchor="middle" font-size="7" fill="#333">1</text>
<line x1="168.1" y1="60.0" x2="171.6" y2="58.0" stroke="#333" stroke-width="1.5"/>
<text x="162.9" y="66.0" text-anchor="middle" font-size="7" fill="#333">2</text>
<line x1="174.0" y1="82.0" x2="178.0" y2="82.0" stroke="#333" stroke-width="1.5"/>
<text x="168.0" y="85.0" text-anchor="middle" font-size="7" fill="#333">3</text>
<line x1="168.1" y1="104.0" x2="171.6" y2="106.0" stroke="#333" stroke-width="1.5"/>
<text x="162.9" y="104.0" text-anchor="middle" font-size="7" fill="#333">4</text>
<line x1="152.0" y1="120.1" x2="154.0" y2="123.6" stroke="#333" stroke-width="1.5"/>
<text x="149.0" y="117.9" text-anchor="middle" font-size="7" fill="#333">5</text>
<line x1="130.0" y1="126.0" x2="130.0" y2="130.0" stroke="#333" stroke-width="1.5"/>
<text x="130.0" y="123.0" text-anchor="middle" font-size="7" fill="#333">6</text>
<line x1="108.0" y1="120.1" x2="106.0" y2="123.6" stroke="#333" stroke-width="1.5"/>
<text x="111.0" y="117.9" text-anchor="middle" font-size="7" fill="#333">7</text>
<line x1="91.9" y1="104.0" x2="88.4" y2="106.0" stroke="#333" stroke-width="1.5"/>
<text x="97.1" y="104.0" text-anchor="middle" font-size="7" fill="#333">8</text>
<line x1="86.0" y1="82.0" x2="82.0" y2="82.0" stroke="#333" stroke-width="1.5"/>
<text x="92.0" y="85.0" text-anchor="middle" font-size="7" fill="#333">9</text>
<line x1="91.9" y1="60.0" x2="88.4" y2="58.0" stroke="#333" stroke-width="1.5"/>
<text x="97.1" y="66.0" text-anchor="middle" font-size="7" fill="#333">10</text>
<line x1="108.0" y1="43.9" x2="106.0" y2="40.4" stroke="#333" stroke-width="1.5"/>
<text x="111.0" y="52.1" text-anchor="middle" font-size="7" fill="#333">11</text>
<line x1="130" y1="82" x2="104.1" y2="92.7" stroke="#333" stroke-width="3"/>
<line x1="130" y1="82" x2="170.0" y2="82.0" stroke="#E74C3C" stroke-width="2"/>
<circle cx="130" cy="82" r="3" fill="#333"/>
</svg>