<svg xmlns="http://www.w3.org/2000/svg" viewBox="0 0 300 200" width="300" height="200">
  <rect width="300" height="200" fill="#FFF8F0" rx="8"/>
  <text x="150.0" y="14" text-anchor="middle" font-size="11" font-weight="bold" font-family="Arial" fill="#1A1A2E">Bar Height = Frequency</text>
  <line x1="45" y1="30" x2="45" y2="165" stroke="#1A1A2E" stroke-width="1.5"/>
  <line x1="45" y1="165" x2="285" y2="165" stroke="#1A1A2E" stroke-width="1.5"/>
  <line x1="41" y1="165.0" x2="45" y2="165.0" stroke="#1A1A2E" stroke-width="1"/>
  <text x="38" y="169.0" text-anchor="end" font-size="9" font-family="Arial" fill="#9E9E9E">0</text>
  <line x1="41" y1="138.0" x2="45" y2="138.0" stroke="#1A1A2E" stroke-width="1"/>
  <text x="38" y="142.0" text-anchor="end" font-size="9" font-family="Arial" fill="#9E9E9E">10</text>
  <line x1="45" y1="138.0" x2="285" y2="138.0" stroke="#E0E0E0" stroke-width="0.5"/>
  <line x1="41" y1="111.0" x2="45" y2="111.0" stroke="#1A1A2E" stroke-width="1"/>
  <text x="38" y="115.0" text-anchor="end" font-size="9" font-family="Arial" fill="#9E9E9E">20</text>
  <line x1="45" y1="111.0" x2="285" y2="111.0" stroke="#E0E0E0" stroke-width="0.5"/>
  <line x1="41" y1="84.0" x2="45" y2="84.0" stroke="#1A1A2E" stroke-width="1"/>
  <text x="38" y="88.0" text-anchor="end" font-size="9" font-family="Arial" fill="#9E9E9E">30</text>
  <line x1="45" y1="84.0" x2="285" y2="84.0" stroke="#E0E0E0" stroke-width="0.5"/>
  <line x1="41" y1="57.0" x2="45" y2="57.0" stroke="#1A1A2E" stroke-width="1"/>
  <text x="38" y="61.0" text-anchor="end" font-size="9" font-family="Arial" fill="#9E9E9E">40</text>
  <line x1="45" y1="57.0" x2="285" y2="57.0" stroke="#E0E0E0" stroke-width="0.5"/>
  <line x1="41" y1="30.0" x2="45" y2="30.0" stroke="#1A1A2E" stroke-width="1"/>
  <text x="38" y="34.0" text-anchor="end" font-size="9" font-family="Arial" fill="#9E9E9E">50</text>
  <line x1="45" y1="30.0" x2="285" y2="30.0" stroke="#E0E0E0" stroke-width="0.5"/>
  <rect x="69.0" y="97.5" width="30.0" height="67.5" fill="#FF6D00" rx="2"/>
  <text x="84.0" y="93.5" text-anchor="middle" font-size="9" font-family="Arial" fill="#1A1A2E">25</text>
  <text x="84.0" y="177" text-anchor="middle" font-size="9" font-family="Arial" fill="#1A1A2E">Cat A</text>
  <rect x="123.0" y="57.0" width="30.0" height="108.0" fill="#1976D2" rx="2"/>
  <text x="138.0" y="53.0" text-anchor="middle" font-size="9" font-family="Arial" fill="#1A1A2E">40</text>
  <text x="138.0" y="177" text-anchor="middle" font-size="9" font-family="Arial" fill="#1A1A2E">Cat B</text>
  <rect x="177.0" y="124.5" width="30.0" height="40.5" fill="#4CAF50" rx="2"/>
  <text x="192.0" y="120.5" text-anchor="middle" font-size="9" font-family="Arial" fill="#1A1A2E">15</text>
  <text x="192.0" y="177" text-anchor="middle" font-size="9" font-family="Arial" fill="#1A1A2E">Cat C</text>
  <rect x="231.0" y="30.0" width="30.0" height="135.0" fill="#E91E63" rx="2"/>
  <text x="246.0" y="26.0" text-anchor="middle" font-size="9" font-family="Arial" fill="#1A1A2E">50</text>
  <text x="246.0" y="177" text-anchor="middle" font-size="9" font-family="Arial" fill="#1A1A2E">Cat D</text>
</svg>