<svg xmlns="http://www.w3.org/2000/svg" viewBox="0 0 280 166">
  <rect width="280" height="166" fill="#FFFBF5" rx="12"/>
  <rect x="20" y="20" width="50" height="115" fill="#F5F5F5" rx="6" stroke="#DDD"/>
  <text x="45" y="15" text-anchor="middle" font-family="Arial" font-size="9" fill="#999">Bag 1</text>
  <circle cx="45" cy="35" r="5" fill="#FF6B6B"/>
  <circle cx="45" cy="50" r="5" fill="#FF6B6B"/>
  <circle cx="45" cy="65" r="5" fill="#FF6B6B"/>
  <circle cx="45" cy="80" r="5" fill="#FF6B6B"/>
  <circle cx="45" cy="95" r="5" fill="#FF6B6B"/>
  <circle cx="45" cy="110" r="5" fill="#FF6B6B"/>
  <rect x="80" y="20" width="50" height="115" fill="#F5F5F5" rx="6" stroke="#DDD"/>
  <text x="105" y="15" text-anchor="middle" font-family="Arial" font-size="9" fill="#999">Bag 2</text>
  <circle cx="105" cy="35" r="5" fill="#42A5F5"/>
  <circle cx="105" cy="50" r="5" fill="#42A5F5"/>
  <circle cx="105" cy="65" r="5" fill="#42A5F5"/>
  <circle cx="105" cy="80" r="5" fill="#42A5F5"/>
  <circle cx="105" cy="95" r="5" fill="#42A5F5"/>
  <circle cx="105" cy="110" r="5" fill="#42A5F5"/>
  <rect x="140" y="20" width="50" height="115" fill="#F5F5F5" rx="6" stroke="#DDD"/>
  <text x="165" y="15" text-anchor="middle" font-family="Arial" font-size="9" fill="#999">Bag 3</text>
  <circle cx="165" cy="35" r="5" fill="#66BB6A"/>
  <circle cx="165" cy="50" r="5" fill="#66BB6A"/>
  <circle cx="165" cy="65" r="5" fill="#66BB6A"/>
  <circle cx="165" cy="80" r="5" fill="#66BB6A"/>
  <circle cx="165" cy="95" r="5" fill="#66BB6A"/>
  <circle cx="165" cy="110" r="5" fill="#66BB6A"/>
</svg>