<svg xmlns="http://www.w3.org/2000/svg" viewBox="0 0 200 200" width="200" height="200">
  <rect width="200" height="200" fill="#f0f4f8" rx="12"/>
  <text x="100" y="28" text-anchor="middle" font-family="Arial,sans-serif" font-size="12" font-weight="bold" fill="#333">11 Pencils</text>
  <rect x="34.44" y="49.26666666666667" width="3.12" height="18.720000000000002" fill="#D5DBDB" stroke="#333" stroke-width="1"/><polygon points="34.44,67.98666666666668 37.56,67.98666666666668 36.0,70.06666666666668" fill="#F8C471" stroke="#333" stroke-width="1"/>
  <rect x="66.44" y="49.26666666666667" width="3.12" height="18.720000000000002" fill="#96CEB4" stroke="#333" stroke-width="1"/><polygon points="66.44,67.98666666666668 69.56,67.98666666666668 68.0,70.06666666666668" fill="#F8C471" stroke="#333" stroke-width="1"/>
  <rect x="98.44" y="49.26666666666667" width="3.12" height="18.720000000000002" fill="#A3E4D7" stroke="#333" stroke-width="1"/><polygon points="98.44,67.98666666666668 101.56,67.98666666666668 100.0,70.06666666666668" fill="#F8C471" stroke="#333" stroke-width="1"/>
  <rect x="130.44" y="49.26666666666667" width="3.12" height="18.720000000000002" fill="#F9E79F" stroke="#333" stroke-width="1"/><polygon points="130.44,67.98666666666668 133.56,67.98666666666668 132.0,70.06666666666668" fill="#F8C471" stroke="#333" stroke-width="1"/>
  <rect x="162.44" y="49.26666666666667" width="3.12" height="18.720000000000002" fill="#AED6F1" stroke="#333" stroke-width="1"/><polygon points="162.44,67.98666666666668 165.56,67.98666666666668 164.0,70.06666666666668" fill="#F8C471" stroke="#333" stroke-width="1"/>
  <rect x="34.44" y="92.60000000000001" width="3.12" height="18.720000000000002" fill="#FAD7A0" stroke="#333" stroke-width="1"/><polygon points="34.44,111.32000000000002 37.56,111.32000000000002 36.0,113.40000000000002" fill="#F8C471" stroke="#333" stroke-width="1"/>
  <rect x="66.44" y="92.60000000000001" width="3.12" height="18.720000000000002" fill="#F1948A" stroke="#333" stroke-width="1"/><polygon points="66.44,111.32000000000002 69.56,111.32000000000002 68.0,113.40000000000002" fill="#F8C471" stroke="#333" stroke-width="1"/>
  <rect x="98.44" y="92.60000000000001" width="3.12" height="18.720000000000002" fill="#96CEB4" stroke="#333" stroke-width="1"/><polygon points="98.44,111.32000000000002 101.56,111.32000000000002 100.0,113.40000000000002" fill="#F8C471" stroke="#333" stroke-width="1"/>
  <rect x="130.44" y="92.60000000000001" width="3.12" height="18.720000000000002" fill="#96CEB4" stroke="#333" stroke-width="1"/><polygon points="130.44,111.32000000000002 133.56,111.32000000000002 132.0,113.40000000000002" fill="#F8C471" stroke="#333" stroke-width="1"/>
  <rect x="162.44" y="92.60000000000001" width="3.12" height="18.720000000000002" fill="#96CEB4" stroke="#333" stroke-width="1"/><polygon points="162.44,111.32000000000002 165.56,111.32000000000002 164.0,113.40000000000002" fill="#F8C471" stroke="#333" stroke-width="1"/>
  <rect x="34.44" y="135.93333333333334" width="3.12" height="18.720000000000002" fill="#D2B4DE" stroke="#333" stroke-width="1"/><polygon points="34.44,154.65333333333334 37.56,154.65333333333334 36.0,156.73333333333335" fill="#F8C471" stroke="#333" stroke-width="1"/>
</svg>