<svg xmlns="http://www.w3.org/2000/svg" viewBox="0 0 200 200" width="200" height="200">
  <rect width="200" height="200" fill="#f0f4f8" rx="12"/>
  <text x="100" y="28" text-anchor="middle" font-family="Arial,sans-serif" font-size="12" font-weight="bold" fill="#333">12 Flowers</text>
  <rect x="34.44" y="59.66666666666667" width="3.12" height="10.4" fill="#8B4513" stroke="#333" stroke-width="1"/><circle cx="36.0" cy="58.62666666666667" r="6.24" fill="#DDA0DD" stroke="#333" stroke-width="1.2"/>
  <rect x="66.44" y="59.66666666666667" width="3.12" height="10.4" fill="#8B4513" stroke="#333" stroke-width="1"/><circle cx="68.0" cy="58.62666666666667" r="6.24" fill="#FF6B6B" stroke="#333" stroke-width="1.2"/>
  <rect x="98.44" y="59.66666666666667" width="3.12" height="10.4" fill="#8B4513" stroke="#333" stroke-width="1"/><circle cx="100.0" cy="58.62666666666667" r="6.24" fill="#45B7D1" stroke="#333" stroke-width="1.2"/>
  <rect x="130.44" y="59.66666666666667" width="3.12" height="10.4" fill="#8B4513" stroke="#333" stroke-width="1"/><circle cx="132.0" cy="58.62666666666667" r="6.24" fill="#FFEAA7" stroke="#333" stroke-width="1.2"/>
  <rect x="162.44" y="59.66666666666667" width="3.12" height="10.4" fill="#8B4513" stroke="#333" stroke-width="1"/><circle cx="164.0" cy="58.62666666666667" r="6.24" fill="#45B7D1" stroke="#333" stroke-width="1.2"/>
  <rect x="34.44" y="103.00000000000001" width="3.12" height="10.4" fill="#8B4513" stroke="#333" stroke-width="1"/><circle cx="36.0" cy="101.96000000000001" r="6.24" fill="#DDA0DD" stroke="#333" stroke-width="1.2"/>
  <rect x="66.44" y="103.00000000000001" width="3.12" height="10.4" fill="#8B4513" stroke="#333" stroke-width="1"/><circle cx="68.0" cy="101.96000000000001" r="6.24" fill="#D5DBDB" stroke="#333" stroke-width="1.2"/>
  <rect x="98.44" y="103.00000000000001" width="3.12" height="10.4" fill="#8B4513" stroke="#333" stroke-width="1"/><circle cx="100.0" cy="101.96000000000001" r="6.24" fill="#ABEBC6" stroke="#333" stroke-width="1.2"/>
  <rect x="130.44" y="103.00000000000001" width="3.12" height="10.4" fill="#8B4513" stroke="#333" stroke-width="1"/><circle cx="132.0" cy="101.96000000000001" r="6.24" fill="#FAD7A0" stroke="#333" stroke-width="1.2"/>
  <rect x="162.44" y="103.00000000000001" width="3.12" height="10.4" fill="#8B4513" stroke="#333" stroke-width="1"/><circle cx="164.0" cy="101.96000000000001" r="6.24" fill="#F7DC6F" stroke="#333" stroke-width="1.2"/>
  <rect x="34.44" y="146.33333333333334" width="3.12" height="10.4" fill="#8B4513" stroke="#333" stroke-width="1"/><circle cx="36.0" cy="145.29333333333335" r="6.24" fill="#BB8FCE" stroke="#333" stroke-width="1.2"/>
  <rect x="66.44" y="146.33333333333334" width="3.12" height="10.4" fill="#8B4513" stroke="#333" stroke-width="1"/><circle cx="68.0" cy="145.29333333333335" r="6.24" fill="#BB8FCE" stroke="#333" stroke-width="1.2"/>
</svg>