<svg viewBox="0 0 400 200" xmlns="http://www.w3.org/2000/svg">
  <rect x="113" y="130" width="35" height="30" fill="#3498db" stroke="#2c3e50" stroke-width="1.5"/>
  <polygon points="113,130 121,122 156,122 148,130" fill="#3498db" opacity="0.3" stroke="#2c3e50" stroke-width="0.5"/>
  <polygon points="148,130 156,122 156,152 148,160" fill="#3498db" opacity="0.2" stroke="#2c3e50" stroke-width="0.5"/>
  <rect x="148" y="130" width="35" height="30" fill="#3498db" stroke="#2c3e50" stroke-width="1.5"/>
  <polygon points="148,130 156,122 191,122 183,130" fill="#3498db" opacity="0.3" stroke="#2c3e50" stroke-width="0.5"/>
  <polygon points="183,130 191,122 191,152 183,160" fill="#3498db" opacity="0.2" stroke="#2c3e50" stroke-width="0.5"/>
  <rect x="183" y="130" width="35" height="30" fill="#3498db" stroke="#2c3e50" stroke-width="1.5"/>
  <polygon points="183,130 191,122 226,122 218,130" fill="#3498db" opacity="0.3" stroke="#2c3e50" stroke-width="0.5"/>
  <polygon points="218,130 226,122 226,152 218,160" fill="#3498db" opacity="0.2" stroke="#2c3e50" stroke-width="0.5"/>
  <rect x="218" y="130" width="35" height="30" fill="#3498db" stroke="#2c3e50" stroke-width="1.5"/>
  <polygon points="218,130 226,122 261,122 253,130" fill="#3498db" opacity="0.3" stroke="#2c3e50" stroke-width="0.5"/>
  <polygon points="253,130 261,122 261,152 253,160" fill="#3498db" opacity="0.2" stroke="#2c3e50" stroke-width="0.5"/>
  <rect x="253" y="130" width="35" height="30" fill="#3498db" stroke="#2c3e50" stroke-width="1.5"/>
  <polygon points="253,130 261,122 296,122 288,130" fill="#3498db" opacity="0.3" stroke="#2c3e50" stroke-width="0.5"/>
  <polygon points="288,130 296,122 296,152 288,160" fill="#3498db" opacity="0.2" stroke="#2c3e50" stroke-width="0.5"/>
</svg>