<svg viewBox="0 0 260 150" xmlns="http://www.w3.org/2000/svg">

  <rect x="20" y="10" width="38" height="26" fill="#FFF" stroke="#999" stroke-width="0.5"/>
  <text x="39" y="27" text-anchor="middle" font-size="10" fill="#333">1</text>
  <rect x="60" y="10" width="38" height="26" fill="#C8E6C9" stroke="#999" stroke-width="0.5"/>
  <text x="79" y="27" text-anchor="middle" font-size="10" fill="#333">2</text>
  <rect x="100" y="10" width="38" height="26" fill="#C8E6C9" stroke="#999" stroke-width="0.5"/>
  <text x="119" y="27" text-anchor="middle" font-size="10" fill="#333">3</text>
  <rect x="140" y="10" width="38" height="26" fill="#FFF" stroke="#999" stroke-width="0.5"/>
  <text x="159" y="27" text-anchor="middle" font-size="10" fill="#333">4</text>
  <rect x="180" y="10" width="38" height="26" fill="#C8E6C9" stroke="#999" stroke-width="0.5"/>
  <text x="199" y="27" text-anchor="middle" font-size="10" fill="#333">5</text>
  <rect x="220" y="10" width="38" height="26" fill="#FFF" stroke="#999" stroke-width="0.5"/>
  <text x="239" y="27" text-anchor="middle" font-size="10" fill="#333">6</text>
  <rect x="20" y="38" width="38" height="26" fill="#C8E6C9" stroke="#999" stroke-width="0.5"/>
  <text x="39" y="55" text-anchor="middle" font-size="10" fill="#333">7</text>
  <rect x="60" y="38" width="38" height="26" fill="#FFF" stroke="#999" stroke-width="0.5"/>
  <text x="79" y="55" text-anchor="middle" font-size="10" fill="#333">8</text>
  <rect x="100" y="38" width="38" height="26" fill="#FFF" stroke="#999" stroke-width="0.5"/>
  <text x="119" y="55" text-anchor="middle" font-size="10" fill="#333">9</text>
  <rect x="140" y="38" width="38" height="26" fill="#FFF" stroke="#999" stroke-width="0.5"/>
  <text x="159" y="55" text-anchor="middle" font-size="10" fill="#333">10</text>
  <rect x="180" y="38" width="38" height="26" fill="#C8E6C9" stroke="#999" stroke-width="0.5"/>
  <text x="199" y="55" text-anchor="middle" font-size="10" fill="#333">11</text>
  <rect x="220" y="38" width="38" height="26" fill="#FFF" stroke="#999" stroke-width="0.5"/>
  <text x="239" y="55" text-anchor="middle" font-size="10" fill="#333">12</text>
  <rect x="20" y="66" width="38" height="26" fill="#C8E6C9" stroke="#999" stroke-width="0.5"/>
  <text x="39" y="83" text-anchor="middle" font-size="10" fill="#333">13</text>
  <rect x="60" y="66" width="38" height="26" fill="#FFF" stroke="#999" stroke-width="0.5"/>
  <text x="79" y="83" text-anchor="middle" font-size="10" fill="#333">14</text>
  <rect x="100" y="66" width="38" height="26" fill="#FFF" stroke="#999" stroke-width="0.5"/>
  <text x="119" y="83" text-anchor="middle" font-size="10" fill="#333">15</text>
  <rect x="140" y="66" width="38" height="26" fill="#FFF" stroke="#999" stroke-width="0.5"/>
  <text x="159" y="83" text-anchor="middle" font-size="10" fill="#333">16</text>
  <rect x="180" y="66" width="38" height="26" fill="#C8E6C9" stroke="#999" stroke-width="0.5"/>
  <text x="199" y="83" text-anchor="middle" font-size="10" fill="#333">17</text>
  <rect x="220" y="66" width="38" height="26" fill="#FFF" stroke="#999" stroke-width="0.5"/>
  <text x="239" y="83" text-anchor="middle" font-size="10" fill="#333">18</text>
  <rect x="20" y="94" width="38" height="26" fill="#C8E6C9" stroke="#999" stroke-width="0.5"/>
  <text x="39" y="111" text-anchor="middle" font-size="10" fill="#333">19</text>
  <rect x="60" y="94" width="38" height="26" fill="#FFF" stroke="#999" stroke-width="0.5"/>
  <text x="79" y="111" text-anchor="middle" font-size="10" fill="#333">20</text>
  <rect x="100" y="94" width="38" height="26" fill="#FFF" stroke="#999" stroke-width="0.5"/>
  <text x="119" y="111" text-anchor="middle" font-size="10" fill="#333">21</text>
  <rect x="140" y="94" width="38" height="26" fill="#FFF" stroke="#999" stroke-width="0.5"/>
  <text x="159" y="111" text-anchor="middle" font-size="10" fill="#333">22</text>
  <rect x="180" y="94" width="38" height="26" fill="#C8E6C9" stroke="#999" stroke-width="0.5"/>
  <text x="199" y="111" text-anchor="middle" font-size="10" fill="#333">23</text>
  <rect x="220" y="94" width="38" height="26" fill="#FFF" stroke="#999" stroke-width="0.5"/>
  <text x="239" y="111" text-anchor="middle" font-size="10" fill="#333">24</text>
  <rect x="20" y="122" width="38" height="26" fill="#FFF" stroke="#999" stroke-width="0.5"/>
  <text x="39" y="139" text-anchor="middle" font-size="10" fill="#333">25</text>
  <rect x="60" y="122" width="38" height="26" fill="#FFF" stroke="#999" stroke-width="0.5"/>
  <text x="79" y="139" text-anchor="middle" font-size="10" fill="#333">26</text>
  <rect x="100" y="122" width="38" height="26" fill="#FFF" stroke="#999" stroke-width="0.5"/>
  <text x="119" y="139" text-anchor="middle" font-size="10" fill="#333">27</text>
  <rect x="140" y="122" width="38" height="26" fill="#FFF" stroke="#999" stroke-width="0.5"/>
  <text x="159" y="139" text-anchor="middle" font-size="10" fill="#333">28</text>
  <rect x="180" y="122" width="38" height="26" fill="#C8E6C9" stroke="#999" stroke-width="0.5"/>
  <text x="199" y="139" text-anchor="middle" font-size="10" fill="#333">29</text>
  <rect x="220" y="122" width="38" height="26" fill="#FFF" stroke="#999" stroke-width="0.5"/>
  <text x="239" y="139" text-anchor="middle" font-size="10" fill="#333">30</text>
</svg>