<svg viewBox="0 0 260 150" xmlns="http://www.w3.org/2000/svg">
  <line x1="10" y1="75" x2="250" y2="75" stroke="#333" stroke-width="2"/>
  <polygon points="250,75 245,72 245,78" fill="#333"/>
  <line x1="30" y1="70" x2="30" y2="80" stroke="#333" stroke-width="1.5"/>
  <text x="30" y="95" text-anchor="middle" font-size="9" fill="#333">-5</text>
  <line x1="50" y1="70" x2="50" y2="80" stroke="#333" stroke-width="1.5"/>
  <text x="50" y="95" text-anchor="middle" font-size="9" fill="#333">-4</text>
  <line x1="70" y1="70" x2="70" y2="80" stroke="#333" stroke-width="1.5"/>
  <text x="70" y="95" text-anchor="middle" font-size="9" fill="#333">-3</text>
  <line x1="90" y1="70" x2="90" y2="80" stroke="#333" stroke-width="1.5"/>
  <text x="90" y="95" text-anchor="middle" font-size="9" fill="#333">-2</text>
  <line x1="110" y1="70" x2="110" y2="80" stroke="#333" stroke-width="1.5"/>
  <text x="110" y="95" text-anchor="middle" font-size="9" fill="#333">-1</text>
  <line x1="130" y1="70" x2="130" y2="80" stroke="#333" stroke-width="1.5"/>
  <text x="130" y="95" text-anchor="middle" font-size="9" fill="#333">0</text>
  <line x1="150" y1="70" x2="150" y2="80" stroke="#333" stroke-width="1.5"/>
  <text x="150" y="95" text-anchor="middle" font-size="9" fill="#333">1</text>
  <line x1="170" y1="70" x2="170" y2="80" stroke="#333" stroke-width="1.5"/>
  <text x="170" y="95" text-anchor="middle" font-size="9" fill="#333">2</text>
  <line x1="190" y1="70" x2="190" y2="80" stroke="#333" stroke-width="1.5"/>
  <text x="190" y="95" text-anchor="middle" font-size="9" fill="#333">3</text>
  <line x1="210" y1="70" x2="210" y2="80" stroke="#333" stroke-width="1.5"/>
  <text x="210" y="95" text-anchor="middle" font-size="9" fill="#333">4</text>
  <line x1="230" y1="70" x2="230" y2="80" stroke="#333" stroke-width="1.5"/>
  <text x="230" y="95" text-anchor="middle" font-size="9" fill="#333">5</text>
  <circle cx="130" cy="75" r="4" fill="#E91E63"/>
</svg>