<svg viewBox="0 0 260 150" xmlns="http://www.w3.org/2000/svg">
  <circle cx="40" cy="30" r="5" fill="#42A5F5"/>
  <circle cx="60" cy="30" r="5" fill="#42A5F5"/>
  <circle cx="80" cy="30" r="5" fill="#42A5F5"/>
  <circle cx="100" cy="30" r="5" fill="#42A5F5"/>
  <circle cx="120" cy="30" r="5" fill="#42A5F5"/>
  <circle cx="140" cy="30" r="5" fill="#42A5F5"/>
  <circle cx="160" cy="30" r="5" fill="#42A5F5"/>
  <circle cx="40" cy="50" r="5" fill="#42A5F5"/>
  <circle cx="60" cy="50" r="5" fill="#42A5F5"/>
  <circle cx="80" cy="50" r="5" fill="#42A5F5"/>
  <circle cx="100" cy="50" r="5" fill="#42A5F5"/>
  <circle cx="120" cy="50" r="5" fill="#42A5F5"/>
  <circle cx="140" cy="50" r="5" fill="#42A5F5"/>
  <circle cx="160" cy="50" r="5" fill="#42A5F5"/>
  <circle cx="40" cy="70" r="5" fill="#42A5F5"/>
  <circle cx="60" cy="70" r="5" fill="#42A5F5"/>
  <circle cx="80" cy="70" r="5" fill="#42A5F5"/>
  <circle cx="100" cy="70" r="5" fill="#42A5F5"/>
  <circle cx="120" cy="70" r="5" fill="#42A5F5"/>
  <circle cx="140" cy="70" r="5" fill="#42A5F5"/>
  <circle cx="160" cy="70" r="5" fill="#42A5F5"/>
  <text x="130" y="140" text-anchor="middle" font-size="11" font-family="Arial">3 × 7 = ?</text>
</svg>