<svg viewBox="0 0 250 250" xmlns="http://www.w3.org/2000/svg" font-family="system-ui">
<polygon points="20,20 180,20 20,180" fill="#FF6B6B" stroke="white" stroke-width="2"/><text x="60" y="70" font-size="10" fill="white" font-weight="bold">1</text><polygon points="180,20 180,180 20,180" fill="#45B7D1" stroke="white" stroke-width="2"/><text x="140" y="130" font-size="10" fill="white" font-weight="bold">2</text><polygon points="20,180 100,100 180,180" fill="#82E0AA" stroke="white" stroke-width="2"/><text x="100" y="165" font-size="10" fill="white" font-weight="bold">3</text><polygon points="100,100 140,60 180,100" fill="#F7DC6F" stroke="white" stroke-width="2"/><text x="140" y="90" font-size="8" fill="#333" font-weight="bold">4</text><polygon points="20,20 60,60 20,100" fill="#BB8FCE" stroke="white" stroke-width="2"/><text x="28" y="65" font-size="8" fill="white" font-weight="bold">5</text><polygon points="60,60 100,60 100,100 60,100" fill="#FFA07A" stroke="white" stroke-width="2"/><text x="80" y="85" font-size="8" fill="white" font-weight="bold">6</text><polygon points="100,60 140,60 120,100 80,100" fill="#AED6F1" stroke="white" stroke-width="2"/><text x="110" y="83" font-size="7" fill="#333" font-weight="bold">7</text><text x="100" y="220" text-anchor="middle" font-size="11" fill="#333">7 tangram pieces (5 triangles)</text>
</svg>