<svg viewBox="0 0 380 120" xmlns="http://www.w3.org/2000/svg" font-family="system-ui">
<rect x="30" y="20" width="18" height="18" fill="#FF6B6B" stroke="white" stroke-width="1.5"/><rect x="30" y="38" width="18" height="18" fill="#FF6B6B" stroke="white" stroke-width="1.5"/><rect x="30" y="56" width="18" height="18" fill="#FF6B6B" stroke="white" stroke-width="1.5"/><rect x="48" y="56" width="18" height="18" fill="#FF6B6B" stroke="white" stroke-width="1.5"/><text x="48" y="90" text-anchor="middle" font-size="9" fill="#333">0°</text><rect x="120" y="20" width="18" height="18" fill="#4ECDC4" stroke="white" stroke-width="1.5"/><rect x="138" y="20" width="18" height="18" fill="#4ECDC4" stroke="white" stroke-width="1.5"/><rect x="156" y="20" width="18" height="18" fill="#4ECDC4" stroke="white" stroke-width="1.5"/><rect x="120" y="38" width="18" height="18" fill="#4ECDC4" stroke="white" stroke-width="1.5"/><text x="138" y="90" text-anchor="middle" font-size="9" fill="#333">90°</text><rect x="210" y="20" width="18" height="18" fill="#45B7D1" stroke="white" stroke-width="1.5"/><rect x="228" y="20" width="18" height="18" fill="#45B7D1" stroke="white" stroke-width="1.5"/><rect x="228" y="38" width="18" height="18" fill="#45B7D1" stroke="white" stroke-width="1.5"/><rect x="228" y="56" width="18" height="18" fill="#45B7D1" stroke="white" stroke-width="1.5"/><text x="228" y="90" text-anchor="middle" font-size="9" fill="#333">180°</text><rect x="336" y="20" width="18" height="18" fill="#FFA07A" stroke="white" stroke-width="1.5"/><rect x="300" y="38" width="18" height="18" fill="#FFA07A" stroke="white" stroke-width="1.5"/><rect x="318" y="38" width="18" height="18" fill="#FFA07A" stroke="white" stroke-width="1.5"/><rect x="336" y="38" width="18" height="18" fill="#FFA07A" stroke="white" stroke-width="1.5"/><text x="318" y="90" text-anchor="middle" font-size="9" fill="#333">270°</text><text x="190" y="110" text-anchor="middle" font-size="10" fill="#666">L-shaped tetromino rotations</text>
</svg>