<svg viewBox="0 0 320 160" xmlns="http://www.w3.org/2000/svg" font-family="system-ui">
<rect x="15" y="20" width="20" height="20" fill="#FF6B6B" stroke="white" stroke-width="1"/><rect x="35" y="20" width="20" height="20" fill="#FF6B6B" stroke="white" stroke-width="1"/><rect x="55" y="20" width="20" height="20" fill="#FF6B6B" stroke="white" stroke-width="1"/><rect x="15" y="40" width="20" height="20" fill="#FF6B6B" stroke="white" stroke-width="1"/><rect x="35" y="40" width="20" height="20" fill="#FF6B6B" stroke="white" stroke-width="1"/><rect x="55" y="40" width="20" height="20" fill="#FF6B6B" stroke="white" stroke-width="1"/><rect x="15" y="60" width="20" height="20" fill="#FF6B6B" stroke="white" stroke-width="1"/><rect x="35" y="60" width="20" height="20" fill="#FF6B6B" stroke="white" stroke-width="1"/><rect x="55" y="60" width="20" height="20" fill="#FF6B6B" stroke="white" stroke-width="1"/><text x="45" y="95" text-anchor="middle" font-size="9" fill="#333">Square</text><text x="45" y="110" text-anchor="middle" font-size="14" fill="#27AE60" font-weight="bold">✓</text><circle cx="108" cy="35" r="12" fill="#4ECDC4" stroke="white" stroke-width="1"/><circle cx="133" cy="35" r="12" fill="#4ECDC4" stroke="white" stroke-width="1"/><circle cx="108" cy="60" r="12" fill="#4ECDC4" stroke="white" stroke-width="1"/><circle cx="133" cy="60" r="12" fill="#4ECDC4" stroke="white" stroke-width="1"/><text x="120" y="50" text-anchor="middle" font-size="8" fill="white">gaps!</text><text x="123" y="95" text-anchor="middle" font-size="9" fill="#333">Circle</text><text x="123" y="110" text-anchor="middle" font-size="14" fill="#E74C3C" font-weight="bold">✗</text><polygon points="171,38 181,20 191,38" fill="#45B7D1" stroke="white" stroke-width="1"/><polygon points="191,20 201,38 211,20" fill="#FFA07A" stroke="white" stroke-width="1"/><polygon points="211,38 221,20 231,38" fill="#45B7D1" stroke="white" stroke-width="1"/><polygon points="181,38 191,56 201,38" fill="#FFA07A" stroke="white" stroke-width="1"/><polygon points="201,56 211,38 221,56" fill="#45B7D1" stroke="white" stroke-width="1"/><polygon points="221,38 231,56 241,38" fill="#FFA07A" stroke="white" stroke-width="1"/><polygon points="171,74 181,56 191,74" fill="#45B7D1" stroke="white" stroke-width="1"/><polygon points="191,56 201,74 211,56" fill="#FFA07A" stroke="white" stroke-width="1"/><polygon points="211,74 221,56 231,74" fill="#45B7D1" stroke="white" stroke-width="1"/><text x="201" y="95" text-anchor="middle" font-size="9" fill="#333">Triangle</text><text x="201" y="110" text-anchor="middle" font-size="14" fill="#27AE60" font-weight="bold">✓</text><polygon points="261,27 271,34 267,45 255,45 251,34" fill="#98D8C8" stroke="white" stroke-width="1"/><polygon points="286,27 296,34 292,45 280,45 276,34" fill="#98D8C8" stroke="white" stroke-width="1"/><polygon points="261,52 271,59 267,70 255,70 251,59" fill="#98D8C8" stroke="white" stroke-width="1"/><polygon points="286,52 296,59 292,70 280,70 276,59" fill="#98D8C8" stroke="white" stroke-width="1"/><text x="274" y="50" text-anchor="middle" font-size="7" fill="white">gaps!</text><text x="279" y="95" text-anchor="middle" font-size="9" fill="#333">Pentagon</text><text x="279" y="110" text-anchor="middle" font-size="14" fill="#E74C3C" font-weight="bold">✗</text><text x="160" y="145" text-anchor="middle" font-size="10" fill="#666">Which tiles with no gaps?</text>
</svg>