<svg viewBox="0 0 390 120" xmlns="http://www.w3.org/2000/svg" font-family="system-ui">
<rect x="40" y="15" width="50" height="60" rx="8" fill="#FF6B6B" stroke="white" stroke-width="1.5"/><text x="65" y="55" text-anchor="middle" font-size="30" fill="white" font-weight="bold">L</text><line x1="65" y1="12" x2="65" y2="78" stroke="white" stroke-width="0.8" stroke-dasharray="3 2" opacity="0.5"/><text x="65" y="95" text-anchor="middle" font-size="12" fill="#333" font-weight="bold">A</text><rect x="110" y="15" width="50" height="60" rx="8" fill="#4ECDC4" stroke="white" stroke-width="1.5"/><text x="135" y="55" text-anchor="middle" font-size="30" fill="white" font-weight="bold">P</text><line x1="135" y1="12" x2="135" y2="78" stroke="white" stroke-width="0.8" stroke-dasharray="3 2" opacity="0.5"/><text x="135" y="95" text-anchor="middle" font-size="12" fill="#333" font-weight="bold">B</text><rect x="180" y="15" width="50" height="60" rx="8" fill="#45B7D1" stroke="white" stroke-width="1.5"/><text x="205" y="55" text-anchor="middle" font-size="30" fill="white" font-weight="bold">H</text><line x1="205" y1="12" x2="205" y2="78" stroke="white" stroke-width="0.8" stroke-dasharray="3 2" opacity="0.5"/><text x="205" y="95" text-anchor="middle" font-size="12" fill="#333" font-weight="bold">C</text><rect x="250" y="15" width="50" height="60" rx="8" fill="#FFA07A" stroke="white" stroke-width="1.5"/><text x="275" y="55" text-anchor="middle" font-size="30" fill="white" font-weight="bold">J</text><line x1="275" y1="12" x2="275" y2="78" stroke="white" stroke-width="0.8" stroke-dasharray="3 2" opacity="0.5"/><text x="275" y="95" text-anchor="middle" font-size="12" fill="#333" font-weight="bold">D</text><rect x="320" y="15" width="50" height="60" rx="8" fill="#98D8C8" stroke="white" stroke-width="1.5"/><text x="345" y="55" text-anchor="middle" font-size="30" fill="white" font-weight="bold">F</text><line x1="345" y1="12" x2="345" y2="78" stroke="white" stroke-width="0.8" stroke-dasharray="3 2" opacity="0.5"/><text x="345" y="95" text-anchor="middle" font-size="12" fill="#333" font-weight="bold">E</text><text x="195" y="115" text-anchor="middle" font-size="9" fill="#666">Which has symmetry?</text>
</svg>