<svg viewBox="0 0 400 180" xmlns="http://www.w3.org/2000/svg" font-family="system-ui">
<rect x="42" y="10" width="22" height="22" fill="#45B7D1" stroke="white" stroke-width="1.5"/><rect x="20" y="32" width="22" height="22" fill="#45B7D1" stroke="white" stroke-width="1.5"/><rect x="42" y="32" width="22" height="22" fill="#45B7D1" stroke="white" stroke-width="1.5"/><rect x="64" y="32" width="22" height="22" fill="#45B7D1" stroke="white" stroke-width="1.5"/><rect x="42" y="54" width="22" height="22" fill="#45B7D1" stroke="white" stroke-width="1.5"/><rect x="42" y="76" width="22" height="22" fill="#45B7D1" stroke="white" stroke-width="1.5"/><text x="53.0" y="113" text-anchor="middle" font-size="10" fill="#333" font-weight="bold">A</text><rect x="110" y="10" width="22" height="22" fill="#FF6B6B" stroke="white" stroke-width="1.5"/><rect x="132" y="10" width="22" height="22" fill="#FF6B6B" stroke="white" stroke-width="1.5"/><rect x="154" y="10" width="22" height="22" fill="#FF6B6B" stroke="white" stroke-width="1.5"/><rect x="110" y="32" width="22" height="22" fill="#FF6B6B" stroke="white" stroke-width="1.5"/><rect x="110" y="54" width="22" height="22" fill="#FF6B6B" stroke="white" stroke-width="1.5"/><rect x="110" y="76" width="22" height="22" fill="#FF6B6B" stroke="white" stroke-width="1.5"/><text x="132" y="113" text-anchor="middle" font-size="10" fill="#333" font-weight="bold">B</text><rect x="200" y="10" width="22" height="22" fill="#82E0AA" stroke="white" stroke-width="1.5"/><rect x="222" y="10" width="22" height="22" fill="#82E0AA" stroke="white" stroke-width="1.5"/><rect x="244" y="10" width="22" height="22" fill="#82E0AA" stroke="white" stroke-width="1.5"/><rect x="266" y="10" width="22" height="22" fill="#82E0AA" stroke="white" stroke-width="1.5"/><rect x="222" y="32" width="22" height="22" fill="#82E0AA" stroke="white" stroke-width="1.5"/><rect x="222" y="54" width="22" height="22" fill="#82E0AA" stroke="white" stroke-width="1.5"/><text x="244" y="91" text-anchor="middle" font-size="10" fill="#333" font-weight="bold">C</text><rect x="300" y="50" width="18" height="18" fill="#F7DC6F" stroke="white" stroke-width="1.5"/><rect x="318" y="50" width="18" height="18" fill="#F7DC6F" stroke="white" stroke-width="1.5"/><rect x="336" y="50" width="18" height="18" fill="#F7DC6F" stroke="white" stroke-width="1.5"/><rect x="354" y="50" width="18" height="18" fill="#F7DC6F" stroke="white" stroke-width="1.5"/><rect x="372" y="50" width="18" height="18" fill="#F7DC6F" stroke="white" stroke-width="1.5"/><rect x="390" y="50" width="18" height="18" fill="#F7DC6F" stroke="white" stroke-width="1.5"/><text x="344" y="90" text-anchor="middle" font-size="10" fill="#333" font-weight="bold">D</text><text x="200" y="170" text-anchor="middle" font-size="10" fill="#666">Which net folds into a cube?</text>
</svg>