<svg viewBox="0 0 240 250" xmlns="http://www.w3.org/2000/svg" font-family="system-ui">
<rect x="20" y="15" width="25" height="25" fill="#F7DC6F" stroke="#666" stroke-width="0.5"/><rect x="45" y="15" width="25" height="25" fill="#8B6914" stroke="#666" stroke-width="0.5"/><rect x="70" y="15" width="25" height="25" fill="#F7DC6F" stroke="#666" stroke-width="0.5"/><rect x="95" y="15" width="25" height="25" fill="#8B6914" stroke="#666" stroke-width="0.5"/><rect x="120" y="15" width="25" height="25" fill="#F7DC6F" stroke="#666" stroke-width="0.5"/><rect x="145" y="15" width="25" height="25" fill="#8B6914" stroke="#666" stroke-width="0.5"/><rect x="170" y="15" width="25" height="25" fill="#F7DC6F" stroke="#666" stroke-width="0.5"/><rect x="195" y="15" width="25" height="25" fill="#8B6914" stroke="#666" stroke-width="0.5"/><rect x="20" y="40" width="25" height="25" fill="#8B6914" stroke="#666" stroke-width="0.5"/><rect x="45" y="40" width="25" height="25" fill="#F7DC6F" stroke="#666" stroke-width="0.5"/><rect x="70" y="40" width="25" height="25" fill="#8B6914" stroke="#666" stroke-width="0.5"/><rect x="95" y="40" width="25" height="25" fill="#F7DC6F" stroke="#666" stroke-width="0.5"/><rect x="120" y="40" width="25" height="25" fill="#8B6914" stroke="#666" stroke-width="0.5"/><rect x="145" y="40" width="25" height="25" fill="#F7DC6F" stroke="#666" stroke-width="0.5"/><rect x="170" y="40" width="25" height="25" fill="#8B6914" stroke="#666" stroke-width="0.5"/><rect x="195" y="40" width="25" height="25" fill="#F7DC6F" stroke="#666" stroke-width="0.5"/><rect x="20" y="65" width="25" height="25" fill="#F7DC6F" stroke="#666" stroke-width="0.5"/><rect x="45" y="65" width="25" height="25" fill="#8B6914" stroke="#666" stroke-width="0.5"/><rect x="70" y="65" width="25" height="25" fill="#F7DC6F" stroke="#666" stroke-width="0.5"/><rect x="95" y="65" width="25" height="25" fill="#8B6914" stroke="#666" stroke-width="0.5"/><rect x="120" y="65" width="25" height="25" fill="#F7DC6F" stroke="#666" stroke-width="0.5"/><rect x="145" y="65" width="25" height="25" fill="#8B6914" stroke="#666" stroke-width="0.5"/><rect x="170" y="65" width="25" height="25" fill="#F7DC6F" stroke="#666" stroke-width="0.5"/><rect x="195" y="65" width="25" height="25" fill="#8B6914" stroke="#666" stroke-width="0.5"/><rect x="20" y="90" width="25" height="25" fill="#8B6914" stroke="#666" stroke-width="0.5"/><rect x="45" y="90" width="25" height="25" fill="#F7DC6F" stroke="#666" stroke-width="0.5"/><rect x="70" y="90" width="25" height="25" fill="#8B6914" stroke="#666" stroke-width="0.5"/><rect x="95" y="90" width="25" height="25" fill="#F7DC6F" stroke="#666" stroke-width="0.5"/><rect x="120" y="90" width="25" height="25" fill="#8B6914" stroke="#666" stroke-width="0.5"/><rect x="145" y="90" width="25" height="25" fill="#F7DC6F" stroke="#666" stroke-width="0.5"/><rect x="170" y="90" width="25" height="25" fill="#8B6914" stroke="#666" stroke-width="0.5"/><rect x="195" y="90" width="25" height="25" fill="#F7DC6F" stroke="#666" stroke-width="0.5"/><rect x="20" y="115" width="25" height="25" fill="#F7DC6F" stroke="#666" stroke-width="0.5"/><rect x="45" y="115" width="25" height="25" fill="#8B6914" stroke="#666" stroke-width="0.5"/><rect x="70" y="115" width="25" height="25" fill="#F7DC6F" stroke="#666" stroke-width="0.5"/><rect x="95" y="115" width="25" height="25" fill="#8B6914" stroke="#666" stroke-width="0.5"/><rect x="120" y="115" width="25" height="25" fill="#F7DC6F" stroke="#666" stroke-width="0.5"/><rect x="145" y="115" width="25" height="25" fill="#8B6914" stroke="#666" stroke-width="0.5"/><rect x="170" y="115" width="25" height="25" fill="#F7DC6F" stroke="#666" stroke-width="0.5"/><rect x="195" y="115" width="25" height="25" fill="#8B6914" stroke="#666" stroke-width="0.5"/><rect x="20" y="140" width="25" height="25" fill="#8B6914" stroke="#666" stroke-width="0.5"/><rect x="45" y="140" width="25" height="25" fill="#F7DC6F" stroke="#666" stroke-width="0.5"/><rect x="70" y="140" width="25" height="25" fill="#8B6914" stroke="#666" stroke-width="0.5"/><rect x="95" y="140" width="25" height="25" fill="#F7DC6F" stroke="#666" stroke-width="0.5"/><rect x="120" y="140" width="25" height="25" fill="#8B6914" stroke="#666" stroke-width="0.5"/><rect x="145" y="140" width="25" height="25" fill="#F7DC6F" stroke="#666" stroke-width="0.5"/><rect x="170" y="140" width="25" height="25" fill="#8B6914" stroke="#666" stroke-width="0.5"/><rect x="195" y="140" width="25" height="25" fill="#F7DC6F" stroke="#666" stroke-width="0.5"/><rect x="20" y="165" width="25" height="25" fill="#F7DC6F" stroke="#666" stroke-width="0.5"/><rect x="45" y="165" width="25" height="25" fill="#8B6914" stroke="#666" stroke-width="0.5"/><rect x="70" y="165" width="25" height="25" fill="#F7DC6F" stroke="#666" stroke-width="0.5"/><rect x="95" y="165" width="25" height="25" fill="#8B6914" stroke="#666" stroke-width="0.5"/><rect x="120" y="165" width="25" height="25" fill="#F7DC6F" stroke="#666" stroke-width="0.5"/><rect x="145" y="165" width="25" height="25" fill="#8B6914" stroke="#666" stroke-width="0.5"/><rect x="170" y="165" width="25" height="25" fill="#F7DC6F" stroke="#666" stroke-width="0.5"/><rect x="195" y="165" width="25" height="25" fill="#8B6914" stroke="#666" stroke-width="0.5"/><rect x="20" y="190" width="25" height="25" fill="#8B6914" stroke="#666" stroke-width="0.5"/><rect x="45" y="190" width="25" height="25" fill="#F7DC6F" stroke="#666" stroke-width="0.5"/><rect x="70" y="190" width="25" height="25" fill="#8B6914" stroke="#666" stroke-width="0.5"/><rect x="95" y="190" width="25" height="25" fill="#F7DC6F" stroke="#666" stroke-width="0.5"/><rect x="120" y="190" width="25" height="25" fill="#8B6914" stroke="#666" stroke-width="0.5"/><rect x="145" y="190" width="25" height="25" fill="#F7DC6F" stroke="#666" stroke-width="0.5"/><rect x="170" y="190" width="25" height="25" fill="#8B6914" stroke="#666" stroke-width="0.5"/><rect x="195" y="190" width="25" height="25" fill="#F7DC6F" stroke="#666" stroke-width="0.5"/><text x="120" y="245" text-anchor="middle" font-size="10" fill="#666">8x8 board</text>
</svg>