<svg viewBox="0 0 380 120" xmlns="http://www.w3.org/2000/svg" font-family="system-ui">
<circle cx="40" cy="45" r="25" fill="#FF6B6B" stroke="#666" stroke-width="1.5"/><text x="40" y="90" text-anchor="middle" font-size="9" fill="#333">Sphere</text><text x="40" y="100" text-anchor="middle" font-size="11" fill="#1565c0" font-weight="bold">A</text><rect x="112" y="28" width="36" height="36" fill="#4ECDC4" stroke="#666" stroke-width="1.5"/><polygon points="112,28 122,18 158,18 148,28" fill="#4ECDC4" stroke="#666" stroke-width="1" opacity="0.7"/><polygon points="148,28 158,18 158,54 148,64" fill="#4ECDC4" stroke="#666" stroke-width="1" opacity="0.5"/><text x="130" y="90" text-anchor="middle" font-size="9" fill="#333">Cube</text><text x="130" y="100" text-anchor="middle" font-size="11" fill="#1565c0" font-weight="bold">B</text><polygon points="220,18 198,65 242,65" fill="#45B7D1" stroke="#666" stroke-width="1.5"/><ellipse cx="220" cy="65" rx="22" ry="6" fill="#45B7D1" stroke="#666" stroke-width="1"/><text x="220" y="90" text-anchor="middle" font-size="9" fill="#333">Cone</text><text x="220" y="100" text-anchor="middle" font-size="11" fill="#1565c0" font-weight="bold">C</text><rect x="290" y="28" width="40" height="36" fill="#FFA07A" stroke="#FFA07A" stroke-width="0"/><ellipse cx="310" cy="28" rx="20" ry="8" fill="#FFA07A" stroke="#666" stroke-width="1.5"/><ellipse cx="310" cy="64" rx="20" ry="8" fill="#FFA07A" stroke="#666" stroke-width="1.5" opacity="0.8"/><line x1="290" y1="28" x2="290" y2="64" stroke="#666" stroke-width="1.5"/><line x1="330" y1="28" x2="330" y2="64" stroke="#666" stroke-width="1.5"/><text x="310" y="90" text-anchor="middle" font-size="9" fill="#333">Cylinder</text><text x="310" y="100" text-anchor="middle" font-size="11" fill="#1565c0" font-weight="bold">D</text>
</svg>