<svg viewBox="0 0 400 200" xmlns="http://www.w3.org/2000/svg" font-family="system-ui">
<rect x="15" y="10" width="14" height="14" fill="#FF6B6B" stroke="white" stroke-width="1"/><rect x="29" y="10" width="14" height="14" fill="#FF6B6B" stroke="white" stroke-width="1"/><rect x="43" y="10" width="14" height="14" fill="#FF6B6B" stroke="white" stroke-width="1"/><rect x="57" y="10" width="14" height="14" fill="#FF6B6B" stroke="white" stroke-width="1"/><rect x="71" y="10" width="14" height="14" fill="#FF6B6B" stroke="white" stroke-width="1"/><rect x="80" y="10" width="14" height="14" fill="#4ECDC4" stroke="white" stroke-width="1"/><rect x="94" y="10" width="14" height="14" fill="#4ECDC4" stroke="white" stroke-width="1"/><rect x="108" y="10" width="14" height="14" fill="#4ECDC4" stroke="white" stroke-width="1"/><rect x="108" y="24" width="14" height="14" fill="#4ECDC4" stroke="white" stroke-width="1"/><rect x="122" y="24" width="14" height="14" fill="#4ECDC4" stroke="white" stroke-width="1"/><rect x="145" y="10" width="14" height="14" fill="#45B7D1" stroke="white" stroke-width="1"/><rect x="159" y="10" width="14" height="14" fill="#45B7D1" stroke="white" stroke-width="1"/><rect x="159" y="24" width="14" height="14" fill="#45B7D1" stroke="white" stroke-width="1"/><rect x="173" y="24" width="14" height="14" fill="#45B7D1" stroke="white" stroke-width="1"/><rect x="173" y="38" width="14" height="14" fill="#45B7D1" stroke="white" stroke-width="1"/><rect x="210" y="10" width="14" height="14" fill="#FFA07A" stroke="white" stroke-width="1"/><rect x="210" y="24" width="14" height="14" fill="#FFA07A" stroke="white" stroke-width="1"/><rect x="224" y="24" width="14" height="14" fill="#FFA07A" stroke="white" stroke-width="1"/><rect x="238" y="24" width="14" height="14" fill="#FFA07A" stroke="white" stroke-width="1"/><rect x="238" y="10" width="14" height="14" fill="#FFA07A" stroke="white" stroke-width="1"/><rect x="275" y="10" width="14" height="14" fill="#98D8C8" stroke="white" stroke-width="1"/><rect x="289" y="10" width="14" height="14" fill="#98D8C8" stroke="white" stroke-width="1"/><rect x="303" y="10" width="14" height="14" fill="#98D8C8" stroke="white" stroke-width="1"/><rect x="289" y="24" width="14" height="14" fill="#98D8C8" stroke="white" stroke-width="1"/><rect x="289" y="38" width="14" height="14" fill="#98D8C8" stroke="white" stroke-width="1"/><rect x="340" y="10" width="14" height="14" fill="#F7DC6F" stroke="white" stroke-width="1"/><rect x="340" y="24" width="14" height="14" fill="#F7DC6F" stroke="white" stroke-width="1"/><rect x="340" y="38" width="14" height="14" fill="#F7DC6F" stroke="white" stroke-width="1"/><rect x="354" y="38" width="14" height="14" fill="#F7DC6F" stroke="white" stroke-width="1"/><rect x="368" y="38" width="14" height="14" fill="#F7DC6F" stroke="white" stroke-width="1"/><rect x="15" y="80" width="14" height="14" fill="#BB8FCE" stroke="white" stroke-width="1"/><rect x="29" y="80" width="14" height="14" fill="#BB8FCE" stroke="white" stroke-width="1"/><rect x="43" y="80" width="14" height="14" fill="#BB8FCE" stroke="white" stroke-width="1"/><rect x="15" y="94" width="14" height="14" fill="#BB8FCE" stroke="white" stroke-width="1"/><rect x="15" y="108" width="14" height="14" fill="#BB8FCE" stroke="white" stroke-width="1"/><rect x="80" y="80" width="14" height="14" fill="#85C1E9" stroke="white" stroke-width="1"/><rect x="94" y="80" width="14" height="14" fill="#85C1E9" stroke="white" stroke-width="1"/><rect x="94" y="94" width="14" height="14" fill="#85C1E9" stroke="white" stroke-width="1"/><rect x="108" y="94" width="14" height="14" fill="#85C1E9" stroke="white" stroke-width="1"/><rect x="108" y="108" width="14" height="14" fill="#85C1E9" stroke="white" stroke-width="1"/><rect x="159" y="80" width="14" height="14" fill="#F0B27A" stroke="white" stroke-width="1"/><rect x="145" y="94" width="14" height="14" fill="#F0B27A" stroke="white" stroke-width="1"/><rect x="159" y="94" width="14" height="14" fill="#F0B27A" stroke="white" stroke-width="1"/><rect x="173" y="94" width="14" height="14" fill="#F0B27A" stroke="white" stroke-width="1"/><rect x="159" y="108" width="14" height="14" fill="#F0B27A" stroke="white" stroke-width="1"/><rect x="210" y="80" width="14" height="14" fill="#82E0AA" stroke="white" stroke-width="1"/><rect x="224" y="80" width="14" height="14" fill="#82E0AA" stroke="white" stroke-width="1"/><rect x="238" y="80" width="14" height="14" fill="#82E0AA" stroke="white" stroke-width="1"/><rect x="252" y="80" width="14" height="14" fill="#82E0AA" stroke="white" stroke-width="1"/><rect x="224" y="94" width="14" height="14" fill="#82E0AA" stroke="white" stroke-width="1"/><rect x="275" y="80" width="14" height="14" fill="#F1948A" stroke="white" stroke-width="1"/><rect x="289" y="80" width="14" height="14" fill="#F1948A" stroke="white" stroke-width="1"/><rect x="303" y="80" width="14" height="14" fill="#F1948A" stroke="white" stroke-width="1"/><rect x="275" y="94" width="14" height="14" fill="#F1948A" stroke="white" stroke-width="1"/><rect x="289" y="94" width="14" height="14" fill="#F1948A" stroke="white" stroke-width="1"/><rect x="340" y="80" width="14" height="14" fill="#AED6F1" stroke="white" stroke-width="1"/><rect x="354" y="80" width="14" height="14" fill="#AED6F1" stroke="white" stroke-width="1"/><rect x="354" y="94" width="14" height="14" fill="#AED6F1" stroke="white" stroke-width="1"/><rect x="354" y="108" width="14" height="14" fill="#AED6F1" stroke="white" stroke-width="1"/><rect x="368" y="108" width="14" height="14" fill="#AED6F1" stroke="white" stroke-width="1"/><text x="200" y="185" text-anchor="middle" font-size="10" fill="#666">12 distinct pentominoes (5 squares each)</text>
</svg>