<svg viewBox="0 0 260 150" xmlns="http://www.w3.org/2000/svg">
  <rect width="260" height="150" fill="#E8F5E9" rx="8"/>
  <rect x="20" y="10" width="36" height="30" fill="white" stroke="#CCC" stroke-width="0.5"/>
  <rect x="58" y="10" width="36" height="30" fill="white" stroke="#CCC" stroke-width="0.5"/>
  <rect x="96" y="10" width="36" height="30" fill="white" stroke="#CCC" stroke-width="0.5"/>
  <rect x="134" y="10" width="36" height="30" fill="white" stroke="#CCC" stroke-width="0.5"/>
  <rect x="172" y="10" width="36" height="30" fill="white" stroke="#CCC" stroke-width="0.5"/>
  <rect x="210" y="10" width="36" height="30" fill="white" stroke="#CCC" stroke-width="0.5"/>
  <rect x="20" y="42" width="36" height="30" fill="white" stroke="#CCC" stroke-width="0.5"/>
  <rect x="58" y="42" width="36" height="30" fill="white" stroke="#CCC" stroke-width="0.5"/>
  <rect x="96" y="42" width="36" height="30" fill="white" stroke="#CCC" stroke-width="0.5"/>
  <rect x="134" y="42" width="36" height="30" fill="white" stroke="#CCC" stroke-width="0.5"/>
  <rect x="172" y="42" width="36" height="30" fill="white" stroke="#CCC" stroke-width="0.5"/>
  <rect x="210" y="42" width="36" height="30" fill="white" stroke="#CCC" stroke-width="0.5"/>
  <rect x="20" y="74" width="36" height="30" fill="white" stroke="#CCC" stroke-width="0.5"/>
  <rect x="58" y="74" width="36" height="30" fill="white" stroke="#CCC" stroke-width="0.5"/>
  <rect x="96" y="74" width="36" height="30" fill="white" stroke="#CCC" stroke-width="0.5"/>
  <rect x="134" y="74" width="36" height="30" fill="white" stroke="#CCC" stroke-width="0.5"/>
  <rect x="172" y="74" width="36" height="30" fill="white" stroke="#CCC" stroke-width="0.5"/>
  <rect x="210" y="74" width="36" height="30" fill="white" stroke="#CCC" stroke-width="0.5"/>
  <rect x="20" y="106" width="36" height="30" fill="white" stroke="#CCC" stroke-width="0.5"/>
  <rect x="58" y="106" width="36" height="30" fill="white" stroke="#CCC" stroke-width="0.5"/>
  <rect x="96" y="106" width="36" height="30" fill="white" stroke="#CCC" stroke-width="0.5"/>
  <rect x="134" y="106" width="36" height="30" fill="white" stroke="#CCC" stroke-width="0.5"/>
  <rect x="172" y="106" width="36" height="30" fill="white" stroke="#CCC" stroke-width="0.5"/>
  <rect x="210" y="106" width="36" height="30" fill="white" stroke="#CCC" stroke-width="0.5"/>
  <circle cx="39" cy="75" r="8" fill="#FF6B6B"/>
  <text x="39" y="79" font-size="7" fill="white" text-anchor="middle">S</text>
  <circle cx="153" cy="42" r="8" fill="#4ECDC4"/>
  <text x="153" y="46" font-size="7" fill="white" text-anchor="middle">E</text>
</svg>