<svg viewBox="0 0 260 150" xmlns="http://www.w3.org/2000/svg">
  <rect width="260" height="150" fill="#FBE9E7" rx="8"/>
  <rect x="10" y="20" width="55" height="110" fill="none" stroke="#BF360C" stroke-width="1" stroke-dasharray="3" rx="5"/>
  <circle cx="22" cy="40" r="8" fill="#4ECDC4" stroke="#333" stroke-width="1"/>
  <circle cx="42" cy="40" r="8" fill="#4ECDC4" stroke="#333" stroke-width="1"/>
  <circle cx="22" cy="62" r="8" fill="#4ECDC4" stroke="#333" stroke-width="1"/>
  <circle cx="42" cy="62" r="8" fill="#4ECDC4" stroke="#333" stroke-width="1"/>
  <circle cx="22" cy="84" r="8" fill="#4ECDC4" stroke="#333" stroke-width="1"/>
  <rect x="70" y="20" width="55" height="110" fill="none" stroke="#BF360C" stroke-width="1" stroke-dasharray="3" rx="5"/>
  <circle cx="82" cy="40" r="8" fill="#4ECDC4" stroke="#333" stroke-width="1"/>
  <circle cx="102" cy="40" r="8" fill="#4ECDC4" stroke="#333" stroke-width="1"/>
  <circle cx="82" cy="62" r="8" fill="#4ECDC4" stroke="#333" stroke-width="1"/>
  <circle cx="102" cy="62" r="8" fill="#4ECDC4" stroke="#333" stroke-width="1"/>
  <circle cx="82" cy="84" r="8" fill="#4ECDC4" stroke="#333" stroke-width="1"/>
  <rect x="130" y="20" width="55" height="110" fill="none" stroke="#BF360C" stroke-width="1" stroke-dasharray="3" rx="5"/>
  <circle cx="142" cy="40" r="8" fill="#4ECDC4" stroke="#333" stroke-width="1"/>
  <circle cx="162" cy="40" r="8" fill="#4ECDC4" stroke="#333" stroke-width="1"/>
  <circle cx="142" cy="62" r="8" fill="#4ECDC4" stroke="#333" stroke-width="1"/>
  <circle cx="162" cy="62" r="8" fill="#4ECDC4" stroke="#333" stroke-width="1"/>
  <circle cx="142" cy="84" r="8" fill="#4ECDC4" stroke="#333" stroke-width="1"/>
  <rect x="190" y="20" width="55" height="110" fill="none" stroke="#BF360C" stroke-width="1" stroke-dasharray="3" rx="5"/>
  <circle cx="202" cy="40" r="8" fill="#4ECDC4" stroke="#333" stroke-width="1"/>
  <circle cx="222" cy="40" r="8" fill="#4ECDC4" stroke="#333" stroke-width="1"/>
  <circle cx="202" cy="62" r="8" fill="#4ECDC4" stroke="#333" stroke-width="1"/>
  <circle cx="222" cy="62" r="8" fill="#4ECDC4" stroke="#333" stroke-width="1"/>
  <circle cx="202" cy="84" r="8" fill="#4ECDC4" stroke="#333" stroke-width="1"/>
</svg>