<svg viewBox="0 0 260 150" xmlns="http://www.w3.org/2000/svg">
  <rect width="260" height="150" fill="#FAFAFA" rx="8"/>
  <circle cx="130" cy="75" r="55" fill="white" stroke="#333" stroke-width="2.5"/>
  <line x1="130.0" y1="28.0" x2="130.0" y2="22.0" stroke="#333" stroke-width="2"/>
  <text x="130.0" y="40.0" font-size="9" fill="#333" text-anchor="middle">12</text>
  <line x1="153.5" y1="34.3" x2="156.5" y2="29.1" stroke="#333" stroke-width="2"/>
  <text x="149.5" y="45.2" font-size="9" fill="#333" text-anchor="middle">1</text>
  <line x1="170.7" y1="51.5" x2="175.9" y2="48.5" stroke="#333" stroke-width="2"/>
  <text x="163.8" y="59.5" font-size="9" fill="#333" text-anchor="middle">2</text>
  <line x1="177.0" y1="75.0" x2="183.0" y2="75.0" stroke="#333" stroke-width="2"/>
  <text x="169.0" y="79.0" font-size="9" fill="#333" text-anchor="middle">3</text>
  <line x1="170.7" y1="98.5" x2="175.9" y2="101.5" stroke="#333" stroke-width="2"/>
  <text x="163.8" y="98.5" font-size="9" fill="#333" text-anchor="middle">4</text>
  <line x1="153.5" y1="115.7" x2="156.5" y2="120.9" stroke="#333" stroke-width="2"/>
  <text x="149.5" y="112.8" font-size="9" fill="#333" text-anchor="middle">5</text>
  <line x1="130.0" y1="122.0" x2="130.0" y2="128.0" stroke="#333" stroke-width="2"/>
  <text x="130.0" y="118.0" font-size="9" fill="#333" text-anchor="middle">6</text>
  <line x1="106.5" y1="115.7" x2="103.5" y2="120.9" stroke="#333" stroke-width="2"/>
  <text x="110.5" y="112.8" font-size="9" fill="#333" text-anchor="middle">7</text>
  <line x1="89.3" y1="98.5" x2="84.1" y2="101.5" stroke="#333" stroke-width="2"/>
  <text x="96.2" y="98.5" font-size="9" fill="#333" text-anchor="middle">8</text>
  <line x1="83.0" y1="75.0" x2="77.0" y2="75.0" stroke="#333" stroke-width="2"/>
  <text x="91.0" y="79.0" font-size="9" fill="#333" text-anchor="middle">9</text>
  <line x1="89.3" y1="51.5" x2="84.1" y2="48.5" stroke="#333" stroke-width="2"/>
  <text x="96.2" y="59.5" font-size="9" fill="#333" text-anchor="middle">10</text>
  <line x1="106.5" y1="34.3" x2="103.5" y2="29.1" stroke="#333" stroke-width="2"/>
  <text x="110.5" y="45.2" font-size="9" fill="#333" text-anchor="middle">11</text>
  <line x1="130" y1="75" x2="158.0" y2="75.0" stroke="#333" stroke-width="3.5" stroke-linecap="round"/>
  <line x1="130" y1="75" x2="130.0" y2="35.0" stroke="#555" stroke-width="2" stroke-linecap="round"/>
  <circle cx="130" cy="75" r="3" fill="#333"/>
</svg>