<svg viewBox="0 0 200 120" xmlns="http://www.w3.org/2000/svg" font-family="Arial, sans-serif">
  <rect width="200" height="120" fill="#F0F8FF" rx="5"/>
  <circle cx="100" cy="60" r="45" fill="white" stroke="#333" stroke-width="2"/>
  <line x1="100.0" y1="22.0" x2="100.0" y2="18.0" stroke="#333" stroke-width="1.5"/>
  <text x="100.0" y="30.0" text-anchor="middle" font-size="7" fill="#333">12</text>
  <line x1="119.0" y1="27.1" x2="121.0" y2="23.6" stroke="#333" stroke-width="1.5"/>
  <text x="116.5" y="34.4" text-anchor="middle" font-size="7" fill="#333">1</text>
  <line x1="132.9" y1="41.0" x2="136.4" y2="39.0" stroke="#333" stroke-width="1.5"/>
  <text x="128.6" y="46.5" text-anchor="middle" font-size="7" fill="#333">2</text>
  <line x1="138.0" y1="60.0" x2="142.0" y2="60.0" stroke="#333" stroke-width="1.5"/>
  <text x="133.0" y="63.0" text-anchor="middle" font-size="7" fill="#333">3</text>
  <line x1="132.9" y1="79.0" x2="136.4" y2="81.0" stroke="#333" stroke-width="1.5"/>
  <text x="128.6" y="79.5" text-anchor="middle" font-size="7" fill="#333">4</text>
  <line x1="119.0" y1="92.9" x2="121.0" y2="96.4" stroke="#333" stroke-width="1.5"/>
  <text x="116.5" y="91.6" text-anchor="middle" font-size="7" fill="#333">5</text>
  <line x1="100.0" y1="98.0" x2="100.0" y2="102.0" stroke="#333" stroke-width="1.5"/>
  <text x="100.0" y="96.0" text-anchor="middle" font-size="7" fill="#333">6</text>
  <line x1="81.0" y1="92.9" x2="79.0" y2="96.4" stroke="#333" stroke-width="1.5"/>
  <text x="83.5" y="91.6" text-anchor="middle" font-size="7" fill="#333">7</text>
  <line x1="67.1" y1="79.0" x2="63.6" y2="81.0" stroke="#333" stroke-width="1.5"/>
  <text x="71.4" y="79.5" text-anchor="middle" font-size="7" fill="#333">8</text>
  <line x1="62.0" y1="60.0" x2="58.0" y2="60.0" stroke="#333" stroke-width="1.5"/>
  <text x="67.0" y="63.0" text-anchor="middle" font-size="7" fill="#333">9</text>
  <line x1="67.1" y1="41.0" x2="63.6" y2="39.0" stroke="#333" stroke-width="1.5"/>
  <text x="71.4" y="46.5" text-anchor="middle" font-size="7" fill="#333">10</text>
  <line x1="81.0" y1="27.1" x2="79.0" y2="23.6" stroke="#333" stroke-width="1.5"/>
  <text x="83.5" y="34.4" text-anchor="middle" font-size="7" fill="#333">11</text>
  <line x1="100" y1="60" x2="119.1" y2="71.0" stroke="#333" stroke-width="3" stroke-linecap="round"/>
  <line x1="100" y1="60" x2="100.0" y2="28.0" stroke="#FF6B6B" stroke-width="2" stroke-linecap="round"/>
  <circle cx="100" cy="60" r="3" fill="#333"/>
</svg>