<svg viewBox="0 0 200 120" xmlns="http://www.w3.org/2000/svg" font-family="Arial, sans-serif">
  <rect width="200" height="120" fill="#FFF8DC" rx="5"/>
  <rect x="20" y="50" width="160" height="20" fill="#FFEAA7" stroke="#333" stroke-width="0.5"/>
  <line x1="20" y1="50" x2="20" y2="35" stroke="#333" stroke-width="0.5"/>
  <text x="20" y="30" text-anchor="middle" font-size="6" fill="#333">0</text>
  <line x1="30" y1="50" x2="30" y2="42" stroke="#333" stroke-width="0.5"/>
  <line x1="40" y1="50" x2="40" y2="42" stroke="#333" stroke-width="0.5"/>
  <line x1="50" y1="50" x2="50" y2="42" stroke="#333" stroke-width="0.5"/>
  <line x1="60" y1="50" x2="60" y2="42" stroke="#333" stroke-width="0.5"/>
  <line x1="70" y1="50" x2="70" y2="35" stroke="#333" stroke-width="0.5"/>
  <text x="70" y="30" text-anchor="middle" font-size="6" fill="#333">5</text>
  <line x1="80" y1="50" x2="80" y2="42" stroke="#333" stroke-width="0.5"/>
  <line x1="90" y1="50" x2="90" y2="42" stroke="#333" stroke-width="0.5"/>
  <line x1="100" y1="50" x2="100" y2="42" stroke="#333" stroke-width="0.5"/>
  <line x1="110" y1="50" x2="110" y2="42" stroke="#333" stroke-width="0.5"/>
  <line x1="120" y1="50" x2="120" y2="35" stroke="#333" stroke-width="0.5"/>
  <text x="120" y="30" text-anchor="middle" font-size="6" fill="#333">10</text>
  <line x1="130" y1="50" x2="130" y2="42" stroke="#333" stroke-width="0.5"/>
  <line x1="140" y1="50" x2="140" y2="42" stroke="#333" stroke-width="0.5"/>
  <line x1="150" y1="50" x2="150" y2="42" stroke="#333" stroke-width="0.5"/>
  <line x1="160" y1="50" x2="160" y2="42" stroke="#333" stroke-width="0.5"/>
  <line x1="170" y1="50" x2="170" y2="35" stroke="#333" stroke-width="0.5"/>
  <text x="170" y="30" text-anchor="middle" font-size="6" fill="#333">15</text>
  <line x1="180" y1="50" x2="180" y2="42" stroke="#333" stroke-width="0.5"/>
  <text x="100" y="85" text-anchor="middle" font-size="8" fill="#333">cm ruler</text>
</svg>