<svg viewBox="0 0 260 150" xmlns="http://www.w3.org/2000/svg">
  <rect width="260" height="150" fill="#FFFDE7" rx="8"/>
  <rect x="20" y="50" width="220" height="30" fill="#FFF9C4" stroke="#333" stroke-width="1.5" rx="2"/>
  <line x1="20" y1="50" x2="20" y2="65" stroke="#333" stroke-width="1"/>
  <text x="20" y="95" font-size="8" fill="#333" text-anchor="middle">0</text>
  <line x1="38" y1="50" x2="38" y2="65" stroke="#333" stroke-width="1"/>
  <text x="38" y="95" font-size="8" fill="#333" text-anchor="middle">1</text>
  <line x1="56" y1="50" x2="56" y2="65" stroke="#333" stroke-width="1"/>
  <text x="56" y="95" font-size="8" fill="#333" text-anchor="middle">2</text>
  <line x1="74" y1="50" x2="74" y2="65" stroke="#333" stroke-width="1"/>
  <text x="74" y="95" font-size="8" fill="#333" text-anchor="middle">3</text>
  <line x1="92" y1="50" x2="92" y2="65" stroke="#333" stroke-width="1"/>
  <text x="92" y="95" font-size="8" fill="#333" text-anchor="middle">4</text>
  <line x1="110" y1="50" x2="110" y2="65" stroke="#333" stroke-width="1"/>
  <text x="110" y="95" font-size="8" fill="#333" text-anchor="middle">5</text>
  <line x1="128" y1="50" x2="128" y2="65" stroke="#333" stroke-width="1"/>
  <text x="128" y="95" font-size="8" fill="#333" text-anchor="middle">6</text>
  <line x1="146" y1="50" x2="146" y2="65" stroke="#333" stroke-width="1"/>
  <text x="146" y="95" font-size="8" fill="#333" text-anchor="middle">7</text>
  <line x1="164" y1="50" x2="164" y2="65" stroke="#333" stroke-width="1"/>
  <text x="164" y="95" font-size="8" fill="#333" text-anchor="middle">8</text>
  <line x1="182" y1="50" x2="182" y2="65" stroke="#333" stroke-width="1"/>
  <text x="182" y="95" font-size="8" fill="#333" text-anchor="middle">9</text>
  <line x1="200" y1="50" x2="200" y2="65" stroke="#333" stroke-width="1"/>
  <text x="200" y="95" font-size="8" fill="#333" text-anchor="middle">10</text>
  <line x1="218" y1="50" x2="218" y2="65" stroke="#333" stroke-width="1"/>
  <text x="218" y="95" font-size="8" fill="#333" text-anchor="middle">11</text>
</svg>