<svg viewBox="0 0 260 150" xmlns="http://www.w3.org/2000/svg">
  <rect width="260" height="150" fill="#E8F5E9" rx="8"/>
  <rect x="20" y="10" width="36" height="30" fill="white" stroke="#CCC" stroke-width="0.5"/>
  <rect x="58" y="10" width="36" height="30" fill="white" stroke="#CCC" stroke-width="0.5"/>
  <rect x="96" y="10" width="36" height="30" fill="white" stroke="#CCC" stroke-width="0.5"/>
  <rect x="134" y="10" width="36" height="30" fill="white" stroke="#CCC" stroke-width="0.5"/>
  <rect x="172" y="10" width="36" height="30" fill="white" stroke="#CCC" stroke-width="0.5"/>
  <rect x="210" y="10" width="36" height="30" fill="white" stroke="#CCC" stroke-width="0.5"/>
  <rect x="20" y="42" width="36" height="30" fill="white" stroke="#CCC" stroke-width="0.5"/>
  <rect x="58" y="42" width="36" height="30" fill="white" stroke="#CCC" stroke-width="0.5"/>
  <rect x="96" y="42" width="36" height="30" fill="white" stroke="#CCC" stroke-width="0.5"/>
  <rect x="134" y="42" width="36" height="30" fill="white" stroke="#CCC" stroke-width="0.5"/>
  <rect x="172" y="42" width="36" height="30" fill="white" stroke="#CCC" stroke-width="0.5"/>
  <rect x="210" y="42" width="36" height="30" fill="white" stroke="#CCC" stroke-width="0.5"/>
  <rect x="20" y="74" width="36" height="30" fill="white" stroke="#CCC" stroke-width="0.5"/>
  <rect x="58" y="74" width="36" height="30" fill="white" stroke="#CCC" stroke-width="0.5"/>
  <rect x="96" y="74" width="36" height="30" fill="white" stroke="#CCC" stroke-width="0.5"/>
  <rect x="134" y="74" width="36" height="30" fill="white" stroke="#CCC" stroke-width="0.5"/>
  <rect x="172" y="74" width="36" height="30" fill="white" stroke="#CCC" stroke-width="0.5"/>
  <rect x="210" y="74" width="36" height="30" fill="white" stroke="#CCC" stroke-width="0.5"/>
  <rect x="20" y="106" width="36" height="30" fill="white" stroke="#CCC" stroke-width="0.5"/>
  <rect x="58" y="106" width="36" height="30" fill="white" stroke="#CCC" stroke-width="0.5"/>
  <rect x="96" y="106" width="36" height="30" fill="white" stroke="#CCC" stroke-width="0.5"/>
  <rect x="134" y="106" width="36" height="30" fill="white" stroke="#CCC" stroke-width="0.5"/>
  <rect x="172" y="106" width="36" height="30" fill="white" stroke="#CCC" stroke-width="0.5"/>
  <rect x="210" y="106" width="36" height="30" fill="white" stroke="#CCC" stroke-width="0.5"/>
  <text x="130" y="140" font-size="9" fill="#666" text-anchor="middle">Grid Map</text>
</svg>