<svg viewBox="0 0 180 200" xmlns="http://www.w3.org/2000/svg" font-family="system-ui">
<circle cx="90" cy="90" r="70" fill="white" stroke="#333" stroke-width="3"/><line x1="90.0" y1="28.0" x2="90.0" y2="22.0" stroke="#333" stroke-width="2"/><text x="90.0" y="42.0" text-anchor="middle" font-size="11" fill="#333" font-weight="bold">12</text><line x1="121.0" y1="36.3" x2="124.0" y2="31.1" stroke="#333" stroke-width="2"/><text x="116.0" y="49.0" text-anchor="middle" font-size="11" fill="#333" font-weight="bold">1</text><line x1="143.7" y1="59.0" x2="148.9" y2="56.0" stroke="#333" stroke-width="2"/><text x="135.0" y="68.0" text-anchor="middle" font-size="11" fill="#333" font-weight="bold">2</text><line x1="152.0" y1="90.0" x2="158.0" y2="90.0" stroke="#333" stroke-width="2"/><text x="142.0" y="94.0" text-anchor="middle" font-size="11" fill="#333" font-weight="bold">3</text><line x1="143.7" y1="121.0" x2="148.9" y2="124.0" stroke="#333" stroke-width="2"/><text x="135.0" y="120.0" text-anchor="middle" font-size="11" fill="#333" font-weight="bold">4</text><line x1="121.0" y1="143.7" x2="124.0" y2="148.9" stroke="#333" stroke-width="2"/><text x="116.0" y="139.0" text-anchor="middle" font-size="11" fill="#333" font-weight="bold">5</text><line x1="90.0" y1="152.0" x2="90.0" y2="158.0" stroke="#333" stroke-width="2"/><text x="90.0" y="146.0" text-anchor="middle" font-size="11" fill="#333" font-weight="bold">6</text><line x1="59.0" y1="143.7" x2="56.0" y2="148.9" stroke="#333" stroke-width="2"/><text x="64.0" y="139.0" text-anchor="middle" font-size="11" fill="#333" font-weight="bold">7</text><line x1="36.3" y1="121.0" x2="31.1" y2="124.0" stroke="#333" stroke-width="2"/><text x="45.0" y="120.0" text-anchor="middle" font-size="11" fill="#333" font-weight="bold">8</text><line x1="28.0" y1="90.0" x2="22.0" y2="90.0" stroke="#333" stroke-width="2"/><text x="38.0" y="94.0" text-anchor="middle" font-size="11" fill="#333" font-weight="bold">9</text><line x1="36.3" y1="59.0" x2="31.1" y2="56.0" stroke="#333" stroke-width="2"/><text x="45.0" y="68.0" text-anchor="middle" font-size="11" fill="#333" font-weight="bold">10</text><line x1="59.0" y1="36.3" x2="56.0" y2="31.1" stroke="#333" stroke-width="2"/><text x="64.0" y="49.0" text-anchor="middle" font-size="11" fill="#333" font-weight="bold">11</text><line x1="90" y1="90" x2="125.0" y2="90.0" stroke="#333" stroke-width="4" stroke-linecap="round"/><line x1="90" y1="90" x2="90" y2="40" stroke="#666" stroke-width="2.5" stroke-linecap="round"/><circle cx="90" cy="90" r="4" fill="#333"/><text x="90" y="185" text-anchor="middle" font-size="10" fill="#666">3:00</text>
</svg>