<svg viewBox="0 0 846 110" xmlns="http://www.w3.org/2000/svg" font-family="system-ui">
<rect x="20" y="10" width="58" height="65" rx="8" fill="#FF6B6B" stroke="white" stroke-width="1.5"/><text x="49" y="45" text-anchor="middle" font-size="24">🐰</text><text x="49" y="62" text-anchor="middle" font-size="8" fill="white">rabbit</text><text x="49" y="90" text-anchor="middle" font-size="10" fill="#333">1</text><rect x="88" y="10" width="58" height="65" rx="8" fill="#4ECDC4" stroke="white" stroke-width="1.5"/><text x="117" y="45" text-anchor="middle" font-size="24">🐱</text><text x="117" y="62" text-anchor="middle" font-size="8" fill="white">cat</text><text x="117" y="90" text-anchor="middle" font-size="10" fill="#333">2</text><rect x="156" y="10" width="58" height="65" rx="8" fill="#45B7D1" stroke="white" stroke-width="1.5"/><text x="185" y="45" text-anchor="middle" font-size="24">🐦</text><text x="185" y="62" text-anchor="middle" font-size="8" fill="white">bird</text><text x="185" y="90" text-anchor="middle" font-size="10" fill="#333">3</text><rect x="224" y="10" width="58" height="65" rx="8" fill="#FFA07A" stroke="white" stroke-width="1.5"/><text x="253" y="45" text-anchor="middle" font-size="24">🐶</text><text x="253" y="62" text-anchor="middle" font-size="8" fill="white">dog</text><text x="253" y="90" text-anchor="middle" font-size="10" fill="#333">4</text><rect x="292" y="10" width="58" height="65" rx="8" fill="#98D8C8" stroke="white" stroke-width="1.5"/><text x="321" y="45" text-anchor="middle" font-size="24">🐟</text><text x="321" y="62" text-anchor="middle" font-size="8" fill="white">fish</text><text x="321" y="90" text-anchor="middle" font-size="10" fill="#333">5</text><rect x="360" y="10" width="58" height="65" rx="8" fill="#F7DC6F" stroke="white" stroke-width="1.5"/><text x="389" y="45" text-anchor="middle" font-size="24">🐰</text><text x="389" y="62" text-anchor="middle" font-size="8" fill="white">rabbit</text><text x="389" y="90" text-anchor="middle" font-size="10" fill="#333">6</text><rect x="428" y="10" width="58" height="65" rx="8" fill="#BB8FCE" stroke="white" stroke-width="1.5"/><text x="457" y="45" text-anchor="middle" font-size="24">🐟</text><text x="457" y="62" text-anchor="middle" font-size="8" fill="white">fish</text><text x="457" y="90" text-anchor="middle" font-size="10" fill="#333">7</text><rect x="496" y="10" width="58" height="65" rx="8" fill="#85C1E9" stroke="white" stroke-width="1.5"/><text x="525" y="45" text-anchor="middle" font-size="24">🐱</text><text x="525" y="62" text-anchor="middle" font-size="8" fill="white">cat</text><text x="525" y="90" text-anchor="middle" font-size="10" fill="#333">8</text><rect x="564" y="10" width="58" height="65" rx="8" fill="#F0B27A" stroke="white" stroke-width="1.5"/><text x="593" y="45" text-anchor="middle" font-size="24">🐦</text><text x="593" y="62" text-anchor="middle" font-size="8" fill="white">bird</text><text x="593" y="90" text-anchor="middle" font-size="10" fill="#333">9</text><rect x="632" y="10" width="58" height="65" rx="8" fill="#82E0AA" stroke="white" stroke-width="1.5"/><text x="661" y="45" text-anchor="middle" font-size="24">🐦</text><text x="661" y="62" text-anchor="middle" font-size="8" fill="white">bird</text><text x="661" y="90" text-anchor="middle" font-size="10" fill="#333">10</text><rect x="700" y="10" width="58" height="65" rx="8" fill="#F1948A" stroke="white" stroke-width="1.5"/><text x="729" y="45" text-anchor="middle" font-size="24">🐶</text><text x="729" y="62" text-anchor="middle" font-size="8" fill="white">dog</text><text x="729" y="90" text-anchor="middle" font-size="10" fill="#333">11</text><rect x="768" y="10" width="58" height="65" rx="8" fill="#AED6F1" stroke="white" stroke-width="1.5"/><text x="797" y="45" text-anchor="middle" font-size="24">🐱</text><text x="797" y="62" text-anchor="middle" font-size="8" fill="white">cat</text><text x="797" y="90" text-anchor="middle" font-size="10" fill="#333">12</text>
</svg>