<svg viewBox="0 0 160 180" xmlns="http://www.w3.org/2000/svg" font-family="system-ui">
<circle cx="80" cy="80" r="65" fill="#FAFAFA" stroke="#2C3E50" stroke-width="2.5"/>
<line x1="80.0" y1="25.0" x2="80.0" y2="18.0" stroke="#2C3E50" stroke-width="2"/>
<line x1="107.5" y1="32.4" x2="111.0" y2="26.3" stroke="#2C3E50" stroke-width="2"/>
<line x1="127.6" y1="52.5" x2="133.7" y2="49.0" stroke="#2C3E50" stroke-width="2"/>
<line x1="135.0" y1="80.0" x2="142.0" y2="80.0" stroke="#2C3E50" stroke-width="2"/>
<line x1="127.6" y1="107.5" x2="133.7" y2="111.0" stroke="#2C3E50" stroke-width="2"/>
<line x1="107.5" y1="127.6" x2="111.0" y2="133.7" stroke="#2C3E50" stroke-width="2"/>
<line x1="80.0" y1="135.0" x2="80.0" y2="142.0" stroke="#2C3E50" stroke-width="2"/>
<line x1="52.5" y1="127.6" x2="49.0" y2="133.7" stroke="#2C3E50" stroke-width="2"/>
<line x1="32.4" y1="107.5" x2="26.3" y2="111.0" stroke="#2C3E50" stroke-width="2"/>
<line x1="25.0" y1="80.0" x2="18.0" y2="80.0" stroke="#2C3E50" stroke-width="2"/>
<line x1="32.4" y1="52.5" x2="26.3" y2="49.0" stroke="#2C3E50" stroke-width="2"/>
<line x1="52.5" y1="32.4" x2="49.0" y2="26.3" stroke="#2C3E50" stroke-width="2"/>
<text x="103.5" y="43.3" text-anchor="middle" font-size="11" fill="#2C3E50" font-weight="bold">1</text>
<text x="120.7" y="60.5" text-anchor="middle" font-size="11" fill="#2C3E50" font-weight="bold">2</text>
<text x="127.0" y="84.0" text-anchor="middle" font-size="11" fill="#2C3E50" font-weight="bold">3</text>
<text x="120.7" y="107.5" text-anchor="middle" font-size="11" fill="#2C3E50" font-weight="bold">4</text>
<text x="103.5" y="124.7" text-anchor="middle" font-size="11" fill="#2C3E50" font-weight="bold">5</text>
<text x="80.0" y="131.0" text-anchor="middle" font-size="11" fill="#2C3E50" font-weight="bold">6</text>
<text x="56.5" y="124.7" text-anchor="middle" font-size="11" fill="#2C3E50" font-weight="bold">7</text>
<text x="39.3" y="107.5" text-anchor="middle" font-size="11" fill="#2C3E50" font-weight="bold">8</text>
<text x="33.0" y="84.0" text-anchor="middle" font-size="11" fill="#2C3E50" font-weight="bold">9</text>
<text x="39.3" y="60.5" text-anchor="middle" font-size="11" fill="#2C3E50" font-weight="bold">10</text>
<text x="56.5" y="43.3" text-anchor="middle" font-size="11" fill="#2C3E50" font-weight="bold">11</text>
<text x="80.0" y="37.0" text-anchor="middle" font-size="11" fill="#2C3E50" font-weight="bold">12</text>
<line x1="80" y1="80" x2="54.0" y2="65.0" stroke="#2C3E50" stroke-width="3.5" stroke-linecap="round"/>
<line x1="80" y1="80" x2="80" y2="25" stroke="#FF6B6B" stroke-width="2" stroke-linecap="round"/>
<circle cx="80" cy="80" r="4" fill="#2C3E50"/>
<text x="80" y="170" text-anchor="middle" font-size="12" fill="#333">10:00</text>
</svg>