<svg viewBox="0 0 340 115" xmlns="http://www.w3.org/2000/svg" font-family="system-ui">
<circle cx="50" cy="50" r="25" fill="#F1C40F" stroke="#F39C12" stroke-width="2"/>
<line x1="80" y1="50" x2="88" y2="50" stroke="#F39C12" stroke-width="2"/>
<line x1="71" y1="71" x2="77" y2="77" stroke="#F39C12" stroke-width="2"/>
<line x1="50" y1="80" x2="50" y2="88" stroke="#F39C12" stroke-width="2"/>
<line x1="29" y1="71" x2="23" y2="77" stroke="#F39C12" stroke-width="2"/>
<line x1="20" y1="50" x2="12" y2="50" stroke="#F39C12" stroke-width="2"/>
<line x1="29" y1="29" x2="23" y2="23" stroke="#F39C12" stroke-width="2"/>
<line x1="50" y1="20" x2="50" y2="12" stroke="#F39C12" stroke-width="2"/>
<line x1="71" y1="29" x2="77" y2="23" stroke="#F39C12" stroke-width="2"/>
<text x="50" y="100" text-anchor="middle" font-size="10" fill="#333">Sun</text>
<text x="170" y="45" text-anchor="middle" font-size="28" fill="#3498DB">🐦</text>
<text x="170" y="100" text-anchor="middle" font-size="10" fill="#333">Bird</text>
<rect x="275" y="55" width="10" height="40" fill="#8B4513"/>
<polygon points="280,20 255,60 305,60" fill="#2ECC71" stroke="#27AE60" stroke-width="1.5"/>
<text x="280" y="100" text-anchor="middle" font-size="10" fill="#333">Tree</text>
<line x1="130" y1="50" x2="220" y2="50" stroke="#FF6B6B" stroke-width="1.5" stroke-dasharray="4,3"/>
<polygon points="220,46 228,50 220,54" fill="#FF6B6B"/>
</svg>