<svg viewBox="0 0 800 110" xmlns="http://www.w3.org/2000/svg" font-family="system-ui">
<rect x="10" y="30" width="50" height="40" rx="6" fill="#555" stroke="#333" stroke-width="2"/><rect x="15" y="35" width="15" height="15" rx="2" fill="#AED6F1"/><circle cx="25" cy="78" r="8" fill="#333" stroke="#555" stroke-width="1.5"/><circle cx="45" cy="78" r="8" fill="#333" stroke="#555" stroke-width="1.5"/><rect x="70" y="30" width="65" height="40" rx="5" fill="#FF6B6B" stroke="#666" stroke-width="1.5"/><rect x="78" y="38" width="18" height="14" rx="2" fill="white" opacity="0.6"/><rect x="104" y="38" width="18" height="14" rx="2" fill="white" opacity="0.6"/><circle cx="88" cy="78" r="6" fill="#333"/><circle cx="117" cy="78" r="6" fill="#333"/><text x="102" y="90" text-anchor="middle" font-size="8" fill="#333">Red</text><rect x="150" y="30" width="65" height="40" rx="5" fill="#45B7D1" stroke="#666" stroke-width="1.5"/><rect x="158" y="38" width="18" height="14" rx="2" fill="white" opacity="0.6"/><rect x="184" y="38" width="18" height="14" rx="2" fill="white" opacity="0.6"/><circle cx="168" cy="78" r="6" fill="#333"/><circle cx="197" cy="78" r="6" fill="#333"/><text x="182" y="90" text-anchor="middle" font-size="8" fill="#333">Blue</text><rect x="230" y="30" width="65" height="40" rx="5" fill="#82E0AA" stroke="#666" stroke-width="1.5"/><rect x="238" y="38" width="18" height="14" rx="2" fill="white" opacity="0.6"/><rect x="264" y="38" width="18" height="14" rx="2" fill="white" opacity="0.6"/><circle cx="248" cy="78" r="6" fill="#333"/><circle cx="277" cy="78" r="6" fill="#333"/><text x="262" y="90" text-anchor="middle" font-size="8" fill="#333">Green</text><rect x="310" y="30" width="65" height="40" rx="5" fill="#F7DC6F" stroke="#666" stroke-width="1.5"/><rect x="318" y="38" width="18" height="14" rx="2" fill="white" opacity="0.6"/><rect x="344" y="38" width="18" height="14" rx="2" fill="white" opacity="0.6"/><circle cx="328" cy="78" r="6" fill="#333"/><circle cx="357" cy="78" r="6" fill="#333"/><text x="342" y="90" text-anchor="middle" font-size="8" fill="#333">Yellow</text><rect x="390" y="30" width="65" height="40" rx="5" fill="#82E0AA" stroke="#666" stroke-width="1.5"/><rect x="398" y="38" width="18" height="14" rx="2" fill="white" opacity="0.6"/><rect x="424" y="38" width="18" height="14" rx="2" fill="white" opacity="0.6"/><circle cx="408" cy="78" r="6" fill="#333"/><circle cx="437" cy="78" r="6" fill="#333"/><text x="422" y="90" text-anchor="middle" font-size="8" fill="#333">Green</text><rect x="470" y="30" width="65" height="40" rx="5" fill="#F7DC6F" stroke="#666" stroke-width="1.5"/><rect x="478" y="38" width="18" height="14" rx="2" fill="white" opacity="0.6"/><rect x="504" y="38" width="18" height="14" rx="2" fill="white" opacity="0.6"/><circle cx="488" cy="78" r="6" fill="#333"/><circle cx="517" cy="78" r="6" fill="#333"/><text x="502" y="90" text-anchor="middle" font-size="8" fill="#333">Yellow</text><rect x="550" y="30" width="65" height="40" rx="5" fill="#FF6B6B" stroke="#666" stroke-width="1.5"/><rect x="558" y="38" width="18" height="14" rx="2" fill="white" opacity="0.6"/><rect x="584" y="38" width="18" height="14" rx="2" fill="white" opacity="0.6"/><circle cx="568" cy="78" r="6" fill="#333"/><circle cx="597" cy="78" r="6" fill="#333"/><text x="582" y="90" text-anchor="middle" font-size="8" fill="#333">Red</text><rect x="630" y="30" width="65" height="40" rx="5" fill="#FF6B6B" stroke="#666" stroke-width="1.5"/><rect x="638" y="38" width="18" height="14" rx="2" fill="white" opacity="0.6"/><rect x="664" y="38" width="18" height="14" rx="2" fill="white" opacity="0.6"/><circle cx="648" cy="78" r="6" fill="#333"/><circle cx="677" cy="78" r="6" fill="#333"/><text x="662" y="90" text-anchor="middle" font-size="8" fill="#333">Red</text><rect x="710" y="30" width="65" height="40" rx="5" fill="#45B7D1" stroke="#666" stroke-width="1.5"/><rect x="718" y="38" width="18" height="14" rx="2" fill="white" opacity="0.6"/><rect x="744" y="38" width="18" height="14" rx="2" fill="white" opacity="0.6"/><circle cx="728" cy="78" r="6" fill="#333"/><circle cx="757" cy="78" r="6" fill="#333"/><text x="742" y="90" text-anchor="middle" font-size="8" fill="#333">Blue</text><line x1="0" y1="86" x2="800" y2="86" stroke="#8B6914" stroke-width="2"/>
</svg>