<svg viewBox="0 0 418 110" xmlns="http://www.w3.org/2000/svg" font-family="system-ui">
<rect x="0" y="50" width="418" height="40" fill="#AED6F1" opacity="0.3" rx="0"/><ellipse cx="30" cy="60" rx="16" ry="10" fill="#82E0AA" stroke="#27AE60" stroke-width="1.5"/><text x="30" y="64" text-anchor="middle" font-size="11" fill="#333" font-weight="bold">1</text><ellipse cx="72" cy="60" rx="16" ry="10" fill="#82E0AA" stroke="#27AE60" stroke-width="1.5"/><text x="72" y="64" text-anchor="middle" font-size="11" fill="#333" font-weight="bold">2</text><ellipse cx="114" cy="60" rx="16" ry="10" fill="#82E0AA" stroke="#27AE60" stroke-width="1.5"/><text x="114" y="64" text-anchor="middle" font-size="11" fill="#333" font-weight="bold">3</text><ellipse cx="156" cy="60" rx="16" ry="10" fill="#82E0AA" stroke="#27AE60" stroke-width="1.5"/><text x="156" y="64" text-anchor="middle" font-size="11" fill="#333" font-weight="bold">4</text><ellipse cx="198" cy="60" rx="16" ry="10" fill="#82E0AA" stroke="#27AE60" stroke-width="1.5"/><text x="198" y="64" text-anchor="middle" font-size="11" fill="#333" font-weight="bold">5</text><ellipse cx="240" cy="60" rx="16" ry="10" fill="#82E0AA" stroke="#27AE60" stroke-width="1.5"/><text x="240" y="64" text-anchor="middle" font-size="11" fill="#333" font-weight="bold">6</text><ellipse cx="282" cy="60" rx="16" ry="10" fill="#82E0AA" stroke="#27AE60" stroke-width="1.5"/><text x="282" y="64" text-anchor="middle" font-size="11" fill="#333" font-weight="bold">7</text><ellipse cx="324" cy="60" rx="16" ry="10" fill="#82E0AA" stroke="#27AE60" stroke-width="1.5"/><text x="324" y="64" text-anchor="middle" font-size="11" fill="#333" font-weight="bold">8</text><ellipse cx="366" cy="60" rx="16" ry="10" fill="#82E0AA" stroke="#27AE60" stroke-width="1.5"/><text x="366" y="64" text-anchor="middle" font-size="11" fill="#333" font-weight="bold">9</text><circle cx="30" cy="42" r="8" fill="#27AE60"/><circle cx="26" cy="39" r="2" fill="white"/><circle cx="34" cy="39" r="2" fill="white"/><circle cx="26" cy="39" r="1" fill="#333"/><circle cx="34" cy="39" r="1" fill="#333"/><path d="M45 35 Q70 10 87 35" fill="none" stroke="#FF6B6B" stroke-width="1.5" marker-end="url(#arr)"/><path d="M87 35 Q112 10 129 35" fill="none" stroke="#FF6B6B" stroke-width="1.5" marker-end="url(#arr)"/><defs><marker id="arr" viewBox="0 0 10 10" refX="8" refY="5" markerWidth="5" markerHeight="5" orient="auto"><path d="M0 0 L10 5 L0 10 Z" fill="#FF6B6B"/></marker></defs><text x="209" y="100" text-anchor="middle" font-size="10" fill="#666">Frog jumps on lily pads</text>
</svg>