<svg viewBox="0 0 300 180" xmlns="http://www.w3.org/2000/svg" font-family="system-ui">
<circle cx="90" cy="80" r="45" fill="#45B7D1" stroke="#666" stroke-width="1.5"/><circle cx="90" cy="80" r="14" fill="white" stroke="#666" stroke-width="1"/><line x1="135" y1="80" x2="143" y2="80" stroke="#666" stroke-width="4" stroke-linecap="round"/><line x1="129" y1="102" x2="136" y2="106" stroke="#666" stroke-width="4" stroke-linecap="round"/><line x1="112" y1="119" x2="116" y2="126" stroke="#666" stroke-width="4" stroke-linecap="round"/><line x1="90" y1="125" x2="90" y2="133" stroke="#666" stroke-width="4" stroke-linecap="round"/><line x1="68" y1="119" x2="64" y2="126" stroke="#666" stroke-width="4" stroke-linecap="round"/><line x1="51" y1="102" x2="44" y2="106" stroke="#666" stroke-width="4" stroke-linecap="round"/><line x1="45" y1="80" x2="37" y2="80" stroke="#666" stroke-width="4" stroke-linecap="round"/><line x1="51" y1="58" x2="44" y2="53" stroke="#666" stroke-width="4" stroke-linecap="round"/><line x1="67" y1="41" x2="63" y2="34" stroke="#666" stroke-width="4" stroke-linecap="round"/><line x1="90" y1="35" x2="90" y2="27" stroke="#666" stroke-width="4" stroke-linecap="round"/><line x1="112" y1="41" x2="116" y2="34" stroke="#666" stroke-width="4" stroke-linecap="round"/><line x1="129" y1="57" x2="136" y2="53" stroke="#666" stroke-width="4" stroke-linecap="round"/><circle cx="195" cy="80" r="25" fill="#FF6B6B" stroke="#666" stroke-width="1.5"/><circle cx="195" cy="80" r="8" fill="white" stroke="#666" stroke-width="1"/><line x1="220" y1="80" x2="228" y2="80" stroke="#666" stroke-width="4" stroke-linecap="round"/><line x1="195" y1="105" x2="195" y2="113" stroke="#666" stroke-width="4" stroke-linecap="round"/><line x1="170" y1="80" x2="162" y2="80" stroke="#666" stroke-width="4" stroke-linecap="round"/><line x1="195" y1="55" x2="195" y2="47" stroke="#666" stroke-width="4" stroke-linecap="round"/><text x="90" y="140" text-anchor="middle" font-size="10" fill="#333">12 teeth</text><text x="195" y="140" text-anchor="middle" font-size="10" fill="#333">4 teeth</text><text x="150" y="170" text-anchor="middle" font-size="10" fill="#666">Interlocking gears</text>
</svg>