<svg viewBox="0 0 380 140" xmlns="http://www.w3.org/2000/svg" font-family="system-ui">
<rect x="20" y="20" width="60" height="60" rx="10" fill="white" stroke="#333" stroke-width="2.5"/><circle cx="50" cy="50" r="5" fill="#333"/><text x="50" y="105" text-anchor="middle" font-size="9" fill="#666">Roll</text><rect x="110" y="30" width="28" height="28" rx="4" fill="#FF6B6B" stroke="white" stroke-width="1.5"/><text x="124" y="49" text-anchor="middle" font-size="11" fill="white" font-weight="bold">1</text><rect x="142" y="30" width="28" height="28" rx="4" fill="#4ECDC4" stroke="white" stroke-width="1.5"/><text x="156" y="49" text-anchor="middle" font-size="11" fill="white" font-weight="bold">2</text><rect x="174" y="30" width="28" height="28" rx="4" fill="#45B7D1" stroke="white" stroke-width="1.5"/><text x="188" y="49" text-anchor="middle" font-size="11" fill="white" font-weight="bold">3</text><rect x="206" y="30" width="28" height="28" rx="4" fill="#FFA07A" stroke="white" stroke-width="1.5"/><text x="220" y="49" text-anchor="middle" font-size="11" fill="white" font-weight="bold">4</text><rect x="238" y="30" width="28" height="28" rx="4" fill="#98D8C8" stroke="white" stroke-width="1.5"/><text x="252" y="49" text-anchor="middle" font-size="11" fill="white" font-weight="bold">5</text><rect x="270" y="30" width="28" height="28" rx="4" fill="#F7DC6F" stroke="white" stroke-width="1.5"/><text x="284" y="49" text-anchor="middle" font-size="11" fill="white" font-weight="bold">6</text><rect x="302" y="30" width="28" height="28" rx="4" fill="#BB8FCE" stroke="white" stroke-width="1.5"/><text x="316" y="49" text-anchor="middle" font-size="11" fill="white" font-weight="bold">7</text><rect x="334" y="30" width="28" height="28" rx="4" fill="#85C1E9" stroke="white" stroke-width="1.5"/><text x="348" y="49" text-anchor="middle" font-size="11" fill="white" font-weight="bold">8</text><circle cx="124" cy="70" r="6" fill="#E74C3C" stroke="white" stroke-width="1.5"/><text x="200" y="100" text-anchor="middle" font-size="10" fill="#666">Board game with dice</text>
</svg>