<svg viewBox="0 0 360 140" xmlns="http://www.w3.org/2000/svg" font-family="system-ui">
<circle cx="30" cy="35" r="13" fill="#FF6B6B" stroke="#666" stroke-width="1.5"/><rect x="30" y="31" width="32" height="8" rx="1" fill="#FF6B6B" stroke="#666" stroke-width="1"/><rect x="56" y="27" width="4" height="6" fill="#FF6B6B"/><rect x="17" y="75" width="26" height="26" rx="2" fill="#F7DC6F" stroke="#F39C12" stroke-width="1.5"/><path d="M24 75 Q24 59 30 59 Q36 59 36 75" fill="none" stroke="#F39C12" stroke-width="2"/><text x="30" y="120" text-anchor="middle" font-size="9" fill="#333">Big</text><circle cx="150" cy="35" r="10" fill="#4ECDC4" stroke="#666" stroke-width="1.5"/><rect x="150" y="32" width="25" height="6" rx="1" fill="#4ECDC4" stroke="#666" stroke-width="1"/><rect x="170" y="29" width="3" height="5" fill="#4ECDC4"/><rect x="140" y="75" width="20" height="20" rx="2" fill="#F7DC6F" stroke="#F39C12" stroke-width="1.5"/><path d="M145 75 Q145 63 150 63 Q155 63 155 75" fill="none" stroke="#F39C12" stroke-width="2"/><text x="150" y="120" text-anchor="middle" font-size="9" fill="#333">Medium</text><circle cx="270" cy="35" r="7" fill="#45B7D1" stroke="#666" stroke-width="1.5"/><rect x="270" y="33" width="18" height="4" rx="1" fill="#45B7D1" stroke="#666" stroke-width="1"/><rect x="284" y="31" width="2" height="4" fill="#45B7D1"/><rect x="263" y="75" width="14" height="14" rx="2" fill="#F7DC6F" stroke="#F39C12" stroke-width="1.5"/><path d="M266 75 Q266 67 270 67 Q274 67 274 75" fill="none" stroke="#F39C12" stroke-width="2"/><text x="270" y="120" text-anchor="middle" font-size="9" fill="#333">Small</text>
</svg>