<svg viewBox="0 0 380 160" xmlns="http://www.w3.org/2000/svg" font-family="system-ui">
<rect x="20" y="40" width="60" height="30" rx="4" fill="#DEB887" stroke="#8B6914" stroke-width="1.5"/><rect x="25" y="25" width="15" height="12" rx="3" fill="#FF6B6B" stroke="#666" stroke-width="1"/><rect x="60" y="25" width="15" height="12" rx="3" fill="#4ECDC4" stroke="#666" stroke-width="1"/><text x="32" y="20" text-anchor="middle" font-size="8" fill="#FF6B6B">B</text><text x="67" y="20" text-anchor="middle" font-size="8" fill="#4ECDC4">G</text><rect x="110" y="40" width="60" height="30" rx="4" fill="#DEB887" stroke="#8B6914" stroke-width="1.5"/><rect x="115" y="25" width="15" height="12" rx="3" fill="#45B7D1" stroke="#666" stroke-width="1"/><rect x="150" y="25" width="15" height="12" rx="3" fill="#FFA07A" stroke="#666" stroke-width="1"/><text x="122" y="20" text-anchor="middle" font-size="8" fill="#45B7D1">B</text><text x="157" y="20" text-anchor="middle" font-size="8" fill="#FFA07A">G</text><rect x="200" y="40" width="60" height="30" rx="4" fill="#DEB887" stroke="#8B6914" stroke-width="1.5"/><rect x="205" y="25" width="15" height="12" rx="3" fill="#98D8C8" stroke="#666" stroke-width="1"/><rect x="240" y="25" width="15" height="12" rx="3" fill="#F7DC6F" stroke="#666" stroke-width="1"/><text x="212" y="20" text-anchor="middle" font-size="8" fill="#98D8C8">B</text><text x="247" y="20" text-anchor="middle" font-size="8" fill="#F7DC6F">G</text><rect x="20" y="100" width="35" height="25" rx="4" fill="#DEB887" stroke="#8B6914" stroke-width="1"/><rect x="30" y="88" width="15" height="12" rx="3" fill="#85C1E9" stroke="#666" stroke-width="1"/><text x="37" y="85" text-anchor="middle" font-size="8" fill="#85C1E9">G</text><rect x="110" y="100" width="35" height="25" rx="4" fill="#DEB887" stroke="#8B6914" stroke-width="1"/><rect x="120" y="88" width="15" height="12" rx="3" fill="#F0B27A" stroke="#666" stroke-width="1"/><text x="127" y="85" text-anchor="middle" font-size="8" fill="#F0B27A">G</text><rect x="200" y="100" width="35" height="25" rx="4" fill="#DEB887" stroke="#8B6914" stroke-width="1"/><rect x="210" y="88" width="15" height="12" rx="3" fill="#82E0AA" stroke="#666" stroke-width="1"/><text x="217" y="85" text-anchor="middle" font-size="8" fill="#82E0AA">G</text><rect x="290" y="100" width="35" height="25" rx="4" fill="#DEB887" stroke="#8B6914" stroke-width="1"/><rect x="300" y="88" width="15" height="12" rx="3" fill="#F1948A" stroke="#666" stroke-width="1"/><text x="307" y="85" text-anchor="middle" font-size="8" fill="#F1948A">G</text><text x="50" y="85" font-size="9" fill="#666">Paired tables</text><text x="60" y="145" font-size="9" fill="#666">Girls sitting alone</text>
</svg>