<svg viewBox="0 0 180 230" xmlns="http://www.w3.org/2000/svg" font-family="system-ui">
<rect x="30" y="185" width="120" height="40" fill="#FF6B6B" stroke="#666" stroke-width="1.5"/><text x="90" y="210" text-anchor="middle" font-size="12" fill="white" font-weight="bold">Floor 1</text><rect x="60" y="193" width="15" height="20" rx="2" fill="white" opacity="0.4"/><rect x="105" y="193" width="15" height="20" rx="2" fill="white" opacity="0.4"/><rect x="30" y="140" width="120" height="40" fill="#4ECDC4" stroke="#666" stroke-width="1.5"/><text x="90" y="165" text-anchor="middle" font-size="12" fill="white" font-weight="bold">Floor 2</text><rect x="60" y="148" width="15" height="20" rx="2" fill="white" opacity="0.4"/><rect x="105" y="148" width="15" height="20" rx="2" fill="white" opacity="0.4"/><rect x="30" y="95" width="120" height="40" fill="#45B7D1" stroke="#666" stroke-width="1.5"/><text x="90" y="120" text-anchor="middle" font-size="12" fill="white" font-weight="bold">Floor 3</text><rect x="60" y="103" width="15" height="20" rx="2" fill="white" opacity="0.4"/><rect x="105" y="103" width="15" height="20" rx="2" fill="white" opacity="0.4"/><rect x="30" y="50" width="120" height="40" fill="#FFA07A" stroke="#666" stroke-width="1.5"/><text x="90" y="75" text-anchor="middle" font-size="12" fill="white" font-weight="bold">Floor 4</text><rect x="60" y="58" width="15" height="20" rx="2" fill="white" opacity="0.4"/><rect x="105" y="58" width="15" height="20" rx="2" fill="white" opacity="0.4"/><polygon points="25,45 90,5 155,45" fill="#E74C3C" stroke="#666" stroke-width="1.5"/>
</svg>