<svg viewBox="0 0 400 140" xmlns="http://www.w3.org/2000/svg" font-family="system-ui">
<circle cx="60" cy="40" r="16" fill="#FDEBD0" stroke="#DEB887" stroke-width="1.5"/><circle cx="55" cy="37" r="2" fill="#333"/><circle cx="65" cy="37" r="2" fill="#333"/><path d="M57 45 Q60 48 63 45" fill="none" stroke="#333" stroke-width="1"/><rect x="48" y="56" width="24" height="30" rx="4" fill="#FF6B6B"/><rect x="46" y="22" width="28" height="8" rx="3" fill="#E74C3C"/><rect x="52" y="14" width="16" height="12" rx="2" fill="#E74C3C"/><rect x="46" y="52" width="28" height="6" rx="2" fill="#3498DB"/><rect x="70" y="52" width="6" height="15" rx="2" fill="#3498DB"/><text x="60" y="105" text-anchor="middle" font-size="8" fill="#666">HS</text><text x="60" y="115" text-anchor="middle" font-size="9" fill="#333" font-weight="bold">A</text><circle cx="150" cy="40" r="16" fill="#FDEBD0" stroke="#DEB887" stroke-width="1.5"/><circle cx="145" cy="37" r="2" fill="#333"/><circle cx="155" cy="37" r="2" fill="#333"/><path d="M147 45 Q150 48 153 45" fill="none" stroke="#333" stroke-width="1"/><rect x="138" y="56" width="24" height="30" rx="4" fill="#4ECDC4"/><rect x="136" y="22" width="28" height="8" rx="3" fill="#E74C3C"/><rect x="142" y="14" width="16" height="12" rx="2" fill="#E74C3C"/><circle cx="145" cy="37" r="5" fill="none" stroke="#333" stroke-width="1.5"/><circle cx="155" cy="37" r="5" fill="none" stroke="#333" stroke-width="1.5"/><line x1="150" y1="37" x2="150" y2="37" stroke="#333" stroke-width="1.5"/><text x="150" y="105" text-anchor="middle" font-size="8" fill="#666">HG</text><text x="150" y="115" text-anchor="middle" font-size="9" fill="#333" font-weight="bold">B</text><circle cx="240" cy="40" r="16" fill="#FDEBD0" stroke="#DEB887" stroke-width="1.5"/><circle cx="235" cy="37" r="2" fill="#333"/><circle cx="245" cy="37" r="2" fill="#333"/><path d="M237 45 Q240 48 243 45" fill="none" stroke="#333" stroke-width="1"/><rect x="228" y="56" width="24" height="30" rx="4" fill="#45B7D1"/><circle cx="235" cy="37" r="5" fill="none" stroke="#333" stroke-width="1.5"/><circle cx="245" cy="37" r="5" fill="none" stroke="#333" stroke-width="1.5"/><line x1="240" y1="37" x2="240" y2="37" stroke="#333" stroke-width="1.5"/><rect x="226" y="52" width="28" height="6" rx="2" fill="#3498DB"/><rect x="250" y="52" width="6" height="15" rx="2" fill="#3498DB"/><text x="240" y="105" text-anchor="middle" font-size="8" fill="#666">GS</text><text x="240" y="115" text-anchor="middle" font-size="9" fill="#333" font-weight="bold">C</text><circle cx="330" cy="40" r="16" fill="#FDEBD0" stroke="#DEB887" stroke-width="1.5"/><circle cx="325" cy="37" r="2" fill="#333"/><circle cx="335" cy="37" r="2" fill="#333"/><path d="M327 45 Q330 48 333 45" fill="none" stroke="#333" stroke-width="1"/><rect x="318" y="56" width="24" height="30" rx="4" fill="#FFA07A"/><rect x="316" y="22" width="28" height="8" rx="3" fill="#E74C3C"/><rect x="322" y="14" width="16" height="12" rx="2" fill="#E74C3C"/><circle cx="325" cy="37" r="5" fill="none" stroke="#333" stroke-width="1.5"/><circle cx="335" cy="37" r="5" fill="none" stroke="#333" stroke-width="1.5"/><line x1="330" y1="37" x2="330" y2="37" stroke="#333" stroke-width="1.5"/><rect x="316" y="52" width="28" height="6" rx="2" fill="#3498DB"/><rect x="340" y="52" width="6" height="15" rx="2" fill="#3498DB"/><text x="330" y="105" text-anchor="middle" font-size="8" fill="#666">HGS</text><text x="330" y="115" text-anchor="middle" font-size="9" fill="#333" font-weight="bold">D</text><text x="200" y="135" text-anchor="middle" font-size="8" fill="#999">H=Hat  G=Glasses  S=Scarf</text>
</svg>