<svg viewBox="0 0 220 220" xmlns="http://www.w3.org/2000/svg" font-family="system-ui">
<rect x="20" y="15" width="40" height="40" fill="white" stroke="#45B7D1" stroke-width="1.5"/><rect x="60" y="15" width="40" height="40" fill="white" stroke="#45B7D1" stroke-width="1.5"/><rect x="100" y="15" width="40" height="40" fill="white" stroke="#45B7D1" stroke-width="1.5"/><rect x="140" y="15" width="40" height="40" fill="white" stroke="#45B7D1" stroke-width="1.5"/><rect x="20" y="55" width="40" height="40" fill="white" stroke="#45B7D1" stroke-width="1.5"/><rect x="60" y="55" width="40" height="40" fill="white" stroke="#45B7D1" stroke-width="1.5"/><rect x="100" y="55" width="40" height="40" fill="white" stroke="#45B7D1" stroke-width="1.5"/><rect x="140" y="55" width="40" height="40" fill="white" stroke="#45B7D1" stroke-width="1.5"/><rect x="20" y="95" width="40" height="40" fill="white" stroke="#45B7D1" stroke-width="1.5"/><rect x="60" y="95" width="40" height="40" fill="white" stroke="#45B7D1" stroke-width="1.5"/><rect x="100" y="95" width="40" height="40" fill="white" stroke="#45B7D1" stroke-width="1.5"/><rect x="140" y="95" width="40" height="40" fill="white" stroke="#45B7D1" stroke-width="1.5"/><rect x="20" y="135" width="40" height="40" fill="white" stroke="#45B7D1" stroke-width="1.5"/><rect x="60" y="135" width="40" height="40" fill="white" stroke="#45B7D1" stroke-width="1.5"/><rect x="100" y="135" width="40" height="40" fill="white" stroke="#45B7D1" stroke-width="1.5"/><rect x="140" y="135" width="40" height="40" fill="white" stroke="#45B7D1" stroke-width="1.5"/><text x="110" y="215" text-anchor="middle" font-size="10" fill="#666">4x4 grid</text>
</svg>