<svg viewBox="0 0 490 140" xmlns="http://www.w3.org/2000/svg" font-family="system-ui">
<path d="M35 30 L40 90 L80 90 L85 30 Z" fill="#FF6B6B" stroke="#666" stroke-width="1.5" opacity="0.8"/><ellipse cx="60" cy="30" rx="25" ry="6" fill="#FF6B6B" stroke="#666" stroke-width="1"/><text x="60" y="110" text-anchor="middle" font-size="10" fill="#333">red</text><path d="M125 30 L130 90 L170 90 L175 30 Z" fill="#45B7D1" stroke="#666" stroke-width="1.5" opacity="0.8"/><ellipse cx="150" cy="30" rx="25" ry="6" fill="#45B7D1" stroke="#666" stroke-width="1"/><text x="150" y="110" text-anchor="middle" font-size="10" fill="#333">blue</text><path d="M215 30 L220 90 L260 90 L265 30 Z" fill="#F7DC6F" stroke="#666" stroke-width="1.5" opacity="0.8"/><ellipse cx="240" cy="30" rx="25" ry="6" fill="#F7DC6F" stroke="#666" stroke-width="1"/><text x="240" y="110" text-anchor="middle" font-size="10" fill="#333">yellow</text><path d="M305 30 L310 90 L350 90 L355 30 Z" fill="#FF6B6B" stroke="#666" stroke-width="1.5" opacity="0.8"/><ellipse cx="330" cy="30" rx="25" ry="6" fill="#FF6B6B" stroke="#666" stroke-width="1"/><text x="330" y="110" text-anchor="middle" font-size="10" fill="#333">red</text><path d="M395 30 L400 90 L440 90 L445 30 Z" fill="#F7DC6F" stroke="#666" stroke-width="1.5" opacity="0.8"/><ellipse cx="420" cy="30" rx="25" ry="6" fill="#F7DC6F" stroke="#666" stroke-width="1"/><text x="420" y="110" text-anchor="middle" font-size="10" fill="#333">yellow</text><text x="245" y="130" text-anchor="middle" font-size="10" fill="#666">Where is the ball hidden?</text>
</svg>