<svg viewBox="0 0 350 120" xmlns="http://www.w3.org/2000/svg" font-family="system-ui">
<circle cx="40" cy="30" r="14" fill="#FF6B6B" stroke="white" stroke-width="1.5"/><circle cx="36" cy="27" r="1.5" fill="white"/><circle cx="44" cy="27" r="1.5" fill="white"/><path d="M36 33 Q40 37 44 33" fill="none" stroke="white" stroke-width="1"/><line x1="40" y1="44" x2="40" y2="70" stroke="#FF6B6B" stroke-width="2.5"/><line x1="28" y1="55" x2="52" y2="55" stroke="#FF6B6B" stroke-width="2"/><line x1="40" y1="70" x2="30" y2="88" stroke="#FF6B6B" stroke-width="2"/><line x1="40" y1="70" x2="50" y2="88" stroke="#FF6B6B" stroke-width="2"/><text x="40" y="105" text-anchor="middle" font-size="9" fill="#333">Emma</text><circle cx="100" cy="30" r="14" fill="#4ECDC4" stroke="white" stroke-width="1.5"/><circle cx="96" cy="27" r="1.5" fill="white"/><circle cx="104" cy="27" r="1.5" fill="white"/><path d="M96 33 Q100 37 104 33" fill="none" stroke="white" stroke-width="1"/><line x1="100" y1="44" x2="100" y2="70" stroke="#4ECDC4" stroke-width="2.5"/><line x1="88" y1="55" x2="112" y2="55" stroke="#4ECDC4" stroke-width="2"/><line x1="100" y1="70" x2="90" y2="88" stroke="#4ECDC4" stroke-width="2"/><line x1="100" y1="70" x2="110" y2="88" stroke="#4ECDC4" stroke-width="2"/><text x="100" y="105" text-anchor="middle" font-size="9" fill="#333">2</text><circle cx="160" cy="30" r="14" fill="#45B7D1" stroke="white" stroke-width="1.5"/><circle cx="156" cy="27" r="1.5" fill="white"/><circle cx="164" cy="27" r="1.5" fill="white"/><path d="M156 33 Q160 37 164 33" fill="none" stroke="white" stroke-width="1"/><line x1="160" y1="44" x2="160" y2="70" stroke="#45B7D1" stroke-width="2.5"/><line x1="148" y1="55" x2="172" y2="55" stroke="#45B7D1" stroke-width="2"/><line x1="160" y1="70" x2="150" y2="88" stroke="#45B7D1" stroke-width="2"/><line x1="160" y1="70" x2="170" y2="88" stroke="#45B7D1" stroke-width="2"/><text x="160" y="105" text-anchor="middle" font-size="9" fill="#333">3</text><circle cx="220" cy="30" r="14" fill="#FFA07A" stroke="white" stroke-width="1.5"/><circle cx="216" cy="27" r="1.5" fill="white"/><circle cx="224" cy="27" r="1.5" fill="white"/><path d="M216 33 Q220 37 224 33" fill="none" stroke="white" stroke-width="1"/><line x1="220" y1="44" x2="220" y2="70" stroke="#FFA07A" stroke-width="2.5"/><line x1="208" y1="55" x2="232" y2="55" stroke="#FFA07A" stroke-width="2"/><line x1="220" y1="70" x2="210" y2="88" stroke="#FFA07A" stroke-width="2"/><line x1="220" y1="70" x2="230" y2="88" stroke="#FFA07A" stroke-width="2"/><text x="220" y="105" text-anchor="middle" font-size="9" fill="#333">4</text><circle cx="280" cy="30" r="14" fill="#98D8C8" stroke="white" stroke-width="1.5"/><circle cx="276" cy="27" r="1.5" fill="white"/><circle cx="284" cy="27" r="1.5" fill="white"/><path d="M276 33 Q280 37 284 33" fill="none" stroke="white" stroke-width="1"/><line x1="280" y1="44" x2="280" y2="70" stroke="#98D8C8" stroke-width="2.5"/><line x1="268" y1="55" x2="292" y2="55" stroke="#98D8C8" stroke-width="2"/><line x1="280" y1="70" x2="270" y2="88" stroke="#98D8C8" stroke-width="2"/><line x1="280" y1="70" x2="290" y2="88" stroke="#98D8C8" stroke-width="2"/><text x="280" y="105" text-anchor="middle" font-size="9" fill="#333">5</text>
</svg>