<svg viewBox="0 0 404 130" xmlns="http://www.w3.org/2000/svg" font-family="system-ui">
<rect x="0" y="100" width="404" height="30" fill="#A9DFBF" opacity="0.3"/><rect x="30" y="55" width="40" height="45" fill="white" stroke="#666" stroke-width="1.5"/><polygon points="27,55 50,25 73,55" fill="#FF6B6B" stroke="#666" stroke-width="1.5"/><rect x="44" y="72" width="12" height="28" rx="2" fill="#FF6B6B" opacity="0.5"/><rect x="35" y="62" width="10" height="10" fill="#AED6F1" stroke="#666" stroke-width="0.5"/><text x="50" y="120" text-anchor="middle" font-size="9" fill="#333">#1</text><rect x="82" y="55" width="40" height="45" fill="white" stroke="#666" stroke-width="1.5"/><polygon points="79,55 102,25 125,55" fill="#4ECDC4" stroke="#666" stroke-width="1.5"/><rect x="96" y="72" width="12" height="28" rx="2" fill="#4ECDC4" opacity="0.5"/><rect x="87" y="62" width="10" height="10" fill="#AED6F1" stroke="#666" stroke-width="0.5"/><text x="102" y="120" text-anchor="middle" font-size="9" fill="#333">#2</text><rect x="134" y="55" width="40" height="45" fill="white" stroke="#666" stroke-width="1.5"/><polygon points="131,55 154,25 177,55" fill="#45B7D1" stroke="#666" stroke-width="1.5"/><rect x="148" y="72" width="12" height="28" rx="2" fill="#45B7D1" opacity="0.5"/><rect x="139" y="62" width="10" height="10" fill="#AED6F1" stroke="#666" stroke-width="0.5"/><text x="154" y="120" text-anchor="middle" font-size="9" fill="#333">#3</text><rect x="186" y="55" width="40" height="45" fill="white" stroke="#666" stroke-width="1.5"/><polygon points="183,55 206,25 229,55" fill="#FFA07A" stroke="#666" stroke-width="1.5"/><rect x="200" y="72" width="12" height="28" rx="2" fill="#FFA07A" opacity="0.5"/><rect x="191" y="62" width="10" height="10" fill="#AED6F1" stroke="#666" stroke-width="0.5"/><text x="206" y="120" text-anchor="middle" font-size="9" fill="#333">#4</text><rect x="238" y="55" width="40" height="45" fill="white" stroke="#666" stroke-width="1.5"/><polygon points="235,55 258,25 281,55" fill="#98D8C8" stroke="#666" stroke-width="1.5"/><rect x="252" y="72" width="12" height="28" rx="2" fill="#98D8C8" opacity="0.5"/><rect x="243" y="62" width="10" height="10" fill="#AED6F1" stroke="#666" stroke-width="0.5"/><text x="258" y="120" text-anchor="middle" font-size="9" fill="#333">#5</text><rect x="290" y="55" width="40" height="45" fill="white" stroke="#666" stroke-width="1.5"/><polygon points="287,55 310,25 333,55" fill="#F7DC6F" stroke="#666" stroke-width="1.5"/><rect x="304" y="72" width="12" height="28" rx="2" fill="#F7DC6F" opacity="0.5"/><rect x="295" y="62" width="10" height="10" fill="#AED6F1" stroke="#666" stroke-width="0.5"/><text x="310" y="120" text-anchor="middle" font-size="9" fill="#333">#6</text><rect x="342" y="55" width="40" height="45" fill="white" stroke="#666" stroke-width="1.5"/><polygon points="339,55 362,25 385,55" fill="#BB8FCE" stroke="#666" stroke-width="1.5"/><rect x="356" y="72" width="12" height="28" rx="2" fill="#BB8FCE" opacity="0.5"/><rect x="347" y="62" width="10" height="10" fill="#AED6F1" stroke="#666" stroke-width="0.5"/><text x="362" y="120" text-anchor="middle" font-size="9" fill="#333">#7</text>
</svg>