<svg viewBox="0 0 350 180" xmlns="http://www.w3.org/2000/svg" font-family="system-ui">
<ellipse cx="100" cy="100" rx="60" ry="35" fill="#82E0AA" stroke="#27AE60" stroke-width="2"/><path d="M40 100 Q10 80 20 60" fill="none" stroke="#27AE60" stroke-width="4" stroke-linecap="round"/><line x1="140" y1="85" x2="130" y2="59" stroke="#27AE60" stroke-width="4"/><circle cx="138" cy="54" r="10" fill="#82E0AA" stroke="#27AE60" stroke-width="1.5"/><circle cx="140" cy="52" r="2" fill="#E74C3C"/><path d="M148 54 L158 51 L155 56 L162 54" fill="none" stroke="#F39C12" stroke-width="1.5"/><line x1="140" y1="85" x2="140" y2="67" stroke="#27AE60" stroke-width="4"/><circle cx="148" cy="62" r="10" fill="#82E0AA" stroke="#27AE60" stroke-width="1.5"/><circle cx="150" cy="60" r="2" fill="#E74C3C"/><path d="M158 62 L168 59 L165 64 L172 62" fill="none" stroke="#F39C12" stroke-width="1.5"/><line x1="140" y1="85" x2="150" y2="75" stroke="#27AE60" stroke-width="4"/><circle cx="158" cy="70" r="10" fill="#82E0AA" stroke="#27AE60" stroke-width="1.5"/><circle cx="160" cy="68" r="2" fill="#E74C3C"/><path d="M168 70 L178 67 L175 72 L182 70" fill="none" stroke="#F39C12" stroke-width="1.5"/><line x1="140" y1="85" x2="160" y2="67" stroke="#27AE60" stroke-width="4"/><circle cx="168" cy="62" r="10" fill="#82E0AA" stroke="#27AE60" stroke-width="1.5"/><circle cx="170" cy="60" r="2" fill="#E74C3C"/><path d="M178 62 L188 59 L185 64 L192 62" fill="none" stroke="#F39C12" stroke-width="1.5"/><line x1="140" y1="85" x2="170" y2="59" stroke="#27AE60" stroke-width="4"/><circle cx="178" cy="54" r="10" fill="#82E0AA" stroke="#27AE60" stroke-width="1.5"/><circle cx="180" cy="52" r="2" fill="#E74C3C"/><path d="M188 54 L198 51 L195 56 L202 54" fill="none" stroke="#F39C12" stroke-width="1.5"/><text x="250" y="60" font-size="9" fill="#666">Cut 1 head → 2 grow</text><text x="250" y="75" font-size="9" fill="#666">Cut 2 heads → 1 grows</text><text x="175" y="165" text-anchor="middle" font-size="10" fill="#666">Dragon with 5 heads</text>
</svg>