<svg viewBox="0 0 260 150" xmlns="http://www.w3.org/2000/svg">
  <text x="5" y="32" font-size="9" font-family="Arial">Mon</text>
  <circle cx="70" cy="28" r="8" fill="#42A5F5" stroke="#1565C0" stroke-width="1"/>
  <circle cx="92" cy="28" r="8" fill="#42A5F5" stroke="#1565C0" stroke-width="1"/>
  <circle cx="114" cy="28" r="8" fill="#42A5F5" stroke="#1565C0" stroke-width="1"/>
  <circle cx="136" cy="28" r="8" fill="#42A5F5" stroke="#1565C0" stroke-width="1"/>
  <circle cx="158" cy="28" r="8" fill="#42A5F5" stroke="#1565C0" stroke-width="1"/>
  <circle cx="180" cy="28" r="8" fill="#42A5F5" stroke="#1565C0" stroke-width="1"/>
  <circle cx="202" cy="28" r="8" fill="#42A5F5" stroke="#1565C0" stroke-width="1"/>
  <circle cx="224" cy="28" r="8" fill="#42A5F5" stroke="#1565C0" stroke-width="1"/>
  <text x="5" y="67" font-size="9" font-family="Arial">Thu</text>
  <circle cx="70" cy="63" r="8" fill="#42A5F5" stroke="#1565C0" stroke-width="1"/>
  <circle cx="92" cy="63" r="8" fill="#42A5F5" stroke="#1565C0" stroke-width="1"/>
  <circle cx="114" cy="63" r="8" fill="#42A5F5" stroke="#1565C0" stroke-width="1"/>
  <circle cx="136" cy="63" r="8" fill="#42A5F5" stroke="#1565C0" stroke-width="1"/>
  <circle cx="158" cy="63" r="8" fill="#42A5F5" stroke="#1565C0" stroke-width="1"/>
  <circle cx="180" cy="63" r="8" fill="#42A5F5" stroke="#1565C0" stroke-width="1"/>
  <circle cx="202" cy="63" r="8" fill="#42A5F5" stroke="#1565C0" stroke-width="1"/>
  <circle cx="224" cy="63" r="8" fill="#42A5F5" stroke="#1565C0" stroke-width="1"/>
  <text x="5" y="102" font-size="9" font-family="Arial">Fri</text>
  <circle cx="70" cy="98" r="8" fill="#42A5F5" stroke="#1565C0" stroke-width="1"/>
  <circle cx="92" cy="98" r="8" fill="#42A5F5" stroke="#1565C0" stroke-width="1"/>
  <circle cx="114" cy="98" r="8" fill="#42A5F5" stroke="#1565C0" stroke-width="1"/>
  <circle cx="136" cy="98" r="8" fill="#42A5F5" stroke="#1565C0" stroke-width="1"/>
  <circle cx="158" cy="98" r="8" fill="#42A5F5" stroke="#1565C0" stroke-width="1"/>
  <circle cx="180" cy="98" r="8" fill="#42A5F5" stroke="#1565C0" stroke-width="1"/>
  <circle cx="202" cy="98" r="8" fill="#42A5F5" stroke="#1565C0" stroke-width="1"/>
  <circle cx="224" cy="98" r="8" fill="#42A5F5" stroke="#1565C0" stroke-width="1"/>
  <text x="5" y="137" font-size="9" font-family="Arial">Tue</text>
  <circle cx="70" cy="133" r="8" fill="#42A5F5" stroke="#1565C0" stroke-width="1"/>
  <circle cx="92" cy="133" r="8" fill="#42A5F5" stroke="#1565C0" stroke-width="1"/>
  <circle cx="114" cy="133" r="8" fill="#42A5F5" stroke="#1565C0" stroke-width="1"/>
  <circle cx="136" cy="133" r="8" fill="#42A5F5" stroke="#1565C0" stroke-width="1"/>
  <circle cx="158" cy="133" r="8" fill="#42A5F5" stroke="#1565C0" stroke-width="1"/>
  <circle cx="180" cy="133" r="8" fill="#42A5F5" stroke="#1565C0" stroke-width="1"/>
  <circle cx="202" cy="133" r="8" fill="#42A5F5" stroke="#1565C0" stroke-width="1"/>
  <circle cx="224" cy="133" r="8" fill="#42A5F5" stroke="#1565C0" stroke-width="1"/>
  <text x="130" y="145" text-anchor="middle" font-size="10" font-family="Arial">Each ● = 1</text>
</svg>