<svg viewBox="0 0 260 150" xmlns="http://www.w3.org/2000/svg">
<rect width="260" height="150" fill="#FFFEF5" rx="8"/>
<text x="130" y="20" text-anchor="middle" font-size="10" font-weight="bold" fill="#2C3E50">Fraction: 11/12</text>
<circle cx="130" cy="85" r="50" fill="none" stroke="#333" stroke-width="2"/>
<line x1="130" y1="85" x2="130.0" y2="35.0" stroke="#333" stroke-width="1.5"/>
<line x1="130" y1="85" x2="155.0" y2="41.7" stroke="#333" stroke-width="1.5"/>
<line x1="130" y1="85" x2="173.3" y2="60.0" stroke="#333" stroke-width="1.5"/>
<line x1="130" y1="85" x2="180.0" y2="85.0" stroke="#333" stroke-width="1.5"/>
<line x1="130" y1="85" x2="173.3" y2="110.0" stroke="#333" stroke-width="1.5"/>
<line x1="130" y1="85" x2="155.0" y2="128.3" stroke="#333" stroke-width="1.5"/>
<line x1="130" y1="85" x2="130.0" y2="135.0" stroke="#333" stroke-width="1.5"/>
<line x1="130" y1="85" x2="105.0" y2="128.3" stroke="#333" stroke-width="1.5"/>
<line x1="130" y1="85" x2="86.7" y2="110.0" stroke="#333" stroke-width="1.5"/>
<line x1="130" y1="85" x2="80.0" y2="85.0" stroke="#333" stroke-width="1.5"/>
<line x1="130" y1="85" x2="86.7" y2="60.0" stroke="#333" stroke-width="1.5"/>
<line x1="130" y1="85" x2="105.0" y2="41.7" stroke="#333" stroke-width="1.5"/>
<circle cx="136.5" cy="60.9" r="8" fill="#3498DB" opacity="0.4"/>
<circle cx="147.7" cy="67.3" r="8" fill="#3498DB" opacity="0.4"/>
<circle cx="154.1" cy="78.5" r="8" fill="#3498DB" opacity="0.4"/>
<circle cx="154.1" cy="91.5" r="8" fill="#3498DB" opacity="0.4"/>
<circle cx="147.7" cy="102.7" r="8" fill="#3498DB" opacity="0.4"/>
<circle cx="136.5" cy="109.1" r="8" fill="#3498DB" opacity="0.4"/>
<circle cx="123.5" cy="109.1" r="8" fill="#3498DB" opacity="0.4"/>
<circle cx="112.3" cy="102.7" r="8" fill="#3498DB" opacity="0.4"/>
<circle cx="105.9" cy="91.5" r="8" fill="#3498DB" opacity="0.4"/>
<circle cx="105.9" cy="78.5" r="8" fill="#3498DB" opacity="0.4"/>
<circle cx="112.3" cy="67.3" r="8" fill="#3498DB" opacity="0.4"/>
</svg>