<svg viewBox="0 0 240 140" xmlns="http://www.w3.org/2000/svg">
<rect width="240" height="140" fill="#FFFEF5" rx="8"/>
<text x="120" y="20" text-anchor="middle" font-size="9" font-weight="bold" fill="#2C3E50">Number Line</text>
<line x1="20" y1="70" x2="220" y2="70" stroke="#333" stroke-width="2"/>
<polygon points="220,70 214,66 214,74" fill="#333"/>
<line x1="20" y1="65" x2="20" y2="75" stroke="#333" stroke-width="1.5"/>
<text x="20" y="88" text-anchor="middle" font-size="8" fill="#333">17900</text>
<line x1="40" y1="65" x2="40" y2="75" stroke="#333" stroke-width="1.5"/>
<text x="40" y="88" text-anchor="middle" font-size="8" fill="#333">18400</text>
<line x1="60" y1="65" x2="60" y2="75" stroke="#333" stroke-width="1.5"/>
<text x="60" y="88" text-anchor="middle" font-size="8" fill="#333">18900</text>
<line x1="80" y1="65" x2="80" y2="75" stroke="#333" stroke-width="1.5"/>
<text x="80" y="88" text-anchor="middle" font-size="8" fill="#333">19400</text>
<line x1="100" y1="65" x2="100" y2="75" stroke="#333" stroke-width="1.5"/>
<text x="100" y="88" text-anchor="middle" font-size="8" fill="#333">19900</text>
<line x1="120" y1="65" x2="120" y2="75" stroke="#333" stroke-width="1.5"/>
<text x="120" y="88" text-anchor="middle" font-size="8" fill="#333">20400</text>
<line x1="140" y1="65" x2="140" y2="75" stroke="#333" stroke-width="1.5"/>
<text x="140" y="88" text-anchor="middle" font-size="8" fill="#333">20900</text>
<line x1="160" y1="65" x2="160" y2="75" stroke="#333" stroke-width="1.5"/>
<text x="160" y="88" text-anchor="middle" font-size="8" fill="#333">21400</text>
<line x1="180" y1="65" x2="180" y2="75" stroke="#333" stroke-width="1.5"/>
<text x="180" y="88" text-anchor="middle" font-size="8" fill="#333">21900</text>
<line x1="200" y1="65" x2="200" y2="75" stroke="#333" stroke-width="1.5"/>
<text x="200" y="88" text-anchor="middle" font-size="8" fill="#333">22400</text>
<line x1="220" y1="65" x2="220" y2="75" stroke="#333" stroke-width="1.5"/>
<text x="220" y="88" text-anchor="middle" font-size="8" fill="#333">22900</text>
<circle cx="165" cy="70" r="5" fill="#E74C3C"/>
<text x="165" y="58" text-anchor="middle" font-size="9" fill="#E74C3C">?</text>

</svg>