<svg viewBox="0 0 260 150" xmlns="http://www.w3.org/2000/svg">
<rect width="260" height="150" fill="#FFFEF5" rx="8"/>
<text x="130" y="15" text-anchor="middle" font-size="9" font-weight="bold" fill="#2C3E50">Count the Square Units</text>
<rect x="94" y="32" width="12" height="12" fill="#AED6F1" stroke="#2C3E50" stroke-width="0.5"/>
<rect x="106" y="32" width="12" height="12" fill="#AED6F1" stroke="#2C3E50" stroke-width="0.5"/>
<rect x="118" y="32" width="12" height="12" fill="#AED6F1" stroke="#2C3E50" stroke-width="0.5"/>
<rect x="130" y="32" width="12" height="12" fill="#AED6F1" stroke="#2C3E50" stroke-width="0.5"/>
<rect x="142" y="32" width="12" height="12" fill="#AED6F1" stroke="#2C3E50" stroke-width="0.5"/>
<rect x="154" y="32" width="12" height="12" fill="#AED6F1" stroke="#2C3E50" stroke-width="0.5"/>
<rect x="94" y="44" width="12" height="12" fill="#AED6F1" stroke="#2C3E50" stroke-width="0.5"/>
<rect x="106" y="44" width="12" height="12" fill="#AED6F1" stroke="#2C3E50" stroke-width="0.5"/>
<rect x="118" y="44" width="12" height="12" fill="#AED6F1" stroke="#2C3E50" stroke-width="0.5"/>
<rect x="130" y="44" width="12" height="12" fill="#AED6F1" stroke="#2C3E50" stroke-width="0.5"/>
<rect x="142" y="44" width="12" height="12" fill="#AED6F1" stroke="#2C3E50" stroke-width="0.5"/>
<rect x="154" y="44" width="12" height="12" fill="#AED6F1" stroke="#2C3E50" stroke-width="0.5"/>
<rect x="94" y="56" width="12" height="12" fill="#AED6F1" stroke="#2C3E50" stroke-width="0.5"/>
<rect x="106" y="56" width="12" height="12" fill="#AED6F1" stroke="#2C3E50" stroke-width="0.5"/>
<rect x="118" y="56" width="12" height="12" fill="#AED6F1" stroke="#2C3E50" stroke-width="0.5"/>
<rect x="130" y="56" width="12" height="12" fill="#AED6F1" stroke="#2C3E50" stroke-width="0.5"/>
<rect x="142" y="56" width="12" height="12" fill="#AED6F1" stroke="#2C3E50" stroke-width="0.5"/>
<rect x="154" y="56" width="12" height="12" fill="#AED6F1" stroke="#2C3E50" stroke-width="0.5"/>
<rect x="94" y="68" width="12" height="12" fill="#AED6F1" stroke="#2C3E50" stroke-width="0.5"/>
<rect x="106" y="68" width="12" height="12" fill="#AED6F1" stroke="#2C3E50" stroke-width="0.5"/>
<rect x="118" y="68" width="12" height="12" fill="#AED6F1" stroke="#2C3E50" stroke-width="0.5"/>
<rect x="130" y="68" width="12" height="12" fill="#AED6F1" stroke="#2C3E50" stroke-width="0.5"/>
<rect x="142" y="68" width="12" height="12" fill="#AED6F1" stroke="#2C3E50" stroke-width="0.5"/>
<rect x="154" y="68" width="12" height="12" fill="#AED6F1" stroke="#2C3E50" stroke-width="0.5"/>
<rect x="94" y="80" width="12" height="12" fill="#AED6F1" stroke="#2C3E50" stroke-width="0.5"/>
<rect x="106" y="80" width="12" height="12" fill="#AED6F1" stroke="#2C3E50" stroke-width="0.5"/>
<rect x="118" y="80" width="12" height="12" fill="#AED6F1" stroke="#2C3E50" stroke-width="0.5"/>
<rect x="130" y="80" width="12" height="12" fill="#AED6F1" stroke="#2C3E50" stroke-width="0.5"/>
<rect x="142" y="80" width="12" height="12" fill="#AED6F1" stroke="#2C3E50" stroke-width="0.5"/>
<rect x="154" y="80" width="12" height="12" fill="#AED6F1" stroke="#2C3E50" stroke-width="0.5"/>
<rect x="94" y="92" width="12" height="12" fill="#AED6F1" stroke="#2C3E50" stroke-width="0.5"/>
<rect x="106" y="92" width="12" height="12" fill="#AED6F1" stroke="#2C3E50" stroke-width="0.5"/>
<rect x="118" y="92" width="12" height="12" fill="#AED6F1" stroke="#2C3E50" stroke-width="0.5"/>
<rect x="130" y="92" width="12" height="12" fill="#AED6F1" stroke="#2C3E50" stroke-width="0.5"/>
<rect x="142" y="92" width="12" height="12" fill="#AED6F1" stroke="#2C3E50" stroke-width="0.5"/>
<rect x="154" y="92" width="12" height="12" fill="#AED6F1" stroke="#2C3E50" stroke-width="0.5"/>
<rect x="94" y="104" width="12" height="12" fill="#AED6F1" stroke="#2C3E50" stroke-width="0.5"/>
<rect x="106" y="104" width="12" height="12" fill="#AED6F1" stroke="#2C3E50" stroke-width="0.5"/>
<rect x="118" y="104" width="12" height="12" fill="#AED6F1" stroke="#2C3E50" stroke-width="0.5"/>
<rect x="130" y="104" width="12" height="12" fill="#AED6F1" stroke="#2C3E50" stroke-width="0.5"/>
<rect x="142" y="104" width="12" height="12" fill="#AED6F1" stroke="#2C3E50" stroke-width="0.5"/>
<rect x="154" y="104" width="12" height="12" fill="#AED6F1" stroke="#2C3E50" stroke-width="0.5"/>
<rect x="94" y="116" width="12" height="12" fill="#AED6F1" stroke="#2C3E50" stroke-width="0.5"/>
<rect x="106" y="116" width="12" height="12" fill="#AED6F1" stroke="#2C3E50" stroke-width="0.5"/>
<rect x="118" y="116" width="12" height="12" fill="#AED6F1" stroke="#2C3E50" stroke-width="0.5"/>
<rect x="130" y="116" width="12" height="12" fill="#AED6F1" stroke="#2C3E50" stroke-width="0.5"/>
<rect x="142" y="116" width="12" height="12" fill="#AED6F1" stroke="#2C3E50" stroke-width="0.5"/>
<rect x="154" y="116" width="12" height="12" fill="#AED6F1" stroke="#2C3E50" stroke-width="0.5"/>
<text x="130" y="145" text-anchor="middle" font-size="8" fill="#666">Each square = 1 sq unit</text>
</svg>