<svg viewBox="0 0 240 140" xmlns="http://www.w3.org/2000/svg">
<rect width="240" height="140" fill="#FFFEF5" rx="8"/>
<text x="120" y="16" text-anchor="middle" font-size="10" font-weight="bold" fill="#2C3E50">7/9 shaded</text>
<path d="M120,70 L120.0,25.0 A45,45 0 0,1 148.9,35.5 Z" fill="#FF6B6B" stroke="#333" stroke-width="1"/>
<path d="M120,70 L148.9,35.5 A45,45 0 0,1 164.3,62.2 Z" fill="#FF6B6B" stroke="#333" stroke-width="1"/>
<path d="M120,70 L164.3,62.2 A45,45 0 0,1 159.0,92.5 Z" fill="#FF6B6B" stroke="#333" stroke-width="1"/>
<path d="M120,70 L159.0,92.5 A45,45 0 0,1 135.4,112.3 Z" fill="#FF6B6B" stroke="#333" stroke-width="1"/>
<path d="M120,70 L135.4,112.3 A45,45 0 0,1 104.6,112.3 Z" fill="#FF6B6B" stroke="#333" stroke-width="1"/>
<path d="M120,70 L104.6,112.3 A45,45 0 0,1 81.0,92.5 Z" fill="#FF6B6B" stroke="#333" stroke-width="1"/>
<path d="M120,70 L81.0,92.5 A45,45 0 0,1 75.7,62.2 Z" fill="#FF6B6B" stroke="#333" stroke-width="1"/>
<path d="M120,70 L75.7,62.2 A45,45 0 0,1 91.1,35.5 Z" fill="#F0F0F0" stroke="#333" stroke-width="1"/>
<path d="M120,70 L91.1,35.5 A45,45 0 0,1 120.0,25.0 Z" fill="#F0F0F0" stroke="#333" stroke-width="1"/>

</svg>