<svg viewBox="0 0 260 150" xmlns="http://www.w3.org/2000/svg">
<rect width="260" height="150" fill="#FFFEF5" rx="8"/>
<text x="130" y="15" text-anchor="middle" font-size="9" font-weight="bold" fill="#2C3E50">Count the Square Units</text>
<rect x="70" y="38" width="12" height="12" fill="#AED6F1" stroke="#2C3E50" stroke-width="0.5"/>
<rect x="82" y="38" width="12" height="12" fill="#AED6F1" stroke="#2C3E50" stroke-width="0.5"/>
<rect x="94" y="38" width="12" height="12" fill="#AED6F1" stroke="#2C3E50" stroke-width="0.5"/>
<rect x="106" y="38" width="12" height="12" fill="#AED6F1" stroke="#2C3E50" stroke-width="0.5"/>
<rect x="118" y="38" width="12" height="12" fill="#AED6F1" stroke="#2C3E50" stroke-width="0.5"/>
<rect x="130" y="38" width="12" height="12" fill="#AED6F1" stroke="#2C3E50" stroke-width="0.5"/>
<rect x="142" y="38" width="12" height="12" fill="#AED6F1" stroke="#2C3E50" stroke-width="0.5"/>
<rect x="154" y="38" width="12" height="12" fill="#AED6F1" stroke="#2C3E50" stroke-width="0.5"/>
<rect x="166" y="38" width="12" height="12" fill="#AED6F1" stroke="#2C3E50" stroke-width="0.5"/>
<rect x="178" y="38" width="12" height="12" fill="#AED6F1" stroke="#2C3E50" stroke-width="0.5"/>
<rect x="70" y="50" width="12" height="12" fill="#AED6F1" stroke="#2C3E50" stroke-width="0.5"/>
<rect x="82" y="50" width="12" height="12" fill="#AED6F1" stroke="#2C3E50" stroke-width="0.5"/>
<rect x="94" y="50" width="12" height="12" fill="#AED6F1" stroke="#2C3E50" stroke-width="0.5"/>
<rect x="106" y="50" width="12" height="12" fill="#AED6F1" stroke="#2C3E50" stroke-width="0.5"/>
<rect x="118" y="50" width="12" height="12" fill="#AED6F1" stroke="#2C3E50" stroke-width="0.5"/>
<rect x="130" y="50" width="12" height="12" fill="#AED6F1" stroke="#2C3E50" stroke-width="0.5"/>
<rect x="142" y="50" width="12" height="12" fill="#AED6F1" stroke="#2C3E50" stroke-width="0.5"/>
<rect x="154" y="50" width="12" height="12" fill="#AED6F1" stroke="#2C3E50" stroke-width="0.5"/>
<rect x="166" y="50" width="12" height="12" fill="#AED6F1" stroke="#2C3E50" stroke-width="0.5"/>
<rect x="178" y="50" width="12" height="12" fill="#AED6F1" stroke="#2C3E50" stroke-width="0.5"/>
<rect x="70" y="62" width="12" height="12" fill="#AED6F1" stroke="#2C3E50" stroke-width="0.5"/>
<rect x="82" y="62" width="12" height="12" fill="#AED6F1" stroke="#2C3E50" stroke-width="0.5"/>
<rect x="94" y="62" width="12" height="12" fill="#AED6F1" stroke="#2C3E50" stroke-width="0.5"/>
<rect x="106" y="62" width="12" height="12" fill="#AED6F1" stroke="#2C3E50" stroke-width="0.5"/>
<rect x="118" y="62" width="12" height="12" fill="#AED6F1" stroke="#2C3E50" stroke-width="0.5"/>
<rect x="130" y="62" width="12" height="12" fill="#AED6F1" stroke="#2C3E50" stroke-width="0.5"/>
<rect x="142" y="62" width="12" height="12" fill="#AED6F1" stroke="#2C3E50" stroke-width="0.5"/>
<rect x="154" y="62" width="12" height="12" fill="#AED6F1" stroke="#2C3E50" stroke-width="0.5"/>
<rect x="166" y="62" width="12" height="12" fill="#AED6F1" stroke="#2C3E50" stroke-width="0.5"/>
<rect x="178" y="62" width="12" height="12" fill="#AED6F1" stroke="#2C3E50" stroke-width="0.5"/>
<rect x="70" y="74" width="12" height="12" fill="#AED6F1" stroke="#2C3E50" stroke-width="0.5"/>
<rect x="82" y="74" width="12" height="12" fill="#AED6F1" stroke="#2C3E50" stroke-width="0.5"/>
<rect x="94" y="74" width="12" height="12" fill="#AED6F1" stroke="#2C3E50" stroke-width="0.5"/>
<rect x="106" y="74" width="12" height="12" fill="#AED6F1" stroke="#2C3E50" stroke-width="0.5"/>
<rect x="118" y="74" width="12" height="12" fill="#AED6F1" stroke="#2C3E50" stroke-width="0.5"/>
<rect x="130" y="74" width="12" height="12" fill="#AED6F1" stroke="#2C3E50" stroke-width="0.5"/>
<rect x="142" y="74" width="12" height="12" fill="#AED6F1" stroke="#2C3E50" stroke-width="0.5"/>
<rect x="154" y="74" width="12" height="12" fill="#AED6F1" stroke="#2C3E50" stroke-width="0.5"/>
<rect x="166" y="74" width="12" height="12" fill="#AED6F1" stroke="#2C3E50" stroke-width="0.5"/>
<rect x="178" y="74" width="12" height="12" fill="#AED6F1" stroke="#2C3E50" stroke-width="0.5"/>
<rect x="70" y="86" width="12" height="12" fill="#AED6F1" stroke="#2C3E50" stroke-width="0.5"/>
<rect x="82" y="86" width="12" height="12" fill="#AED6F1" stroke="#2C3E50" stroke-width="0.5"/>
<rect x="94" y="86" width="12" height="12" fill="#AED6F1" stroke="#2C3E50" stroke-width="0.5"/>
<rect x="106" y="86" width="12" height="12" fill="#AED6F1" stroke="#2C3E50" stroke-width="0.5"/>
<rect x="118" y="86" width="12" height="12" fill="#AED6F1" stroke="#2C3E50" stroke-width="0.5"/>
<rect x="130" y="86" width="12" height="12" fill="#AED6F1" stroke="#2C3E50" stroke-width="0.5"/>
<rect x="142" y="86" width="12" height="12" fill="#AED6F1" stroke="#2C3E50" stroke-width="0.5"/>
<rect x="154" y="86" width="12" height="12" fill="#AED6F1" stroke="#2C3E50" stroke-width="0.5"/>
<rect x="166" y="86" width="12" height="12" fill="#AED6F1" stroke="#2C3E50" stroke-width="0.5"/>
<rect x="178" y="86" width="12" height="12" fill="#AED6F1" stroke="#2C3E50" stroke-width="0.5"/>
<rect x="70" y="98" width="12" height="12" fill="#AED6F1" stroke="#2C3E50" stroke-width="0.5"/>
<rect x="82" y="98" width="12" height="12" fill="#AED6F1" stroke="#2C3E50" stroke-width="0.5"/>
<rect x="94" y="98" width="12" height="12" fill="#AED6F1" stroke="#2C3E50" stroke-width="0.5"/>
<rect x="106" y="98" width="12" height="12" fill="#AED6F1" stroke="#2C3E50" stroke-width="0.5"/>
<rect x="118" y="98" width="12" height="12" fill="#AED6F1" stroke="#2C3E50" stroke-width="0.5"/>
<rect x="130" y="98" width="12" height="12" fill="#AED6F1" stroke="#2C3E50" stroke-width="0.5"/>
<rect x="142" y="98" width="12" height="12" fill="#AED6F1" stroke="#2C3E50" stroke-width="0.5"/>
<rect x="154" y="98" width="12" height="12" fill="#AED6F1" stroke="#2C3E50" stroke-width="0.5"/>
<rect x="166" y="98" width="12" height="12" fill="#AED6F1" stroke="#2C3E50" stroke-width="0.5"/>
<rect x="178" y="98" width="12" height="12" fill="#AED6F1" stroke="#2C3E50" stroke-width="0.5"/>
<rect x="70" y="110" width="12" height="12" fill="#AED6F1" stroke="#2C3E50" stroke-width="0.5"/>
<rect x="82" y="110" width="12" height="12" fill="#AED6F1" stroke="#2C3E50" stroke-width="0.5"/>
<rect x="94" y="110" width="12" height="12" fill="#AED6F1" stroke="#2C3E50" stroke-width="0.5"/>
<rect x="106" y="110" width="12" height="12" fill="#AED6F1" stroke="#2C3E50" stroke-width="0.5"/>
<rect x="118" y="110" width="12" height="12" fill="#AED6F1" stroke="#2C3E50" stroke-width="0.5"/>
<rect x="130" y="110" width="12" height="12" fill="#AED6F1" stroke="#2C3E50" stroke-width="0.5"/>
<rect x="142" y="110" width="12" height="12" fill="#AED6F1" stroke="#2C3E50" stroke-width="0.5"/>
<rect x="154" y="110" width="12" height="12" fill="#AED6F1" stroke="#2C3E50" stroke-width="0.5"/>
<rect x="166" y="110" width="12" height="12" fill="#AED6F1" stroke="#2C3E50" stroke-width="0.5"/>
<rect x="178" y="110" width="12" height="12" fill="#AED6F1" stroke="#2C3E50" stroke-width="0.5"/>
<text x="130" y="145" text-anchor="middle" font-size="8" fill="#666">Each square = 1 sq unit</text>
</svg>