<svg viewBox="0 0 260 150" xmlns="http://www.w3.org/2000/svg">
<rect width="260" height="150" fill="#FFFEF5" rx="8"/>
<text x="130" y="15" text-anchor="middle" font-size="9" font-weight="bold" fill="#2C3E50">Count the Square Units</text>
<rect x="76" y="56" width="12" height="12" fill="#AED6F1" stroke="#2C3E50" stroke-width="0.5"/>
<rect x="88" y="56" width="12" height="12" fill="#AED6F1" stroke="#2C3E50" stroke-width="0.5"/>
<rect x="100" y="56" width="12" height="12" fill="#AED6F1" stroke="#2C3E50" stroke-width="0.5"/>
<rect x="112" y="56" width="12" height="12" fill="#AED6F1" stroke="#2C3E50" stroke-width="0.5"/>
<rect x="124" y="56" width="12" height="12" fill="#AED6F1" stroke="#2C3E50" stroke-width="0.5"/>
<rect x="136" y="56" width="12" height="12" fill="#AED6F1" stroke="#2C3E50" stroke-width="0.5"/>
<rect x="148" y="56" width="12" height="12" fill="#AED6F1" stroke="#2C3E50" stroke-width="0.5"/>
<rect x="160" y="56" width="12" height="12" fill="#AED6F1" stroke="#2C3E50" stroke-width="0.5"/>
<rect x="172" y="56" width="12" height="12" fill="#AED6F1" stroke="#2C3E50" stroke-width="0.5"/>
<rect x="76" y="68" width="12" height="12" fill="#AED6F1" stroke="#2C3E50" stroke-width="0.5"/>
<rect x="88" y="68" width="12" height="12" fill="#AED6F1" stroke="#2C3E50" stroke-width="0.5"/>
<rect x="100" y="68" width="12" height="12" fill="#AED6F1" stroke="#2C3E50" stroke-width="0.5"/>
<rect x="112" y="68" width="12" height="12" fill="#AED6F1" stroke="#2C3E50" stroke-width="0.5"/>
<rect x="124" y="68" width="12" height="12" fill="#AED6F1" stroke="#2C3E50" stroke-width="0.5"/>
<rect x="136" y="68" width="12" height="12" fill="#AED6F1" stroke="#2C3E50" stroke-width="0.5"/>
<rect x="148" y="68" width="12" height="12" fill="#AED6F1" stroke="#2C3E50" stroke-width="0.5"/>
<rect x="160" y="68" width="12" height="12" fill="#AED6F1" stroke="#2C3E50" stroke-width="0.5"/>
<rect x="172" y="68" width="12" height="12" fill="#AED6F1" stroke="#2C3E50" stroke-width="0.5"/>
<rect x="76" y="80" width="12" height="12" fill="#AED6F1" stroke="#2C3E50" stroke-width="0.5"/>
<rect x="88" y="80" width="12" height="12" fill="#AED6F1" stroke="#2C3E50" stroke-width="0.5"/>
<rect x="100" y="80" width="12" height="12" fill="#AED6F1" stroke="#2C3E50" stroke-width="0.5"/>
<rect x="112" y="80" width="12" height="12" fill="#AED6F1" stroke="#2C3E50" stroke-width="0.5"/>
<rect x="124" y="80" width="12" height="12" fill="#AED6F1" stroke="#2C3E50" stroke-width="0.5"/>
<rect x="136" y="80" width="12" height="12" fill="#AED6F1" stroke="#2C3E50" stroke-width="0.5"/>
<rect x="148" y="80" width="12" height="12" fill="#AED6F1" stroke="#2C3E50" stroke-width="0.5"/>
<rect x="160" y="80" width="12" height="12" fill="#AED6F1" stroke="#2C3E50" stroke-width="0.5"/>
<rect x="172" y="80" width="12" height="12" fill="#AED6F1" stroke="#2C3E50" stroke-width="0.5"/>
<rect x="76" y="92" width="12" height="12" fill="#AED6F1" stroke="#2C3E50" stroke-width="0.5"/>
<rect x="88" y="92" width="12" height="12" fill="#AED6F1" stroke="#2C3E50" stroke-width="0.5"/>
<rect x="100" y="92" width="12" height="12" fill="#AED6F1" stroke="#2C3E50" stroke-width="0.5"/>
<rect x="112" y="92" width="12" height="12" fill="#AED6F1" stroke="#2C3E50" stroke-width="0.5"/>
<rect x="124" y="92" width="12" height="12" fill="#AED6F1" stroke="#2C3E50" stroke-width="0.5"/>
<rect x="136" y="92" width="12" height="12" fill="#AED6F1" stroke="#2C3E50" stroke-width="0.5"/>
<rect x="148" y="92" width="12" height="12" fill="#AED6F1" stroke="#2C3E50" stroke-width="0.5"/>
<rect x="160" y="92" width="12" height="12" fill="#AED6F1" stroke="#2C3E50" stroke-width="0.5"/>
<rect x="172" y="92" width="12" height="12" fill="#AED6F1" stroke="#2C3E50" stroke-width="0.5"/>
<text x="130" y="145" text-anchor="middle" font-size="8" fill="#666">Each square = 1 sq unit</text>
</svg>