<svg viewBox="0 0 260 150" xmlns="http://www.w3.org/2000/svg">
<rect width="260" height="150" fill="#FFFEF5" rx="8"/>
<text x="130" y="15" text-anchor="middle" font-size="9" font-weight="bold" fill="#2C3E50">Favourite Subject</text>
<path d="M100,85 L100.0,40.0 A45,45 0 0,1 114.9,127.4 Z" fill="#E74C3C"/>
<path d="M100,85 L114.9,127.4 A45,45 0 0,1 61.8,108.7 Z" fill="#3498DB"/>
<path d="M100,85 L61.8,108.7 A45,45 0 0,1 71.8,49.9 Z" fill="#2ECC71"/>
<path d="M100,85 L71.8,49.9 A45,45 0 0,1 100.0,40.0 Z" fill="#F39C12"/>
<rect x="165" y="35" width="10" height="10" fill="#E74C3C"/>
<text x="180" y="44" font-size="7" fill="#333">Hindi (29)</text>
<rect x="165" y="49" width="10" height="10" fill="#3498DB"/>
<text x="180" y="58" font-size="7" fill="#333">English (14)</text>
<rect x="165" y="63" width="10" height="10" fill="#2ECC71"/>
<text x="180" y="72" font-size="7" fill="#333">Maths (15)</text>
<rect x="165" y="77" width="10" height="10" fill="#F39C12"/>
<text x="180" y="86" font-size="7" fill="#333">Science (7)</text>
</svg>