<svg viewBox="0 0 220 215" xmlns="http://www.w3.org/2000/svg" font-family="system-ui">
<rect x="20" y="20" width="40" height="40" fill="white" stroke="#2C3E50" stroke-width="1.5"/>
<rect x="60" y="20" width="40" height="40" fill="white" stroke="#2C3E50" stroke-width="1.5"/>
<rect x="100" y="20" width="40" height="40" fill="white" stroke="#2C3E50" stroke-width="1.5"/>
<rect x="140" y="20" width="40" height="40" fill="white" stroke="#2C3E50" stroke-width="1.5"/>
<rect x="20" y="60" width="40" height="40" fill="white" stroke="#2C3E50" stroke-width="1.5"/>
<rect x="60" y="60" width="40" height="40" fill="white" stroke="#2C3E50" stroke-width="1.5"/>
<rect x="100" y="60" width="40" height="40" fill="white" stroke="#2C3E50" stroke-width="1.5"/>
<rect x="140" y="60" width="40" height="40" fill="white" stroke="#2C3E50" stroke-width="1.5"/>
<rect x="20" y="100" width="40" height="40" fill="white" stroke="#2C3E50" stroke-width="1.5"/>
<rect x="60" y="100" width="40" height="40" fill="white" stroke="#2C3E50" stroke-width="1.5"/>
<rect x="100" y="100" width="40" height="40" fill="white" stroke="#2C3E50" stroke-width="1.5"/>
<rect x="140" y="100" width="40" height="40" fill="white" stroke="#2C3E50" stroke-width="1.5"/>
<rect x="20" y="140" width="40" height="40" fill="white" stroke="#2C3E50" stroke-width="1.5"/>
<rect x="60" y="140" width="40" height="40" fill="white" stroke="#2C3E50" stroke-width="1.5"/>
<rect x="100" y="140" width="40" height="40" fill="white" stroke="#2C3E50" stroke-width="1.5"/>
<rect x="140" y="140" width="40" height="40" fill="white" stroke="#2C3E50" stroke-width="1.5"/>
<text x="100" y="200" text-anchor="middle" font-size="11" fill="#333">4×4 grid</text>
</svg>