<svg viewBox="0 0 248 68" xmlns="http://www.w3.org/2000/svg">
  <polygon points="28.0,11.0 24.5,19.1 15.6,20.0 22.3,25.9 20.4,34.5 28.0,30.0 35.6,34.5 33.7,25.9 40.4,20.0 31.5,19.1" fill="#ffc107" stroke="#f57f17" stroke-width="1"/>
<polygon points="66.0,11.0 62.5,19.1 53.6,20.0 60.3,25.9 58.4,34.5 66.0,30.0 73.6,34.5 71.7,25.9 78.4,20.0 69.5,19.1" fill="#ffc107" stroke="#f57f17" stroke-width="1"/>
<polygon points="104.0,11.0 100.5,19.1 91.6,20.0 98.3,25.9 96.4,34.5 104.0,30.0 111.6,34.5 109.7,25.9 116.4,20.0 107.5,19.1" fill="#ffc107" stroke="#f57f17" stroke-width="1"/>
<polygon points="142.0,11.0 138.5,19.1 129.6,20.0 136.3,25.9 134.4,34.5 142.0,30.0 149.6,34.5 147.7,25.9 154.4,20.0 145.5,19.1" fill="#ffc107" stroke="#f57f17" stroke-width="1"/>
<polygon points="180.0,11.0 176.5,19.1 167.6,20.0 174.3,25.9 172.4,34.5 180.0,30.0 187.6,34.5 185.7,25.9 192.4,20.0 183.5,19.1" fill="#ffc107" stroke="#f57f17" stroke-width="1"/>
<polygon points="218.0,11.0 214.5,19.1 205.6,20.0 212.3,25.9 210.4,34.5 218.0,30.0 225.6,34.5 223.7,25.9 230.4,20.0 221.5,19.1" fill="#ffc107" stroke="#f57f17" stroke-width="1"/>

  <text x="124.0" y="64" text-anchor="middle" font-family="system-ui" font-size="10" fill="#666">Count: stars</text>
</svg>