<svg viewBox="0 0 260 215" xmlns="http://www.w3.org/2000/svg" font-family="system-ui">
<polygon points="80,130 80,170 110,185 110,145" fill="#4ECDC4" stroke="#2C3E50" stroke-width="1.5"/>
<polygon points="80,130 110,115 140,130 110,145" fill="#81E6D9" stroke="#2C3E50" stroke-width="1.5"/>
<polygon points="110,145 140,130 140,170 110,185" fill="#38B2AC" stroke="#2C3E50" stroke-width="1.5"/>
<polygon points="140,100 140,140 170,155 170,115" fill="#3498DB" stroke="#2C3E50" stroke-width="1.5"/>
<polygon points="140,100 170,85 200,100 170,115" fill="#5DADE2" stroke="#2C3E50" stroke-width="1.5"/>
<polygon points="170,115 200,100 200,140 170,155" fill="#2980B9" stroke="#2C3E50" stroke-width="1.5"/>
<polygon points="80,90 80,130 110,145 110,105" fill="#FF6B6B" stroke="#2C3E50" stroke-width="1.5"/>
<polygon points="80,90 110,75 140,90 110,105" fill="#FF8E8E" stroke="#2C3E50" stroke-width="1.5"/>
<polygon points="110,105 140,90 140,130 110,145" fill="#E74C3C" stroke="#2C3E50" stroke-width="1.5"/>
<polygon points="140,60 140,100 170,115 170,75" fill="#F1C40F" stroke="#2C3E50" stroke-width="1.5"/>
<polygon points="140,60 170,45 200,60 170,75" fill="#F7DC6F" stroke="#2C3E50" stroke-width="1.5"/>
<polygon points="170,75 200,60 200,100 170,115" fill="#D4AC0D" stroke="#2C3E50" stroke-width="1.5"/>
<text x="130" y="200" text-anchor="middle" font-size="11" fill="#333">4 cubes in a 2×2 arrangement</text>
</svg>