<svg viewBox="0 0 200 200" xmlns="http://www.w3.org/2000/svg" font-family="system-ui">
<rect x="40" y="20" width="120" height="14" fill="#FF6B6B" stroke="#2C3E50" stroke-width="1"/>
<text x="100" y="31" text-anchor="middle" font-size="8" fill="white">1</text>
<rect x="40" y="36" width="120" height="14" fill="#4ECDC4" stroke="#2C3E50" stroke-width="1"/>
<text x="100" y="47" text-anchor="middle" font-size="8" fill="white">2</text>
<rect x="40" y="52" width="120" height="14" fill="#F1C40F" stroke="#2C3E50" stroke-width="1"/>
<text x="100" y="63" text-anchor="middle" font-size="8" fill="white">3</text>
<rect x="40" y="68" width="120" height="14" fill="#9B59B6" stroke="#2C3E50" stroke-width="1"/>
<text x="100" y="79" text-anchor="middle" font-size="8" fill="white">4</text>
<rect x="40" y="84" width="120" height="14" fill="#2ECC71" stroke="#2C3E50" stroke-width="1"/>
<text x="100" y="95" text-anchor="middle" font-size="8" fill="white">5</text>
<rect x="40" y="100" width="120" height="14" fill="#3498DB" stroke="#2C3E50" stroke-width="1"/>
<text x="100" y="111" text-anchor="middle" font-size="8" fill="white">6</text>
<rect x="40" y="116" width="120" height="14" fill="#FF6B6B" stroke="#2C3E50" stroke-width="1"/>
<text x="100" y="127" text-anchor="middle" font-size="8" fill="white">7</text>
<rect x="40" y="132" width="120" height="14" fill="#4ECDC4" stroke="#2C3E50" stroke-width="1"/>
<text x="100" y="143" text-anchor="middle" font-size="8" fill="white">8</text>
<rect x="40" y="148" width="120" height="14" fill="#F1C40F" stroke="#2C3E50" stroke-width="1"/>
<text x="100" y="159" text-anchor="middle" font-size="8" fill="white">9</text>
<rect x="40" y="164" width="120" height="14" fill="#9B59B6" stroke="#2C3E50" stroke-width="1"/>
<text x="100" y="175" text-anchor="middle" font-size="8" fill="white">10</text>
<text x="20" y="100" font-size="10" fill="#333" transform="rotate(-90,20,100)">side view</text>
</svg>