<svg viewBox="0 0 400 106" xmlns="http://www.w3.org/2000/svg">
  <polygon points="28.0,11.0 24.5,19.1 15.6,20.0 22.3,25.9 20.4,34.5 28.0,30.0 35.6,34.5 33.7,25.9 40.4,20.0 31.5,19.1" fill="#ffc107" stroke="#f57f17" stroke-width="1"/>
<polygon points="66.0,11.0 62.5,19.1 53.6,20.0 60.3,25.9 58.4,34.5 66.0,30.0 73.6,34.5 71.7,25.9 78.4,20.0 69.5,19.1" fill="#ffc107" stroke="#f57f17" stroke-width="1"/>
<polygon points="104.0,11.0 100.5,19.1 91.6,20.0 98.3,25.9 96.4,34.5 104.0,30.0 111.6,34.5 109.7,25.9 116.4,20.0 107.5,19.1" fill="#ffc107" stroke="#f57f17" stroke-width="1"/>
<polygon points="142.0,11.0 138.5,19.1 129.6,20.0 136.3,25.9 134.4,34.5 142.0,30.0 149.6,34.5 147.7,25.9 154.4,20.0 145.5,19.1" fill="#ffc107" stroke="#f57f17" stroke-width="1"/>
<polygon points="180.0,11.0 176.5,19.1 167.6,20.0 174.3,25.9 172.4,34.5 180.0,30.0 187.6,34.5 185.7,25.9 192.4,20.0 183.5,19.1" fill="#ffc107" stroke="#f57f17" stroke-width="1"/>
<polygon points="218.0,11.0 214.5,19.1 205.6,20.0 212.3,25.9 210.4,34.5 218.0,30.0 225.6,34.5 223.7,25.9 230.4,20.0 221.5,19.1" fill="#ffc107" stroke="#f57f17" stroke-width="1"/>
<polygon points="256.0,11.0 252.5,19.1 243.6,20.0 250.3,25.9 248.4,34.5 256.0,30.0 263.6,34.5 261.7,25.9 268.4,20.0 259.5,19.1" fill="#ffc107" stroke="#f57f17" stroke-width="1"/>
<polygon points="294.0,11.0 290.5,19.1 281.6,20.0 288.3,25.9 286.4,34.5 294.0,30.0 301.6,34.5 299.7,25.9 306.4,20.0 297.5,19.1" fill="#ffc107" stroke="#f57f17" stroke-width="1"/>
<polygon points="332.0,11.0 328.5,19.1 319.6,20.0 326.3,25.9 324.4,34.5 332.0,30.0 339.6,34.5 337.7,25.9 344.4,20.0 335.5,19.1" fill="#ffc107" stroke="#f57f17" stroke-width="1"/>
<polygon points="370.0,11.0 366.5,19.1 357.6,20.0 364.3,25.9 362.4,34.5 370.0,30.0 377.6,34.5 375.7,25.9 382.4,20.0 373.5,19.1" fill="#ffc107" stroke="#f57f17" stroke-width="1"/>
<polygon points="28.0,49.0 24.5,57.1 15.6,58.0 22.3,63.9 20.4,72.5 28.0,68.0 35.6,72.5 33.7,63.9 40.4,58.0 31.5,57.1" fill="#ffc107" stroke="#f57f17" stroke-width="1"/>
<polygon points="66.0,49.0 62.5,57.1 53.6,58.0 60.3,63.9 58.4,72.5 66.0,68.0 73.6,72.5 71.7,63.9 78.4,58.0 69.5,57.1" fill="#ffc107" stroke="#f57f17" stroke-width="1"/>
<polygon points="104.0,49.0 100.5,57.1 91.6,58.0 98.3,63.9 96.4,72.5 104.0,68.0 111.6,72.5 109.7,63.9 116.4,58.0 107.5,57.1" fill="#ffc107" stroke="#f57f17" stroke-width="1"/>

  <text x="200.0" y="102" text-anchor="middle" font-family="system-ui" font-size="10" fill="#666">Count: stars</text>
</svg>