<svg viewBox="0 0 180 68" xmlns="http://www.w3.org/2000/svg">
  <circle cx="28" cy="24" r="13" fill="none" stroke="#455a64" stroke-width="3"/>
<circle cx="28" cy="24" r="3" fill="#455a64"/>
<line x1="28" y1="24" x2="38.0" y2="24.0" stroke="#455a64" stroke-width="1"/>
<line x1="28" y1="24" x2="33.0" y2="32.7" stroke="#455a64" stroke-width="1"/>
<line x1="28" y1="24" x2="23.0" y2="32.7" stroke="#455a64" stroke-width="1"/>
<line x1="28" y1="24" x2="18.0" y2="24.0" stroke="#455a64" stroke-width="1"/>
<line x1="28" y1="24" x2="23.0" y2="15.3" stroke="#455a64" stroke-width="1"/>
<line x1="28" y1="24" x2="33.0" y2="15.3" stroke="#455a64" stroke-width="1"/>
<circle cx="66" cy="24" r="13" fill="none" stroke="#455a64" stroke-width="3"/>
<circle cx="66" cy="24" r="3" fill="#455a64"/>
<line x1="66" y1="24" x2="76.0" y2="24.0" stroke="#455a64" stroke-width="1"/>
<line x1="66" y1="24" x2="71.0" y2="32.7" stroke="#455a64" stroke-width="1"/>
<line x1="66" y1="24" x2="61.0" y2="32.7" stroke="#455a64" stroke-width="1"/>
<line x1="66" y1="24" x2="56.0" y2="24.0" stroke="#455a64" stroke-width="1"/>
<line x1="66" y1="24" x2="61.0" y2="15.3" stroke="#455a64" stroke-width="1"/>
<line x1="66" y1="24" x2="71.0" y2="15.3" stroke="#455a64" stroke-width="1"/>
<circle cx="104" cy="24" r="13" fill="none" stroke="#455a64" stroke-width="3"/>
<circle cx="104" cy="24" r="3" fill="#455a64"/>
<line x1="104" y1="24" x2="114.0" y2="24.0" stroke="#455a64" stroke-width="1"/>
<line x1="104" y1="24" x2="109.0" y2="32.7" stroke="#455a64" stroke-width="1"/>
<line x1="104" y1="24" x2="99.0" y2="32.7" stroke="#455a64" stroke-width="1"/>
<line x1="104" y1="24" x2="94.0" y2="24.0" stroke="#455a64" stroke-width="1"/>
<line x1="104" y1="24" x2="99.0" y2="15.3" stroke="#455a64" stroke-width="1"/>
<line x1="104" y1="24" x2="109.0" y2="15.3" stroke="#455a64" stroke-width="1"/>

  <text x="90.0" y="64" text-anchor="middle" font-family="system-ui" font-size="10" fill="#666">Count: wheels</text>
</svg>