<svg viewBox="0 0 400 106" xmlns="http://www.w3.org/2000/svg">
  <circle cx="37.0" cy="24.0" r="5" fill="#e91e63" opacity="0.8"/>
<circle cx="30.8" cy="32.6" r="5" fill="#e91e63" opacity="0.8"/>
<circle cx="20.7" cy="29.3" r="5" fill="#e91e63" opacity="0.8"/>
<circle cx="20.7" cy="18.7" r="5" fill="#e91e63" opacity="0.8"/>
<circle cx="30.8" cy="15.4" r="5" fill="#e91e63" opacity="0.8"/>
<circle cx="28" cy="24" r="5" fill="#ffc107"/>
<circle cx="75.0" cy="24.0" r="5" fill="#e91e63" opacity="0.8"/>
<circle cx="68.8" cy="32.6" r="5" fill="#e91e63" opacity="0.8"/>
<circle cx="58.7" cy="29.3" r="5" fill="#e91e63" opacity="0.8"/>
<circle cx="58.7" cy="18.7" r="5" fill="#e91e63" opacity="0.8"/>
<circle cx="68.8" cy="15.4" r="5" fill="#e91e63" opacity="0.8"/>
<circle cx="66" cy="24" r="5" fill="#ffc107"/>
<circle cx="113.0" cy="24.0" r="5" fill="#e91e63" opacity="0.8"/>
<circle cx="106.8" cy="32.6" r="5" fill="#e91e63" opacity="0.8"/>
<circle cx="96.7" cy="29.3" r="5" fill="#e91e63" opacity="0.8"/>
<circle cx="96.7" cy="18.7" r="5" fill="#e91e63" opacity="0.8"/>
<circle cx="106.8" cy="15.4" r="5" fill="#e91e63" opacity="0.8"/>
<circle cx="104" cy="24" r="5" fill="#ffc107"/>
<circle cx="151.0" cy="24.0" r="5" fill="#e91e63" opacity="0.8"/>
<circle cx="144.8" cy="32.6" r="5" fill="#e91e63" opacity="0.8"/>
<circle cx="134.7" cy="29.3" r="5" fill="#e91e63" opacity="0.8"/>
<circle cx="134.7" cy="18.7" r="5" fill="#e91e63" opacity="0.8"/>
<circle cx="144.8" cy="15.4" r="5" fill="#e91e63" opacity="0.8"/>
<circle cx="142" cy="24" r="5" fill="#ffc107"/>
<circle cx="189.0" cy="24.0" r="5" fill="#e91e63" opacity="0.8"/>
<circle cx="182.8" cy="32.6" r="5" fill="#e91e63" opacity="0.8"/>
<circle cx="172.7" cy="29.3" r="5" fill="#e91e63" opacity="0.8"/>
<circle cx="172.7" cy="18.7" r="5" fill="#e91e63" opacity="0.8"/>
<circle cx="182.8" cy="15.4" r="5" fill="#e91e63" opacity="0.8"/>
<circle cx="180" cy="24" r="5" fill="#ffc107"/>
<circle cx="227.0" cy="24.0" r="5" fill="#e91e63" opacity="0.8"/>
<circle cx="220.8" cy="32.6" r="5" fill="#e91e63" opacity="0.8"/>
<circle cx="210.7" cy="29.3" r="5" fill="#e91e63" opacity="0.8"/>
<circle cx="210.7" cy="18.7" r="5" fill="#e91e63" opacity="0.8"/>
<circle cx="220.8" cy="15.4" r="5" fill="#e91e63" opacity="0.8"/>
<circle cx="218" cy="24" r="5" fill="#ffc107"/>
<circle cx="265.0" cy="24.0" r="5" fill="#e91e63" opacity="0.8"/>
<circle cx="258.8" cy="32.6" r="5" fill="#e91e63" opacity="0.8"/>
<circle cx="248.7" cy="29.3" r="5" fill="#e91e63" opacity="0.8"/>
<circle cx="248.7" cy="18.7" r="5" fill="#e91e63" opacity="0.8"/>
<circle cx="258.8" cy="15.4" r="5" fill="#e91e63" opacity="0.8"/>
<circle cx="256" cy="24" r="5" fill="#ffc107"/>
<circle cx="303.0" cy="24.0" r="5" fill="#e91e63" opacity="0.8"/>
<circle cx="296.8" cy="32.6" r="5" fill="#e91e63" opacity="0.8"/>
<circle cx="286.7" cy="29.3" r="5" fill="#e91e63" opacity="0.8"/>
<circle cx="286.7" cy="18.7" r="5" fill="#e91e63" opacity="0.8"/>
<circle cx="296.8" cy="15.4" r="5" fill="#e91e63" opacity="0.8"/>
<circle cx="294" cy="24" r="5" fill="#ffc107"/>
<circle cx="341.0" cy="24.0" r="5" fill="#e91e63" opacity="0.8"/>
<circle cx="334.8" cy="32.6" r="5" fill="#e91e63" opacity="0.8"/>
<circle cx="324.7" cy="29.3" r="5" fill="#e91e63" opacity="0.8"/>
<circle cx="324.7" cy="18.7" r="5" fill="#e91e63" opacity="0.8"/>
<circle cx="334.8" cy="15.4" r="5" fill="#e91e63" opacity="0.8"/>
<circle cx="332" cy="24" r="5" fill="#ffc107"/>
<circle cx="379.0" cy="24.0" r="5" fill="#e91e63" opacity="0.8"/>
<circle cx="372.8" cy="32.6" r="5" fill="#e91e63" opacity="0.8"/>
<circle cx="362.7" cy="29.3" r="5" fill="#e91e63" opacity="0.8"/>
<circle cx="362.7" cy="18.7" r="5" fill="#e91e63" opacity="0.8"/>
<circle cx="372.8" cy="15.4" r="5" fill="#e91e63" opacity="0.8"/>
<circle cx="370" cy="24" r="5" fill="#ffc107"/>
<circle cx="37.0" cy="62.0" r="5" fill="#e91e63" opacity="0.8"/>
<circle cx="30.8" cy="70.6" r="5" fill="#e91e63" opacity="0.8"/>
<circle cx="20.7" cy="67.3" r="5" fill="#e91e63" opacity="0.8"/>
<circle cx="20.7" cy="56.7" r="5" fill="#e91e63" opacity="0.8"/>
<circle cx="30.8" cy="53.4" r="5" fill="#e91e63" opacity="0.8"/>
<circle cx="28" cy="62" r="5" fill="#ffc107"/>
<circle cx="75.0" cy="62.0" r="5" fill="#e91e63" opacity="0.8"/>
<circle cx="68.8" cy="70.6" r="5" fill="#e91e63" opacity="0.8"/>
<circle cx="58.7" cy="67.3" r="5" fill="#e91e63" opacity="0.8"/>
<circle cx="58.7" cy="56.7" r="5" fill="#e91e63" opacity="0.8"/>
<circle cx="68.8" cy="53.4" r="5" fill="#e91e63" opacity="0.8"/>
<circle cx="66" cy="62" r="5" fill="#ffc107"/>
<circle cx="113.0" cy="62.0" r="5" fill="#e91e63" opacity="0.8"/>
<circle cx="106.8" cy="70.6" r="5" fill="#e91e63" opacity="0.8"/>
<circle cx="96.7" cy="67.3" r="5" fill="#e91e63" opacity="0.8"/>
<circle cx="96.7" cy="56.7" r="5" fill="#e91e63" opacity="0.8"/>
<circle cx="106.8" cy="53.4" r="5" fill="#e91e63" opacity="0.8"/>
<circle cx="104" cy="62" r="5" fill="#ffc107"/>

  <text x="200.0" y="102" text-anchor="middle" font-family="system-ui" font-size="10" fill="#666">Count: flowers</text>
</svg>