<svg viewBox="0 0 150 222" xmlns="http://www.w3.org/2000/svg"><rect width="150" height="222" fill="#f8f8ff" rx="8"/><rect x="15" y="15" width="20" height="20" fill="hsl(0, 65%, 55%)" rx="3"/>
<rect x="39" y="15" width="20" height="20" fill="hsl(17, 65%, 55%)" rx="3"/>
<rect x="63" y="15" width="20" height="20" fill="hsl(34, 65%, 55%)" rx="3"/>
<rect x="87" y="15" width="20" height="20" fill="hsl(51, 65%, 55%)" rx="3"/>
<rect x="111" y="15" width="20" height="20" fill="hsl(68, 65%, 55%)" rx="3"/>
<rect x="15" y="39" width="20" height="20" fill="hsl(85, 65%, 55%)" rx="3"/>
<rect x="39" y="39" width="20" height="20" fill="hsl(102, 65%, 55%)" rx="3"/>
<rect x="63" y="39" width="20" height="20" fill="hsl(119, 65%, 55%)" rx="3"/>
<rect x="87" y="39" width="20" height="20" fill="hsl(136, 65%, 55%)" rx="3"/>
<rect x="111" y="39" width="20" height="20" fill="hsl(153, 65%, 55%)" rx="3"/>
<rect x="15" y="63" width="20" height="20" fill="hsl(170, 65%, 55%)" rx="3"/>
<rect x="39" y="63" width="20" height="20" fill="hsl(187, 65%, 55%)" rx="3"/>
<rect x="63" y="63" width="20" height="20" fill="hsl(204, 65%, 55%)" rx="3"/>
<rect x="87" y="63" width="20" height="20" fill="hsl(221, 65%, 55%)" rx="3"/>
<rect x="111" y="63" width="20" height="20" fill="hsl(238, 65%, 55%)" rx="3"/>
<rect x="15" y="87" width="20" height="20" fill="hsl(255, 65%, 55%)" rx="3"/>
<rect x="39" y="87" width="20" height="20" fill="hsl(272, 65%, 55%)" rx="3"/>
<rect x="63" y="87" width="20" height="20" fill="hsl(289, 65%, 55%)" rx="3"/>
<rect x="87" y="87" width="20" height="20" fill="hsl(306, 65%, 55%)" rx="3"/>
<rect x="111" y="87" width="20" height="20" fill="hsl(323, 65%, 55%)" rx="3"/>
<rect x="15" y="111" width="20" height="20" fill="hsl(340, 65%, 55%)" rx="3"/>
<rect x="39" y="111" width="20" height="20" fill="hsl(357, 65%, 55%)" rx="3"/>
<rect x="63" y="111" width="20" height="20" fill="hsl(14, 65%, 55%)" rx="3"/>
<rect x="87" y="111" width="20" height="20" fill="hsl(31, 65%, 55%)" rx="3"/>
<rect x="111" y="111" width="20" height="20" fill="hsl(48, 65%, 55%)" rx="3"/>
<rect x="15" y="135" width="20" height="20" fill="hsl(65, 65%, 55%)" rx="3"/>
<rect x="39" y="135" width="20" height="20" fill="hsl(82, 65%, 55%)" rx="3"/>
<rect x="63" y="135" width="20" height="20" fill="hsl(99, 65%, 55%)" rx="3"/>
<rect x="87" y="135" width="20" height="20" fill="hsl(116, 65%, 55%)" rx="3"/>
<rect x="111" y="135" width="20" height="20" fill="hsl(133, 65%, 55%)" rx="3"/>
<rect x="15" y="159" width="20" height="20" fill="hsl(150, 65%, 55%)" rx="3"/>
<rect x="39" y="159" width="20" height="20" fill="hsl(167, 65%, 55%)" rx="3"/>
<rect x="63" y="159" width="20" height="20" fill="hsl(184, 65%, 55%)" rx="3"/>
<rect x="87" y="159" width="20" height="20" fill="hsl(201, 65%, 55%)" rx="3"/>
<rect x="111" y="159" width="20" height="20" fill="hsl(218, 65%, 55%)" rx="3"/>
<rect x="15" y="183" width="20" height="20" fill="hsl(235, 65%, 55%)" rx="3"/>
<rect x="39" y="183" width="20" height="20" fill="hsl(252, 65%, 55%)" rx="3"/>
<rect x="63" y="183" width="20" height="20" fill="hsl(269, 65%, 55%)" rx="3"/>
<rect x="87" y="183" width="20" height="20" fill="hsl(286, 65%, 55%)" rx="3"/>
<rect x="111" y="183" width="20" height="20" fill="hsl(303, 65%, 55%)" rx="3"/></svg>