<svg viewBox="0 0 108 212" xmlns="http://www.w3.org/2000/svg"><rect width="108" height="212" fill="#f8f8ff" rx="8"/><rect x="15" y="15" width="22" height="22" fill="hsl(0, 65%, 55%)" rx="3"/>
<rect x="41" y="15" width="22" height="22" fill="hsl(17, 65%, 55%)" rx="3"/>
<rect x="67" y="15" width="22" height="22" fill="hsl(34, 65%, 55%)" rx="3"/>
<rect x="15" y="41" width="22" height="22" fill="hsl(51, 65%, 55%)" rx="3"/>
<rect x="41" y="41" width="22" height="22" fill="hsl(68, 65%, 55%)" rx="3"/>
<rect x="67" y="41" width="22" height="22" fill="hsl(85, 65%, 55%)" rx="3"/>
<rect x="15" y="67" width="22" height="22" fill="hsl(102, 65%, 55%)" rx="3"/>
<rect x="41" y="67" width="22" height="22" fill="hsl(119, 65%, 55%)" rx="3"/>
<rect x="67" y="67" width="22" height="22" fill="hsl(136, 65%, 55%)" rx="3"/>
<rect x="15" y="93" width="22" height="22" fill="hsl(153, 65%, 55%)" rx="3"/>
<rect x="41" y="93" width="22" height="22" fill="hsl(170, 65%, 55%)" rx="3"/>
<rect x="67" y="93" width="22" height="22" fill="hsl(187, 65%, 55%)" rx="3"/>
<rect x="15" y="119" width="22" height="22" fill="hsl(204, 65%, 55%)" rx="3"/>
<rect x="41" y="119" width="22" height="22" fill="hsl(221, 65%, 55%)" rx="3"/>
<rect x="67" y="119" width="22" height="22" fill="hsl(238, 65%, 55%)" rx="3"/>
<rect x="15" y="145" width="22" height="22" fill="hsl(255, 65%, 55%)" rx="3"/>
<rect x="41" y="145" width="22" height="22" fill="hsl(272, 65%, 55%)" rx="3"/>
<rect x="67" y="145" width="22" height="22" fill="hsl(289, 65%, 55%)" rx="3"/>
<rect x="15" y="171" width="22" height="22" fill="hsl(306, 65%, 55%)" rx="3"/>
<rect x="41" y="171" width="22" height="22" fill="hsl(323, 65%, 55%)" rx="3"/>
<rect x="67" y="171" width="22" height="22" fill="hsl(340, 65%, 55%)" rx="3"/></svg>