<svg viewBox="0 0 212 82" xmlns="http://www.w3.org/2000/svg"><rect width="212" height="82" fill="#f8f8ff" rx="8"/><rect x="15" y="15" width="22" height="22" fill="hsl(0, 65%, 55%)" rx="3"/>
<rect x="41" y="15" width="22" height="22" fill="hsl(17, 65%, 55%)" rx="3"/>
<rect x="67" y="15" width="22" height="22" fill="hsl(34, 65%, 55%)" rx="3"/>
<rect x="93" y="15" width="22" height="22" fill="hsl(51, 65%, 55%)" rx="3"/>
<rect x="119" y="15" width="22" height="22" fill="hsl(68, 65%, 55%)" rx="3"/>
<rect x="145" y="15" width="22" height="22" fill="hsl(85, 65%, 55%)" rx="3"/>
<rect x="171" y="15" width="22" height="22" fill="hsl(102, 65%, 55%)" rx="3"/>
<rect x="15" y="41" width="22" height="22" fill="hsl(119, 65%, 55%)" rx="3"/>
<rect x="41" y="41" width="22" height="22" fill="hsl(136, 65%, 55%)" rx="3"/>
<rect x="67" y="41" width="22" height="22" fill="hsl(153, 65%, 55%)" rx="3"/>
<rect x="93" y="41" width="22" height="22" fill="hsl(170, 65%, 55%)" rx="3"/>
<rect x="119" y="41" width="22" height="22" fill="hsl(187, 65%, 55%)" rx="3"/>
<rect x="145" y="41" width="22" height="22" fill="hsl(204, 65%, 55%)" rx="3"/>
<rect x="171" y="41" width="22" height="22" fill="hsl(221, 65%, 55%)" rx="3"/></svg>