<svg viewBox="0 0 215 90" xmlns="http://www.w3.org/2000/svg"><rect width="215" height="90" fill="#f5f5f5" rx="8"/><rect x="30" y="30" width="40" height="40" fill="#90CAF9" stroke="#1565C0" stroke-width="2" rx="3"/>
<polygon points="30,30 40,20 80,20 70,30" fill="#BBDEFB" stroke="#1565C0" stroke-width="1.5"/>
<polygon points="70,30 80,20 80,60 70,70" fill="#64B5F6" stroke="#1565C0" stroke-width="1.5"/>
<rect x="85" y="30" width="40" height="40" fill="#90CAF9" stroke="#1565C0" stroke-width="2" rx="3"/>
<polygon points="85,30 95,20 135,20 125,30" fill="#BBDEFB" stroke="#1565C0" stroke-width="1.5"/>
<polygon points="125,30 135,20 135,60 125,70" fill="#64B5F6" stroke="#1565C0" stroke-width="1.5"/>
<rect x="140" y="30" width="40" height="40" fill="#90CAF9" stroke="#1565C0" stroke-width="2" rx="3"/>
<polygon points="140,30 150,20 190,20 180,30" fill="#BBDEFB" stroke="#1565C0" stroke-width="1.5"/>
<polygon points="180,30 190,20 190,60 180,70" fill="#64B5F6" stroke="#1565C0" stroke-width="1.5"/></svg>