<svg xmlns="http://www.w3.org/2000/svg" viewBox="0 0 400 120"><rect width="400" height="120" fill="#FFF9E6" rx="8"/><line x1="40" y1="60" x2="360" y2="60" stroke="#333" stroke-width="2"/><line x1="40.0" y1="54" x2="40.0" y2="66" stroke="#333" stroke-width="1.5"/><text x="40.0" y="82" text-anchor="middle" font-size="10" fill="#555">0</text><line x1="72.0" y1="54" x2="72.0" y2="66" stroke="#333" stroke-width="1.5"/><text x="72.0" y="82" text-anchor="middle" font-size="10" fill="#555">10</text><line x1="104.0" y1="54" x2="104.0" y2="66" stroke="#333" stroke-width="1.5"/><text x="104.0" y="82" text-anchor="middle" font-size="10" fill="#555">20</text><line x1="136.0" y1="54" x2="136.0" y2="66" stroke="#333" stroke-width="1.5"/><text x="136.0" y="82" text-anchor="middle" font-size="10" fill="#555">30</text><line x1="168.0" y1="54" x2="168.0" y2="66" stroke="#333" stroke-width="1.5"/><text x="168.0" y="82" text-anchor="middle" font-size="10" fill="#555">40</text><line x1="200.0" y1="54" x2="200.0" y2="66" stroke="#333" stroke-width="1.5"/><text x="200.0" y="82" text-anchor="middle" font-size="10" fill="#555">50</text><line x1="232.0" y1="54" x2="232.0" y2="66" stroke="#333" stroke-width="1.5"/><text x="232.0" y="82" text-anchor="middle" font-size="10" fill="#555">60</text><line x1="264.0" y1="54" x2="264.0" y2="66" stroke="#333" stroke-width="1.5"/><text x="264.0" y="82" text-anchor="middle" font-size="10" fill="#555">70</text><line x1="296.0" y1="54" x2="296.0" y2="66" stroke="#333" stroke-width="1.5"/><text x="296.0" y="82" text-anchor="middle" font-size="10" fill="#555">80</text><line x1="328.0" y1="54" x2="328.0" y2="66" stroke="#333" stroke-width="1.5"/><text x="328.0" y="82" text-anchor="middle" font-size="10" fill="#555">90</text><line x1="360.0" y1="54" x2="360.0" y2="66" stroke="#333" stroke-width="1.5"/><text x="360.0" y="82" text-anchor="middle" font-size="10" fill="#555">100</text><circle cx="40.0" cy="60" r="6" fill="#E74C3C"/><text x="40.0" y="48" text-anchor="middle" font-size="11" font-weight="bold" fill="#E74C3C">0</text></svg>