<svg xmlns="http://www.w3.org/2000/svg" viewBox="0 0 400 200"><rect width="400" height="200" fill="#E8F5E9" rx="8"/><rect x="0" y="160" width="400" height="40" fill="#81C784" rx="0 0 8 8"/><rect x="20" y="130" width="4" height="35" fill="#8D6E63"/><rect x="70" y="130" width="4" height="35" fill="#8D6E63"/><rect x="120" y="130" width="4" height="35" fill="#8D6E63"/><rect x="170" y="130" width="4" height="35" fill="#8D6E63"/><rect x="220" y="130" width="4" height="35" fill="#8D6E63"/><rect x="270" y="130" width="4" height="35" fill="#8D6E63"/><rect x="320" y="130" width="4" height="35" fill="#8D6E63"/><rect x="370" y="130" width="4" height="35" fill="#8D6E63"/><rect x="10" y="140" width="380" height="3" fill="#A1887F"/><ellipse cx="40" cy="40" rx="10" ry="12" fill="#F5F5DC"/><ellipse cx="36" cy="24" rx="3" ry="8" fill="#F5F5DC" stroke="#CCC"/><ellipse cx="44" cy="24" rx="3" ry="8" fill="#F5F5DC" stroke="#CCC"/><circle cx="37" cy="37" r="1.5" fill="#333"/><circle cx="43" cy="37" r="1.5" fill="#333"/><ellipse cx="90" cy="38" rx="10" ry="10" fill="#FFF9C4"/><circle cx="90" cy="28" r="6" fill="#FFF9C4"/><polygon points="96,28 102,29 96,30" fill="#FF9800"/><circle cx="88" cy="27" r="1.5" fill="#333"/><polygon points="88,32 90,35 92,32" fill="#E53935"/><ellipse cx="140" cy="38" rx="10" ry="10" fill="#FFF9C4"/><circle cx="140" cy="28" r="6" fill="#FFF9C4"/><polygon points="146,28 152,29 146,30" fill="#FF9800"/><circle cx="138" cy="27" r="1.5" fill="#333"/><polygon points="138,32 140,35 142,32" fill="#E53935"/><ellipse cx="190" cy="40" rx="10" ry="12" fill="#F5F5DC"/><ellipse cx="186" cy="24" rx="3" ry="8" fill="#F5F5DC" stroke="#CCC"/><ellipse cx="194" cy="24" rx="3" ry="8" fill="#F5F5DC" stroke="#CCC"/><circle cx="187" cy="37" r="1.5" fill="#333"/><circle cx="193" cy="37" r="1.5" fill="#333"/><ellipse cx="240" cy="38" rx="10" ry="10" fill="#FFF9C4"/><circle cx="240" cy="28" r="6" fill="#FFF9C4"/><polygon points="246,28 252,29 246,30" fill="#FF9800"/><circle cx="238" cy="27" r="1.5" fill="#333"/><polygon points="238,32 240,35 242,32" fill="#E53935"/><ellipse cx="290" cy="38" rx="10" ry="10" fill="#FFF9C4"/><circle cx="290" cy="28" r="6" fill="#FFF9C4"/><polygon points="296,28 302,29 296,30" fill="#FF9800"/><circle cx="288" cy="27" r="1.5" fill="#333"/><polygon points="288,32 290,35 292,32" fill="#E53935"/><ellipse cx="340" cy="40" rx="10" ry="12" fill="#F5F5DC"/><ellipse cx="336" cy="24" rx="3" ry="8" fill="#F5F5DC" stroke="#CCC"/><ellipse cx="344" cy="24" rx="3" ry="8" fill="#F5F5DC" stroke="#CCC"/><circle cx="337" cy="37" r="1.5" fill="#333"/><circle cx="343" cy="37" r="1.5" fill="#333"/><ellipse cx="40" cy="88" rx="10" ry="10" fill="#FFF9C4"/><circle cx="40" cy="78" r="6" fill="#FFF9C4"/><polygon points="46,78 52,79 46,80" fill="#FF9800"/><circle cx="38" cy="77" r="1.5" fill="#333"/><polygon points="38,82 40,85 42,82" fill="#E53935"/><ellipse cx="90" cy="88" rx="10" ry="10" fill="#FFF9C4"/><circle cx="90" cy="78" r="6" fill="#FFF9C4"/><polygon points="96,78 102,79 96,80" fill="#FF9800"/><circle cx="88" cy="77" r="1.5" fill="#333"/><polygon points="88,82 90,85 92,82" fill="#E53935"/><ellipse cx="140" cy="90" rx="10" ry="12" fill="#F5F5DC"/><ellipse cx="136" cy="74" rx="3" ry="8" fill="#F5F5DC" stroke="#CCC"/><ellipse cx="144" cy="74" rx="3" ry="8" fill="#F5F5DC" stroke="#CCC"/><circle cx="137" cy="87" r="1.5" fill="#333"/><circle cx="143" cy="87" r="1.5" fill="#333"/><ellipse cx="190" cy="88" rx="10" ry="10" fill="#FFF9C4"/><circle cx="190" cy="78" r="6" fill="#FFF9C4"/><polygon points="196,78 202,79 196,80" fill="#FF9800"/><circle cx="188" cy="77" r="1.5" fill="#333"/><polygon points="188,82 190,85 192,82" fill="#E53935"/><ellipse cx="240" cy="88" rx="10" ry="10" fill="#FFF9C4"/><circle cx="240" cy="78" r="6" fill="#FFF9C4"/><polygon points="246,78 252,79 246,80" fill="#FF9800"/><circle cx="238" cy="77" r="1.5" fill="#333"/><polygon points="238,82 240,85 242,82" fill="#E53935"/><ellipse cx="290" cy="90" rx="10" ry="12" fill="#F5F5DC"/><ellipse cx="286" cy="74" rx="3" ry="8" fill="#F5F5DC" stroke="#CCC"/><ellipse cx="294" cy="74" rx="3" ry="8" fill="#F5F5DC" stroke="#CCC"/><circle cx="287" cy="87" r="1.5" fill="#333"/><circle cx="293" cy="87" r="1.5" fill="#333"/><ellipse cx="340" cy="88" rx="10" ry="10" fill="#FFF9C4"/><circle cx="340" cy="78" r="6" fill="#FFF9C4"/><polygon points="346,78 352,79 346,80" fill="#FF9800"/><circle cx="338" cy="77" r="1.5" fill="#333"/><polygon points="338,82 340,85 342,82" fill="#E53935"/><ellipse cx="40" cy="138" rx="10" ry="10" fill="#FFF9C4"/><circle cx="40" cy="128" r="6" fill="#FFF9C4"/><polygon points="46,128 52,129 46,130" fill="#FF9800"/><circle cx="38" cy="127" r="1.5" fill="#333"/><polygon points="38,132 40,135 42,132" fill="#E53935"/><text x="200.0" y="190" text-anchor="middle" font-size="12" fill="#2E7D32">15 animals on the farm</text></svg>