<svg xmlns="http://www.w3.org/2000/svg" viewBox="0 0 285 320"><rect width="285" height="320" fill="#F3E5F5" rx="8"/><rect x="20" y="20" width="31" height="31" fill="#CE93D8" rx="4" stroke="#AB47BC" stroke-width="1"/><rect x="55" y="20" width="31" height="31" fill="#CE93D8" rx="4" stroke="#AB47BC" stroke-width="1"/><rect x="90" y="20" width="31" height="31" fill="#CE93D8" rx="4" stroke="#AB47BC" stroke-width="1"/><rect x="125" y="20" width="31" height="31" fill="#CE93D8" rx="4" stroke="#AB47BC" stroke-width="1"/><rect x="160" y="20" width="31" height="31" fill="#CE93D8" rx="4" stroke="#AB47BC" stroke-width="1"/><rect x="195" y="20" width="31" height="31" fill="#CE93D8" rx="4" stroke="#AB47BC" stroke-width="1"/><rect x="230" y="20" width="31" height="31" fill="#CE93D8" rx="4" stroke="#AB47BC" stroke-width="1"/><rect x="20" y="55" width="31" height="31" fill="#CE93D8" rx="4" stroke="#AB47BC" stroke-width="1"/><rect x="55" y="55" width="31" height="31" fill="#CE93D8" rx="4" stroke="#AB47BC" stroke-width="1"/><rect x="90" y="55" width="31" height="31" fill="#CE93D8" rx="4" stroke="#AB47BC" stroke-width="1"/><rect x="125" y="55" width="31" height="31" fill="#CE93D8" rx="4" stroke="#AB47BC" stroke-width="1"/><rect x="160" y="55" width="31" height="31" fill="#CE93D8" rx="4" stroke="#AB47BC" stroke-width="1"/><rect x="195" y="55" width="31" height="31" fill="#CE93D8" rx="4" stroke="#AB47BC" stroke-width="1"/><rect x="230" y="55" width="31" height="31" fill="#CE93D8" rx="4" stroke="#AB47BC" stroke-width="1"/><rect x="20" y="90" width="31" height="31" fill="#CE93D8" rx="4" stroke="#AB47BC" stroke-width="1"/><rect x="55" y="90" width="31" height="31" fill="#CE93D8" rx="4" stroke="#AB47BC" stroke-width="1"/><rect x="90" y="90" width="31" height="31" fill="#CE93D8" rx="4" stroke="#AB47BC" stroke-width="1"/><rect x="125" y="90" width="31" height="31" fill="#CE93D8" rx="4" stroke="#AB47BC" stroke-width="1"/><rect x="160" y="90" width="31" height="31" fill="#CE93D8" rx="4" stroke="#AB47BC" stroke-width="1"/><rect x="195" y="90" width="31" height="31" fill="#CE93D8" rx="4" stroke="#AB47BC" stroke-width="1"/><rect x="230" y="90" width="31" height="31" fill="#CE93D8" rx="4" stroke="#AB47BC" stroke-width="1"/><rect x="20" y="125" width="31" height="31" fill="#CE93D8" rx="4" stroke="#AB47BC" stroke-width="1"/><rect x="55" y="125" width="31" height="31" fill="#CE93D8" rx="4" stroke="#AB47BC" stroke-width="1"/><rect x="90" y="125" width="31" height="31" fill="#CE93D8" rx="4" stroke="#AB47BC" stroke-width="1"/><rect x="125" y="125" width="31" height="31" fill="#CE93D8" rx="4" stroke="#AB47BC" stroke-width="1"/><rect x="160" y="125" width="31" height="31" fill="#CE93D8" rx="4" stroke="#AB47BC" stroke-width="1"/><rect x="195" y="125" width="31" height="31" fill="#CE93D8" rx="4" stroke="#AB47BC" stroke-width="1"/><rect x="230" y="125" width="31" height="31" fill="#CE93D8" rx="4" stroke="#AB47BC" stroke-width="1"/><rect x="20" y="160" width="31" height="31" fill="#CE93D8" rx="4" stroke="#AB47BC" stroke-width="1"/><rect x="55" y="160" width="31" height="31" fill="#CE93D8" rx="4" stroke="#AB47BC" stroke-width="1"/><rect x="90" y="160" width="31" height="31" fill="#CE93D8" rx="4" stroke="#AB47BC" stroke-width="1"/><rect x="125" y="160" width="31" height="31" fill="#CE93D8" rx="4" stroke="#AB47BC" stroke-width="1"/><rect x="160" y="160" width="31" height="31" fill="#CE93D8" rx="4" stroke="#AB47BC" stroke-width="1"/><rect x="195" y="160" width="31" height="31" fill="#CE93D8" rx="4" stroke="#AB47BC" stroke-width="1"/><rect x="230" y="160" width="31" height="31" fill="#CE93D8" rx="4" stroke="#AB47BC" stroke-width="1"/><rect x="20" y="195" width="31" height="31" fill="#CE93D8" rx="4" stroke="#AB47BC" stroke-width="1"/><rect x="55" y="195" width="31" height="31" fill="#CE93D8" rx="4" stroke="#AB47BC" stroke-width="1"/><rect x="90" y="195" width="31" height="31" fill="#CE93D8" rx="4" stroke="#AB47BC" stroke-width="1"/><rect x="125" y="195" width="31" height="31" fill="#CE93D8" rx="4" stroke="#AB47BC" stroke-width="1"/><rect x="160" y="195" width="31" height="31" fill="#CE93D8" rx="4" stroke="#AB47BC" stroke-width="1"/><rect x="195" y="195" width="31" height="31" fill="#CE93D8" rx="4" stroke="#AB47BC" stroke-width="1"/><rect x="230" y="195" width="31" height="31" fill="#CE93D8" rx="4" stroke="#AB47BC" stroke-width="1"/><rect x="20" y="230" width="31" height="31" fill="#CE93D8" rx="4" stroke="#AB47BC" stroke-width="1"/><rect x="55" y="230" width="31" height="31" fill="#CE93D8" rx="4" stroke="#AB47BC" stroke-width="1"/><rect x="90" y="230" width="31" height="31" fill="#CE93D8" rx="4" stroke="#AB47BC" stroke-width="1"/><rect x="125" y="230" width="31" height="31" fill="#CE93D8" rx="4" stroke="#AB47BC" stroke-width="1"/><rect x="160" y="230" width="31" height="31" fill="#CE93D8" rx="4" stroke="#AB47BC" stroke-width="1"/><rect x="195" y="230" width="31" height="31" fill="#CE93D8" rx="4" stroke="#AB47BC" stroke-width="1"/><rect x="230" y="230" width="31" height="31" fill="#CE93D8" rx="4" stroke="#AB47BC" stroke-width="1"/><rect x="20" y="265" width="31" height="31" fill="#CE93D8" rx="4" stroke="#AB47BC" stroke-width="1"/><rect x="55" y="265" width="31" height="31" fill="#CE93D8" rx="4" stroke="#AB47BC" stroke-width="1"/><rect x="90" y="265" width="31" height="31" fill="#CE93D8" rx="4" stroke="#AB47BC" stroke-width="1"/><rect x="125" y="265" width="31" height="31" fill="#CE93D8" rx="4" stroke="#AB47BC" stroke-width="1"/><rect x="160" y="265" width="31" height="31" fill="#CE93D8" rx="4" stroke="#AB47BC" stroke-width="1"/><rect x="195" y="265" width="31" height="31" fill="#CE93D8" rx="4" stroke="#AB47BC" stroke-width="1"/><rect x="230" y="265" width="31" height="31" fill="#CE93D8" rx="4" stroke="#AB47BC" stroke-width="1"/></svg>