<?xml version="1.0" encoding="UTF-8" standalone="no"?>
<!DOCTYPE svg PUBLIC "-//W3C//DTD SVG 1.1//EN"
 "http://www.w3.org/Graphics/SVG/1.1/DTD/svg11.dtd">
<!-- Generated by graphviz version 2.43.0 (0)
 -->
<!-- Title: concept_dag_grade1 Pages: 1 -->
<svg width="1089pt" height="428pt"
 viewBox="0.00 0.00 1089.00 428.00" xmlns="http://www.w3.org/2000/svg" xmlns:xlink="http://www.w3.org/1999/xlink">
<g id="graph0" class="graph" transform="scale(1 1) rotate(0) translate(4 424)">
<title>concept_dag_grade1</title>
<polygon fill="white" stroke="transparent" points="-4,4 -4,-424 1085,-424 1085,4 -4,4"/>
<g id="clust1" class="cluster">
<title>cluster_number_island</title>
<polygon fill="white" stroke="#4a90d9" stroke-dasharray="5,2" points="8,-8 8,-412 607,-412 607,-8 8,-8"/>
<text text-anchor="middle" x="307.5" y="-397.6" font-family="Arial" font-size="13.00" fill="#4a90d9">Number Island</text>
</g>
<g id="clust2" class="cluster">
<title>cluster_shape_forest</title>
<polygon fill="white" stroke="#27ae60" stroke-dasharray="5,2" points="758,-225 758,-412 1073,-412 1073,-225 758,-225"/>
<text text-anchor="middle" x="915.5" y="-397.6" font-family="Arial" font-size="13.00" fill="#27ae60">Shape Forest</text>
</g>
<g id="clust3" class="cluster">
<title>cluster_pattern_cave</title>
<polygon fill="white" stroke="#8e44ad" stroke-dasharray="5,2" points="615,-225 615,-299 731,-299 731,-225 615,-225"/>
<text text-anchor="middle" x="673" y="-284.6" font-family="Arial" font-size="13.00" fill="#8e44ad">Pattern Cave</text>
</g>
<g id="clust4" class="cluster">
<title>cluster_measure_mountain</title>
<polygon fill="white" stroke="#e67e22" stroke-dasharray="5,2" points="615,-8 615,-82 799,-82 799,-8 615,-8"/>
<text text-anchor="middle" x="707" y="-67.6" font-family="Arial" font-size="13.00" fill="#e67e22">Measure Mountain</text>
</g>
<!-- counting.one_to_one -->
<g id="node1" class="node">
<title>counting.one_to_one</title>
<path fill="#ff6b6b" stroke="black" d="M363,-382C363,-382 261,-382 261,-382 255,-382 249,-376 249,-370 249,-370 249,-358 249,-358 249,-352 255,-346 261,-346 261,-346 363,-346 363,-346 369,-346 375,-352 375,-358 375,-358 375,-370 375,-370 375,-376 369,-382 363,-382"/>
<text text-anchor="middle" x="312" y="-367.2" font-family="Arial" font-size="11.00" fill="white">counting.one_to_one</text>
<text text-anchor="middle" x="312" y="-355.2" font-family="Arial" font-size="11.00" fill="white">One&#45;to&#45;One Counting</text>
</g>
<!-- counting.cardinality -->
<g id="node3" class="node">
<title>counting.cardinality</title>
<path fill="#f8e8a0" stroke="black" d="M357,-269C357,-269 267,-269 267,-269 261,-269 255,-263 255,-257 255,-257 255,-245 255,-245 255,-239 261,-233 267,-233 267,-233 357,-233 357,-233 363,-233 369,-239 369,-245 369,-245 369,-257 369,-257 369,-263 363,-269 357,-269"/>
<text text-anchor="middle" x="312" y="-254.2" font-family="Arial" font-size="11.00">counting.cardinality</text>
<text text-anchor="middle" x="312" y="-242.2" font-family="Arial" font-size="11.00">Cardinality</text>
</g>
<!-- counting.one_to_one&#45;&gt;counting.cardinality -->
<g id="edge1" class="edge">
<title>counting.one_to_one&#45;&gt;counting.cardinality</title>
<path fill="none" stroke="#2c3e50" stroke-width="2" d="M312,-345.66C312,-327.9 312,-300.04 312,-279.32"/>
<polygon fill="#2c3e50" stroke="#2c3e50" stroke-width="2" points="315.5,-279.22 312,-269.22 308.5,-279.22 315.5,-279.22"/>
</g>
<!-- counting.subitizing -->
<g id="node4" class="node">
<title>counting.subitizing</title>
<path fill="#f8e8a0" stroke="black" d="M198,-269C198,-269 112,-269 112,-269 106,-269 100,-263 100,-257 100,-257 100,-245 100,-245 100,-239 106,-233 112,-233 112,-233 198,-233 198,-233 204,-233 210,-239 210,-245 210,-245 210,-257 210,-257 210,-263 204,-269 198,-269"/>
<text text-anchor="middle" x="155" y="-254.2" font-family="Arial" font-size="11.00">counting.subitizing</text>
<text text-anchor="middle" x="155" y="-242.2" font-family="Arial" font-size="11.00">Subitizing</text>
</g>
<!-- counting.one_to_one&#45;&gt;counting.subitizing -->
<g id="edge10" class="edge">
<title>counting.one_to_one&#45;&gt;counting.subitizing</title>
<path fill="none" stroke="#7f8c8d" stroke-dasharray="5,2" d="M287.81,-345.9C260.96,-326.91 217.48,-296.17 187.63,-275.07"/>
<polygon fill="#7f8c8d" stroke="#7f8c8d" points="189.4,-272.04 179.21,-269.12 185.36,-277.75 189.4,-272.04"/>
<text text-anchor="middle" x="249.5" y="-309.8" font-family="Arial" font-size="9.00">soft</text>
</g>
<!-- patterns.simple -->
<g id="node9" class="node">
<title>patterns.simple</title>
<path fill="#95e1d3" stroke="black" d="M710.5,-269C710.5,-269 635.5,-269 635.5,-269 629.5,-269 623.5,-263 623.5,-257 623.5,-257 623.5,-245 623.5,-245 623.5,-239 629.5,-233 635.5,-233 635.5,-233 710.5,-233 710.5,-233 716.5,-233 722.5,-239 722.5,-245 722.5,-245 722.5,-257 722.5,-257 722.5,-263 716.5,-269 710.5,-269"/>
<text text-anchor="middle" x="673" y="-254.2" font-family="Arial" font-size="11.00">patterns.simple</text>
<text text-anchor="middle" x="673" y="-242.2" font-family="Arial" font-size="11.00">Simple Patterns</text>
</g>
<!-- counting.one_to_one&#45;&gt;patterns.simple -->
<g id="edge11" class="edge">
<title>counting.one_to_one&#45;&gt;patterns.simple</title>
<path fill="none" stroke="#7f8c8d" stroke-dasharray="5,2" d="M375.06,-358.78C438.85,-352.49 538.9,-336.97 617,-299 628.77,-293.28 640.15,-284.54 649.53,-276.14"/>
<polygon fill="#7f8c8d" stroke="#7f8c8d" points="652,-278.63 656.92,-269.24 647.22,-273.51 652,-278.63"/>
<text text-anchor="middle" x="601.5" y="-309.8" font-family="Arial" font-size="9.00">soft</text>
</g>
<!-- shapes.2d_basic -->
<g id="node2" class="node">
<title>shapes.2d_basic</title>
<path fill="#ff6b6b" stroke="black" d="M952.5,-382C952.5,-382 873.5,-382 873.5,-382 867.5,-382 861.5,-376 861.5,-370 861.5,-370 861.5,-358 861.5,-358 861.5,-352 867.5,-346 873.5,-346 873.5,-346 952.5,-346 952.5,-346 958.5,-346 964.5,-352 964.5,-358 964.5,-358 964.5,-370 964.5,-370 964.5,-376 958.5,-382 952.5,-382"/>
<text text-anchor="middle" x="913" y="-367.2" font-family="Arial" font-size="11.00" fill="white">shapes.2d_basic</text>
<text text-anchor="middle" x="913" y="-355.2" font-family="Arial" font-size="11.00" fill="white">2D Shapes</text>
</g>
<!-- spatial.mirror_reflection -->
<g id="node13" class="node">
<title>spatial.mirror_reflection</title>
<path fill="#95e1d3" stroke="black" d="M1053,-269C1053,-269 943,-269 943,-269 937,-269 931,-263 931,-257 931,-257 931,-245 931,-245 931,-239 937,-233 943,-233 943,-233 1053,-233 1053,-233 1059,-233 1065,-239 1065,-245 1065,-245 1065,-257 1065,-257 1065,-263 1059,-269 1053,-269"/>
<text text-anchor="middle" x="998" y="-254.2" font-family="Arial" font-size="11.00">spatial.mirror_reflection</text>
<text text-anchor="middle" x="998" y="-242.2" font-family="Arial" font-size="11.00">Mirror Reflection</text>
</g>
<!-- shapes.2d_basic&#45;&gt;spatial.mirror_reflection -->
<g id="edge8" class="edge">
<title>shapes.2d_basic&#45;&gt;spatial.mirror_reflection</title>
<path fill="none" stroke="#2c3e50" stroke-width="2" d="M926.28,-345.66C940.32,-327.33 962.59,-298.24 978.59,-277.34"/>
<polygon fill="#2c3e50" stroke="#2c3e50" stroke-width="2" points="981.51,-279.29 984.81,-269.22 975.95,-275.03 981.51,-279.29"/>
</g>
<!-- spatial.perspective -->
<g id="node14" class="node">
<title>spatial.perspective</title>
<path fill="#95e1d3" stroke="black" d="M876,-269C876,-269 778,-269 778,-269 772,-269 766,-263 766,-257 766,-257 766,-245 766,-245 766,-239 772,-233 778,-233 778,-233 876,-233 876,-233 882,-233 888,-239 888,-245 888,-245 888,-257 888,-257 888,-263 882,-269 876,-269"/>
<text text-anchor="middle" x="827" y="-254.2" font-family="Arial" font-size="11.00">spatial.perspective</text>
<text text-anchor="middle" x="827" y="-242.2" font-family="Arial" font-size="11.00">Perspective &amp; Views</text>
</g>
<!-- shapes.2d_basic&#45;&gt;spatial.perspective -->
<g id="edge9" class="edge">
<title>shapes.2d_basic&#45;&gt;spatial.perspective</title>
<path fill="none" stroke="#2c3e50" stroke-width="2" d="M899.56,-345.66C885.36,-327.33 862.83,-298.24 846.64,-277.34"/>
<polygon fill="#2c3e50" stroke="#2c3e50" stroke-width="2" points="849.23,-274.98 840.34,-269.22 843.7,-279.27 849.23,-274.98"/>
</g>
<!-- counting.compare -->
<g id="node5" class="node">
<title>counting.compare</title>
<path fill="#f8e8a0" stroke="black" d="M439.5,-165C439.5,-165 348.5,-165 348.5,-165 342.5,-165 336.5,-159 336.5,-153 336.5,-153 336.5,-141 336.5,-141 336.5,-135 342.5,-129 348.5,-129 348.5,-129 439.5,-129 439.5,-129 445.5,-129 451.5,-135 451.5,-141 451.5,-141 451.5,-153 451.5,-153 451.5,-159 445.5,-165 439.5,-165"/>
<text text-anchor="middle" x="394" y="-150.2" font-family="Arial" font-size="11.00">counting.compare</text>
<text text-anchor="middle" x="394" y="-138.2" font-family="Arial" font-size="11.00">Compare Numbers</text>
</g>
<!-- counting.cardinality&#45;&gt;counting.compare -->
<g id="edge3" class="edge">
<title>counting.cardinality&#45;&gt;counting.compare</title>
<path fill="none" stroke="#2c3e50" stroke-width="2" d="M325.91,-232.7C339.07,-216.33 358.96,-191.59 373.85,-173.07"/>
<polygon fill="#2c3e50" stroke="#2c3e50" stroke-width="2" points="376.76,-175.03 380.3,-165.05 371.3,-170.65 376.76,-175.03"/>
</g>
<!-- addition.within_10 -->
<g id="node6" class="node">
<title>addition.within_10</title>
<path fill="#f8e8a0" stroke="black" d="M113.5,-165C113.5,-165 28.5,-165 28.5,-165 22.5,-165 16.5,-159 16.5,-153 16.5,-153 16.5,-141 16.5,-141 16.5,-135 22.5,-129 28.5,-129 28.5,-129 113.5,-129 113.5,-129 119.5,-129 125.5,-135 125.5,-141 125.5,-141 125.5,-153 125.5,-153 125.5,-159 119.5,-165 113.5,-165"/>
<text text-anchor="middle" x="71" y="-150.2" font-family="Arial" font-size="11.00">addition.within_10</text>
<text text-anchor="middle" x="71" y="-138.2" font-family="Arial" font-size="11.00">Add Within 10</text>
</g>
<!-- counting.cardinality&#45;&gt;addition.within_10 -->
<g id="edge4" class="edge">
<title>counting.cardinality&#45;&gt;addition.within_10</title>
<path fill="none" stroke="#2c3e50" stroke-width="2" d="M271.66,-232.93C230.13,-215.35 165.34,-187.93 120.68,-169.03"/>
<polygon fill="#2c3e50" stroke="#2c3e50" stroke-width="2" points="122.04,-165.8 111.47,-165.13 119.31,-172.25 122.04,-165.8"/>
</g>
<!-- subtraction.within_10 -->
<g id="node7" class="node">
<title>subtraction.within_10</title>
<path fill="#f8e8a0" stroke="black" d="M281,-165C281,-165 181,-165 181,-165 175,-165 169,-159 169,-153 169,-153 169,-141 169,-141 169,-135 175,-129 181,-129 181,-129 281,-129 281,-129 287,-129 293,-135 293,-141 293,-141 293,-153 293,-153 293,-159 287,-165 281,-165"/>
<text text-anchor="middle" x="231" y="-150.2" font-family="Arial" font-size="11.00">subtraction.within_10</text>
<text text-anchor="middle" x="231" y="-138.2" font-family="Arial" font-size="11.00">Subtract Within 10</text>
</g>
<!-- counting.cardinality&#45;&gt;subtraction.within_10 -->
<g id="edge5" class="edge">
<title>counting.cardinality&#45;&gt;subtraction.within_10</title>
<path fill="none" stroke="#2c3e50" stroke-width="2" d="M298.26,-232.7C285.26,-216.33 265.62,-191.59 250.91,-173.07"/>
<polygon fill="#2c3e50" stroke="#2c3e50" stroke-width="2" points="253.5,-170.7 244.54,-165.05 248.02,-175.06 253.5,-170.7"/>
</g>
<!-- counting.ordinal -->
<g id="node8" class="node">
<title>counting.ordinal</title>
<path fill="#95e1d3" stroke="black" d="M587,-165C587,-165 507,-165 507,-165 501,-165 495,-159 495,-153 495,-153 495,-141 495,-141 495,-135 501,-129 507,-129 507,-129 587,-129 587,-129 593,-129 599,-135 599,-141 599,-141 599,-153 599,-153 599,-159 593,-165 587,-165"/>
<text text-anchor="middle" x="547" y="-150.2" font-family="Arial" font-size="11.00">counting.ordinal</text>
<text text-anchor="middle" x="547" y="-138.2" font-family="Arial" font-size="11.00">Ordinal Numbers</text>
</g>
<!-- counting.cardinality&#45;&gt;counting.ordinal -->
<g id="edge2" class="edge">
<title>counting.cardinality&#45;&gt;counting.ordinal</title>
<path fill="none" stroke="#2c3e50" stroke-width="2" d="M351.33,-232.93C391.75,-215.39 454.74,-188.04 498.28,-169.14"/>
<polygon fill="#2c3e50" stroke="#2c3e50" stroke-width="2" points="499.76,-172.32 507.54,-165.13 496.97,-165.9 499.76,-172.32"/>
</g>
<!-- counting.subitizing&#45;&gt;addition.within_10 -->
<g id="edge12" class="edge">
<title>counting.subitizing&#45;&gt;addition.within_10</title>
<path fill="none" stroke="#7f8c8d" stroke-dasharray="5,2" d="M140.75,-232.7C127.21,-216.26 106.72,-191.37 91.44,-172.82"/>
<polygon fill="#7f8c8d" stroke="#7f8c8d" points="94.1,-170.54 85.04,-165.05 88.69,-174.99 94.1,-170.54"/>
<text text-anchor="middle" x="123.5" y="-196.8" font-family="Arial" font-size="9.00">soft</text>
</g>
<!-- measurement.length_compare -->
<g id="node12" class="node">
<title>measurement.length_compare</title>
<path fill="#95e1d3" stroke="black" d="M779.5,-52C779.5,-52 634.5,-52 634.5,-52 628.5,-52 622.5,-46 622.5,-40 622.5,-40 622.5,-28 622.5,-28 622.5,-22 628.5,-16 634.5,-16 634.5,-16 779.5,-16 779.5,-16 785.5,-16 791.5,-22 791.5,-28 791.5,-28 791.5,-40 791.5,-40 791.5,-46 785.5,-52 779.5,-52"/>
<text text-anchor="middle" x="707" y="-37.2" font-family="Arial" font-size="11.00">measurement.length_compare</text>
<text text-anchor="middle" x="707" y="-25.2" font-family="Arial" font-size="11.00">Compare Lengths</text>
</g>
<!-- counting.compare&#45;&gt;measurement.length_compare -->
<g id="edge15" class="edge">
<title>counting.compare&#45;&gt;measurement.length_compare</title>
<path fill="none" stroke="#7f8c8d" stroke-dasharray="5,2" d="M451.89,-132.8C497.54,-121.58 562.4,-103.83 617,-82 634.51,-75 653.11,-65.64 668.82,-57.11"/>
<polygon fill="#7f8c8d" stroke="#7f8c8d" points="670.64,-60.11 677.71,-52.22 667.27,-53.98 670.64,-60.11"/>
<text text-anchor="middle" x="600.5" y="-92.8" font-family="Arial" font-size="9.00">soft</text>
</g>
<!-- addition.within_20 -->
<g id="node10" class="node">
<title>addition.within_20</title>
<path fill="#95e1d3" stroke="black" d="M280.5,-52C280.5,-52 195.5,-52 195.5,-52 189.5,-52 183.5,-46 183.5,-40 183.5,-40 183.5,-28 183.5,-28 183.5,-22 189.5,-16 195.5,-16 195.5,-16 280.5,-16 280.5,-16 286.5,-16 292.5,-22 292.5,-28 292.5,-28 292.5,-40 292.5,-40 292.5,-46 286.5,-52 280.5,-52"/>
<text text-anchor="middle" x="238" y="-37.2" font-family="Arial" font-size="11.00">addition.within_20</text>
<text text-anchor="middle" x="238" y="-25.2" font-family="Arial" font-size="11.00">Add Within 20</text>
</g>
<!-- addition.within_10&#45;&gt;addition.within_20 -->
<g id="edge6" class="edge">
<title>addition.within_10&#45;&gt;addition.within_20</title>
<path fill="none" stroke="#2c3e50" stroke-width="2" d="M96.73,-128.9C125.41,-109.83 171.94,-78.91 203.7,-57.8"/>
<polygon fill="#2c3e50" stroke="#2c3e50" stroke-width="2" points="205.85,-60.57 212.24,-52.12 201.98,-54.74 205.85,-60.57"/>
</g>
<!-- subtraction.within_20 -->
<g id="node11" class="node">
<title>subtraction.within_20</title>
<path fill="#95e1d3" stroke="black" d="M128,-52C128,-52 28,-52 28,-52 22,-52 16,-46 16,-40 16,-40 16,-28 16,-28 16,-22 22,-16 28,-16 28,-16 128,-16 128,-16 134,-16 140,-22 140,-28 140,-28 140,-40 140,-40 140,-46 134,-52 128,-52"/>
<text text-anchor="middle" x="78" y="-37.2" font-family="Arial" font-size="11.00">subtraction.within_20</text>
<text text-anchor="middle" x="78" y="-25.2" font-family="Arial" font-size="11.00">Subtract Within 20</text>
</g>
<!-- addition.within_10&#45;&gt;subtraction.within_20 -->
<g id="edge14" class="edge">
<title>addition.within_10&#45;&gt;subtraction.within_20</title>
<path fill="none" stroke="#7f8c8d" stroke-dasharray="5,2" d="M72.09,-128.66C73.21,-110.9 74.97,-83.04 76.28,-62.32"/>
<polygon fill="#7f8c8d" stroke="#7f8c8d" points="79.78,-62.42 76.91,-52.22 72.79,-61.98 79.78,-62.42"/>
<text text-anchor="middle" x="82.5" y="-92.8" font-family="Arial" font-size="9.00">soft</text>
</g>
<!-- subtraction.within_10&#45;&gt;addition.within_20 -->
<g id="edge13" class="edge">
<title>subtraction.within_10&#45;&gt;addition.within_20</title>
<path fill="none" stroke="#7f8c8d" stroke-dasharray="5,2" d="M232.09,-128.66C233.21,-110.9 234.97,-83.04 236.28,-62.32"/>
<polygon fill="#7f8c8d" stroke="#7f8c8d" points="239.78,-62.42 236.91,-52.22 232.79,-61.98 239.78,-62.42"/>
<text text-anchor="middle" x="241.5" y="-92.8" font-family="Arial" font-size="9.00">soft</text>
</g>
<!-- subtraction.within_10&#45;&gt;subtraction.within_20 -->
<g id="edge7" class="edge">
<title>subtraction.within_10&#45;&gt;subtraction.within_20</title>
<path fill="none" stroke="#2c3e50" stroke-width="2" d="M207.43,-128.9C181.26,-109.91 138.89,-79.17 109.8,-58.07"/>
<polygon fill="#2c3e50" stroke="#2c3e50" stroke-width="2" points="111.75,-55.16 101.6,-52.12 107.64,-60.83 111.75,-55.16"/>
</g>
</g>
</svg>
